<?xml version="1.0" standalone="no"?>
<!DOCTYPE svg PUBLIC "-//W3C//DTD SVG 1.1//EN" "http://www.w3.org/Graphics/SVG/1.1/DTD/svg11.dtd" >
<svg xmlns="http://www.w3.org/2000/svg" xmlns:xlink="http://www.w3.org/1999/xlink" version="1.1">
<metadata>
Created by FontForge 20170731 at Tue Jul  9 11:42:54 2019
 By Aleksey,,,
Copyright (c) 2010, Haley Fiege (haley@kingdomofawesome.com
</metadata>
<defs>
<font id="LeagueScript" horiz-adv-x="833" >
  <font-face 
    font-family="League Script"
    font-weight="400"
    font-stretch="normal"
    units-per-em="1536"
    panose-1="0 0 0 0 0 0 0 0 0 0"
    ascent="1228"
    descent="-308"
    x-height="507"
    cap-height="924"
    bbox="-1787 -598 1829 1315"
    underline-thickness="50"
    underline-position="-150"
    unicode-range="U+0020-FB02"
  />
<missing-glyph horiz-adv-x="412" 
 />
    <glyph glyph-name=".notdef" horiz-adv-x="412" 
 />
    <glyph glyph-name=".null" horiz-adv-x="0" 
 />
    <glyph glyph-name="nonmarkingreturn" horiz-adv-x="412" 
 />
    <glyph glyph-name="space" unicode=" " horiz-adv-x="412" 
 />
    <glyph glyph-name="space" unicode="&#xa0;" horiz-adv-x="412" 
 />
    <glyph glyph-name="exclam" unicode="!" horiz-adv-x="622" 
d="M200 174q-4 0 -6.5 3t-2.5 6t1 4q26 63 58.5 126.5t68 123.5t70.5 114.5t66 98.5q33 48 62.5 88.5t52 69.5t35.5 45.5l13 16.5q3 3 7 3q9 0 9 -9q0 -2 -2 -6l-13 -16.5t-35 -45t-51.5 -68.5t-62.5 -88q-30 -44 -65 -98t-70 -113.5t-68 -122.5t-58 -126q-4 -6 -9 -6z
M190 46q0 -23 -17 -39.5t-40 -16.5t-39.5 16.5t-16.5 39.5q0 24 16.5 40.5t39.5 16.5t40 -16.5t17 -40.5z" />
    <glyph glyph-name="quotedbl" unicode="&#x22;" horiz-adv-x="407" 
d="M56 504q-3 0 -6.5 2t-3.5 7q0 4 4 7q54 41 84.5 78t45.5 68t18.5 53.5t3.5 35.5q0 24 -2 28t-2 5q0 3 1.5 6t6.5 3q1 0 3.5 0.5t5 -3t4 -12.5t1.5 -27q0 -56 -39 -122t-120 -127q-4 -2 -5 -2zM165 504q-3 0 -6.5 2t-3.5 7q0 4 4 7q54 41 84.5 78t45.5 68t18.5 53.5
t3.5 35.5q0 24 -2 28t-2 5q0 3 1.5 6t6.5 3q1 0 3.5 0.5t5 -3t4 -12.5t1.5 -27q0 -56 -39 -122t-120 -127q-4 -2 -5 -2z" />
    <glyph glyph-name="numbersign" unicode="#" horiz-adv-x="962" 
d="M41 -74q-4 0 -6.5 3t-2.5 6q0 4 1 5l595 916q4 4 7 4q10 0 10 -9q0 -3 -2 -5l-595 -916q-2 -4 -7 -4zM338 -74q-2 0 -5.5 2t-3.5 7q0 1 2 5l595 916q2 4 7 4q9 0 9 -10q0 -3 -1 -4l-595 -916q-4 -4 -8 -4zM884 556h-605q-9 0 -9 9t9 9h605q9 0 9 -9t-9 -9zM711 234h-605
q-9 0 -9 9t9 9h605q9 0 9 -9t-9 -9z" />
    <glyph glyph-name="dollar" unicode="$" horiz-adv-x="950" 
d="M241 -94q-39 1 -77 12.5t-68.5 34.5t-49.5 57t-19 79q0 38 17 71t38 58t40 40t22 17q1 1 4 1q10 0 10 -9q0 -5 -4.5 -7.5t-14 -8.5t-23.5 -19.5t-33 -38.5q-38 -52 -38 -103q0 -35 15 -65.5t42.5 -53t66 -35t85.5 -12.5q34 0 71.5 8.5t73 27t67.5 49t55 75.5
q33 63 45.5 120.5t12.5 112.5q0 47 -6.5 93t-15 92t-15 93.5t-6.5 97.5q0 82 22.5 143t57.5 101.5t78.5 60t85.5 19.5q36 0 67 -11t54.5 -31t37 -47.5t13.5 -59.5q0 -34 -11 -61.5t-27.5 -48.5t-36.5 -36t-37.5 -24.5t-30.5 -14.5t-16 -6q-1 -1 -3 -1q-3 0 -6 2.5t-3 7.5
t6 8q5 0 28 11t49 32.5t47 54.5t21 77q0 27 -11 50.5t-31 41t-47 28t-58 10.5q-40 0 -81 -18.5t-74 -56.5t-54 -96.5t-21 -137.5q0 -49 6.5 -95t14.5 -92t14.5 -92t6.5 -95q0 -125 -60 -240q-47 -89 -125 -129.5t-171 -40.5zM107 -186q-4 1 -4 7q0 1 2 5l813 1270q3 4 8 4
q9 0 9 -8q0 -4 -2 -6l-813 -1270q-3 -4 -7 -4t-6 2z" />
    <glyph glyph-name="percent" unicode="%" 
d="M495 793q0 -21 -8 -40t-22.5 -33t-33.5 -22t-40 -8t-39.5 8t-33 22t-22.5 33t-8 40t8 40t22.5 33t33 22t39.5 8t40 -8t33 -22t22.5 -33t8.5 -40zM503 71q0 -21 -8 -40t-22 -33t-33 -22t-40 -8t-40 8t-33 22t-22 33t-8 40t8 40t22 33t33 22t40 8t40 -8t33 -22t22 -33
t8 -40zM106 -34q-5 0 -7 3t-2 6q0 1 2 5l587 915q3 4 8 4t7 -3t2 -6t-1 -5l-588 -915q-3 -4 -8 -4z" />
    <glyph glyph-name="ampersand" unicode="&#x26;" horiz-adv-x="1163" 
d="M385 -140q-55 0 -105 14.5t-87.5 45t-59.5 77.5t-22 111q0 32 6 65t19 67q25 69 66.5 121.5t93 92.5t111.5 69.5t122.5 52t126 39.5t121.5 33q48 79 87 131.5t71 84t60 44t55 12.5q41 0 60.5 -22t19.5 -51q0 -66 -83.5 -115.5t-258.5 -98.5q-46 -74 -94 -157t-86 -165
q-43 -92 -65 -163.5t-22 -124.5q0 -72 43 -108q80 33 139 83.5t97.5 98t57.5 82t20 35.5q2 5 8 5q9 0 9 -10q0 -1 -0.5 -1.5t-0.5 -1.5q-1 -2 -9 -17t-24 -39t-40 -54.5t-55 -62.5q-41 -42 -88.5 -77.5t-94.5 -52.5q34 -19 92 -19q48 0 87.5 13.5t71.5 34t55.5 44.5t40 44
t24.5 32.5t9 11.5q3 4 8 4q9 0 9 -9q0 -3 -1 -4t-6.5 -9.5t-16 -22t-26 -31t-35.5 -35.5q-47 -42 -103 -66.5t-117 -24.5q-70 0 -113 28q-88 -34 -177 -34zM762 625q-95 -24 -188.5 -52.5t-175 -72.5t-145.5 -108t-100 -158q-24 -65 -24 -126q0 -54 18 -97t51.5 -72.5
t80.5 -45t106 -15.5q45 0 85 7.5t75 21.5q-20 20 -31 49t-11 68q0 56 22 128.5t67 166.5q37 78 81.5 156.5t88.5 149.5zM1009 893q-18 -8 -37.5 -22.5t-44.5 -41t-55 -68.5t-69 -105q102 29 163 56t93.5 51t42.5 45t10 39q0 30 -20.5 42t-41.5 12q-23 0 -41 -8z" />
    <glyph glyph-name="quotesingle" unicode="'" horiz-adv-x="243" 
d="M276 560q-9 0 -9 9q0 3 1 4l137 275q2 5 8 5q3 0 6 -2.5t3 -5.5q0 -4 -1 -5l-137 -275q-2 -5 -8 -5z" />
    <glyph glyph-name="parenleft" unicode="(" horiz-adv-x="384" 
d="M119 -145q-6 0 -9 13t-4.5 30.5t-1.5 35.5v29q0 183 77.5 361.5t229.5 350.5q70 79 134.5 138t114.5 98t81 58.5t34 19.5t6 -2.5t3 -6.5t-3.5 -6.5t-15.5 -10.5t-35.5 -24.5t-62.5 -47.5q-47 -37 -111 -95t-132 -134q-53 -60 -107 -135.5t-97.5 -164t-70.5 -189
t-27 -210.5q0 -25 3 -49.5t3 -49.5q0 -3 -2.5 -6t-6.5 -3z" />
    <glyph glyph-name="parenright" unicode=")" horiz-adv-x="593" 
d="M-156 -183q-4 0 -6.5 3.5t-2.5 6.5t1.5 4t12.5 8t35 24t69 53q46 36 110.5 94t132.5 134q53 60 107 135.5t97 164t70 189t27 210.5q0 48 -6 98q0 8 8 10q6 0 9.5 -13.5t5 -31.5t1.5 -36.5v-28.5q0 -180 -77 -359t-229 -351q-71 -80 -135.5 -139t-115 -98t-81 -58
t-33.5 -19z" />
    <glyph glyph-name="asterisk" unicode="*" horiz-adv-x="431" 
d="M399 696q-1 -17 -13 -25t-29 -8q-11 0 -24.5 4t-28.5 8.5t-31.5 9t-32.5 6.5q18 -14 38.5 -24.5t38.5 -21t29.5 -21.5t11.5 -27q0 -12 -9 -22l-2 -2q-11 -9 -22 -9q-16 0 -27.5 11.5t-21.5 29.5t-20.5 38.5t-24.5 38.5q1 -16 6 -32.5t9.5 -31.5t8.5 -29t4 -24
q0 -17 -8 -29t-25 -13h-3q-17 1 -25.5 13t-8.5 29q0 10 3.5 23.5t8.5 29t10 32t7 32.5q-15 -18 -25.5 -38.5t-20.5 -38.5t-21.5 -30t-27.5 -12q-13 0 -23 10t-10 22q0 17 12 28.5t30 22t38.5 21t37.5 24.5q-16 -2 -32.5 -6.5t-32 -9t-29 -8.5t-23.5 -4q-17 0 -28.5 8
t-13.5 25q0 19 12.5 28t29.5 9q10 0 24 -3.5t29.5 -8.5t32 -10t31.5 -7q-17 15 -37.5 25t-38.5 20t-30 21t-12 28q0 11 9 22l3 3q9 8 22 8q16 0 27.5 -12t21 -30t20 -38.5t25.5 -36.5q-2 15 -7 31.5t-10 32t-8.5 29.5t-3.5 24q0 17 8.5 28.5t25.5 13.5q18 0 27 -12t9 -30
q0 -10 -4 -23.5t-8.5 -29t-9.5 -32t-6 -32.5q14 17 24.5 37.5t20.5 38t21.5 29.5t27.5 12q13 0 22 -8l3 -3q9 -11 9 -22q0 -16 -12 -27t-30 -21t-38.5 -20.5t-38.5 -25.5q16 2 32.5 6.5t32 9.5t29 9t23.5 4q17 0 29 -8.5t13 -25.5v-3z" />
    <glyph glyph-name="plus" unicode="+" 
d="M204 59q-2 0 -5.5 2t-3.5 7q0 1 2 5l376 578q2 4 7 4q9 0 9 -10q0 -3 -1 -4l-376 -578q-4 -4 -8 -4zM725 367h-605q-9 0 -9 9t9 9h605q9 0 9 -9t-9 -9z" />
    <glyph glyph-name="comma" unicode="," horiz-adv-x="203" 
d="M182 52q0 -5 -3.5 -18.5t-14.5 -29t-32.5 -31.5t-58.5 -26q-11 0 -11 9q0 4 7 8q23 6 38.5 14.5t26.5 18.5q-3 -1 -9 -1q-23 0 -39.5 16.5t-16.5 39.5q0 24 16.5 40.5t39.5 16.5q24 0 40.5 -16.5t16.5 -40.5z" />
    <glyph glyph-name="hyphen" unicode="-" horiz-adv-x="716" 
d="M661 303h-605q-9 0 -9 9t9 9h605q9 0 9 -9t-9 -9z" />
    <glyph glyph-name="period" unicode="." horiz-adv-x="223" 
d="M190 46q0 -23 -17 -39.5t-40 -16.5t-39.5 16.5t-16.5 39.5q0 24 16.5 40.5t39.5 16.5t40 -16.5t17 -40.5z" />
    <glyph glyph-name="slash" unicode="/" horiz-adv-x="969" 
d="M176 -225q-9 0 -9 9q0 1 2 5l813 1270q4 4 7 4q10 0 10 -9q0 -3 -2 -5l-813 -1270q-3 -4 -8 -4z" />
    <glyph glyph-name="zero" unicode="0" horiz-adv-x="778" 
d="M266 -22q-93 0 -146 60t-53 175q0 77 25 164t68.5 172t102.5 163t127.5 137.5t143.5 95t150 35.5q22 0 33 -1.5t15.5 -3.5t4 -4t-0.5 -4q0 -11 -10 -11l-1 0.5t-4.5 1t-12.5 1t-25 0.5q-15 0 -41 -2.5t-59.5 -12.5t-74.5 -30.5t-86 -56.5t-93.5 -90.5t-97.5 -132.5
q-69 -110 -106.5 -220t-37.5 -201q0 -103 46.5 -159.5t132.5 -56.5q62 0 122.5 31t117 89.5t108.5 144t97 194.5q30 73 41.5 129.5t11.5 101.5q0 33 -5 59t-12.5 45.5t-16.5 33t-16 21.5q-20 23 -46.5 34.5t-54.5 11.5q-17 0 -35 -5h-1q-14 -5 -25 -15q-10 -8 -17.5 -22.5
t-7.5 -37.5q0 -22 15.5 -36t34 -22.5t34.5 -11.5l16 -3q9 -2 9 -10q0 -10 -10 -10q5 0 -13 2t-47 16q-59 29 -59 76q0 29 10.5 47.5t22.5 28.5t22 13.5l10 3.5q21 6 42 6q36 0 67.5 -16.5t54 -45.5t35.5 -70.5t13 -90.5q0 -52 -13 -110t-35.5 -116.5t-51.5 -115t-61 -107
t-64 -91t-61 -67.5q-113 -104 -232 -104z" />
    <glyph glyph-name="one" unicode="1" horiz-adv-x="567" 
d="M87 -8q-5 3 -5 8q0 2 2 6q52 78 111 162.5t119.5 169t120 166t113.5 154.5t100 134t79 105q-68 -49 -152.5 -86t-189.5 -60q-52 -12 -97.5 -18.5t-80 -9.5t-54.5 -3.5l-20 -0.5q-10 0 -10 10q0 9 10.5 10t39 2t79 6t129.5 23q47 10 101 27.5t109 43t107 61t95 82.5
l15 -12q-1 -2 -35 -46.5t-90 -119t-128 -172.5t-150.5 -206.5t-157 -220t-146.5 -213.5q-2 -4 -7 -4q-4 0 -7 2z" />
    <glyph glyph-name="two" unicode="2" horiz-adv-x="806" 
d="M614 -41q-25 2 -52.5 15t-60.5 28t-71.5 27t-86.5 12q-35 0 -74.5 -10t-76 -22.5t-68 -22.5t-50.5 -10q-12 0 -21 5.5t-9 17.5q0 11 6.5 21.5t10.5 15.5q41 54 99 107t125.5 104t139.5 98.5t140 90.5t128 81.5t103 70.5q64 48 99 106.5t35 114.5q0 34 -13 61.5t-36 47
t-56 29.5t-72 10q-44 0 -88.5 -12t-85.5 -34.5t-76 -56.5t-58 -77q-12 -23 -12 -45q0 -23 18 -41.5t59 -18.5q60 0 104 72q18 30 25 48.5t9.5 28.5t3.5 13t8 3q10 0 10 -9v-3q0 -1 -2.5 -9t-7 -21t-12 -29.5t-17.5 -32.5q-25 -40 -55 -61t-65 -21q-26 0 -44.5 7.5
t-30.5 19.5t-17.5 26.5t-5.5 29.5q0 27 14 53q25 46 60.5 81.5t76.5 59.5t87.5 36.5t94.5 12.5q39 0 75.5 -9.5t65 -29.5t46 -52t17.5 -78q0 -36 -12.5 -70t-32.5 -64.5t-45.5 -56.5t-51.5 -45q-42 -31 -101.5 -68.5t-128 -80.5t-140.5 -90.5t-139 -98t-125 -103.5t-97 -107
q-5 -7 -10 -13t-5 -10q-1 -2 0 -3q1 -3 11 -3q14 0 44 10.5t68.5 22.5t80.5 22.5t79 10.5q50 0 90.5 -13t74.5 -28t61 -28t50 -13q16 0 30.5 7.5t28.5 26.5q3 3 8 3q10 0 10 -9q0 -3 -2 -7q-17 -21 -36 -31t-46 -10z" />
    <glyph glyph-name="three" unicode="3" 
d="M259 -87q-110 0 -171.5 49t-61.5 146q3 48 18.5 81.5t33.5 55t33.5 32.5t18.5 13q1 1 16.5 8t36.5 7q15 0 29.5 -6t26 -18t19 -29t7.5 -39q0 -24 -11.5 -41.5t-25 -29t-25.5 -17.5t-13 -6q-1 -1 -3 -1q-3 0 -7 3t-4 7q0 6 7 10l10 5t22 14.5t21.5 23.5t9.5 32
q0 17 -6 30.5t-15.5 22.5t-20.5 13.5t-20 4.5t-17 -2t-14 -4q-7 -3 -13 -5q-2 0 -16.5 -10t-32 -32t-31.5 -55.5t-14 -80.5q0 -35 13.5 -64.5t40 -51.5t66.5 -34t94 -12q80 0 162 32q28 11 61.5 29.5t68 46t68.5 65.5t63 89q30 54 42 100t12 84q0 31 -6.5 60.5t-16 52
t-20.5 36t-20 13.5q-6 -2 -38 -2q-19 0 -45 3.5t-50 11.5t-41 22.5t-17 36.5l0.5 6.5t6 14.5t18.5 14.5t38 6.5q33 0 59.5 -13.5t45.5 -30.5t30 -31.5t13 -16.5q10 2 29.5 7t43 17.5t50 34t51.5 55.5q19 25 28 54.5t9 58.5q0 35 -11.5 63t-32.5 47.5t-50 29.5t-63 10
q-41 0 -70.5 -10.5t-49 -23t-29.5 -23t-13 -10.5q-11 0 -11 10q0 7 9 15.5t21.5 17t25.5 16t21 10.5q43 18 94 18q35 0 67.5 -10t57 -31t39.5 -53t15 -76q0 -51 -21 -91t-50 -69t-59.5 -47.5t-49.5 -25.5q-21 -9 -38 -12q18 -27 34 -71.5t16 -93.5q0 -59 -20 -116.5
t-55 -109t-82.5 -96t-103 -76.5t-116 -50.5t-121.5 -18.5zM548 635q-21 0 -33 -5.5t-12 -17.5q0 -16 15.5 -26t37 -16t44.5 -8.5t38 -2.5q12 0 20 0.5t12 0.5l-3 3l-1 3q-1 0 -9 11.5t-24 25.5q-38 32 -85 32z" />
    <glyph glyph-name="four" unicode="4" horiz-adv-x="822" 
d="M299 -25q-5 0 -7.5 3.5t-2.5 6.5q0 2 2 6l314 401q-48 9 -103.5 13t-121.5 4q-58 0 -110.5 -3.5t-93 -7t-64.5 -7l-24 -3.5l-4 20q79 21 164.5 57t169 79.5t161.5 91t143 90.5q71 46 131.5 89t104.5 76t69.5 53l25.5 20l14 -14l-427 -545q36 -12 65 -23t51.5 -24t39 -29
t28.5 -38q1 -2 1 -5q0 -4 -2.5 -7.5t-7.5 -3.5q-7 0 -8 6q-20 38 -64.5 63t-115.5 43l-320 -408q-3 -4 -8 -4zM387 430q136 0 232 -21l383 490q-28 -22 -69 -51t-90.5 -62.5t-104 -69.5t-110 -71t-109.5 -66.5t-102 -56.5q-61 -32 -117.5 -58t-109.5 -44q41 4 91.5 7
t105.5 3z" />
    <glyph glyph-name="five" unicode="5" horiz-adv-x="857" 
d="M264 -54q-81 0 -154 45q-1 0 -11 7.5t-21 22t-20.5 36t-9.5 50.5q0 85 97 185q3 3 7 3q10 0 10 -10q0 -4 -3 -7q-92 -95 -92 -172q0 -24 8.5 -42.5t18 -30.5t18 -18.5l8.5 -6.5q38 -23 74 -32.5t70 -9.5q39 0 75 11t67 27.5t56.5 36.5t45.5 38q39 37 70.5 78t53.5 76
t34.5 58t12.5 24t6.5 15t14.5 37.5t14.5 54.5t6.5 65q0 33 -10 64.5t-31 55.5t-53.5 39t-76.5 15q-42 0 -84 -17t-76 -37t-56 -37.5l-22 -17.5l-15 13l236 304q1 1 4 5.5t9 9.5t15.5 8.5t23.5 3.5t34 -6q34 -11 68.5 -15.5t66.5 -4.5q48 0 88.5 6t71 13.5t49 14t21.5 6.5
q4 0 7.5 -3t3.5 -7v-4t-10.5 -8.5t-38 -12.5t-81.5 -16q-57 -9 -109 -9q-80 0 -144 21q-14 5 -28 5q-20 0 -27 -8t-7 -9l-193 -249q52 33 102.5 52t92.5 19q49 0 84.5 -17t59 -44t35 -61.5t11.5 -70.5q0 -30 -7 -61.5t-15 -58t-15.5 -44t-7.5 -18.5q-52 -101 -119 -180
q-29 -34 -63 -66t-74 -57.5t-84.5 -41t-92.5 -15.5z" />
    <glyph glyph-name="six" unicode="6" horiz-adv-x="697" 
d="M251 -69q-91 0 -136 47t-45 134q0 68 20.5 141t54.5 145.5t78.5 141.5t92 128.5t94 107t86.5 77.5q34 26 62.5 41.5t51.5 23.5t40 10.5t28 2.5q53 0 81 -25t28 -71q0 -21 -5 -42.5t-11.5 -39t-12 -29t-6.5 -12.5q-2 -6 -8 -6q-5 0 -8 3.5t-3 7.5q0 1 2 5l5 10.5t11 27
t11 36.5t5 40q0 75 -91 75q-43 0 -95 -27t-109 -77.5t-116.5 -122t-116.5 -159.5q-33 -50 -60 -105.5t-47 -110t-31 -105.5t-11 -91q0 -162 162 -162q68 0 123.5 28t99 70t74.5 89.5t51 86.5q24 48 36.5 94t12.5 85q0 72 -38.5 110t-105.5 38q-105 0 -189 -72
q-29 -25 -42.5 -41.5t-19.5 -26.5t-8 -14t-8 -4q-5 0 -7.5 3.5t-2.5 7.5q0 3 1 5q1 3 10.5 16t26.5 31t40.5 38t53.5 37.5t66 28.5t77 11q78 0 122 -44.5t44 -125.5q0 -42 -13.5 -89.5t-38.5 -96.5q-21 -40 -53.5 -89.5t-78 -93t-104 -73t-130.5 -29.5z" />
    <glyph glyph-name="seven" unicode="7" horiz-adv-x="467" 
d="M42 -108q-10 0 -10 10q0 4 3 7q1 1 34.5 40.5t88 104.5t123 148t138.5 171q83 103 147.5 188.5t109 150t67.5 106.5t23 59q0 3 -2 3t-5.5 -0.5t-8.5 -2.5q-47 -17 -104 -25.5t-126 -8.5q-53 0 -107.5 5t-98 11.5t-71 12t-25.5 5.5q-8 2 -8 10q0 9 10 9q3 0 28 -5
t65.5 -11.5t94 -11.5t112.5 -5q57 0 114.5 7t108.5 26q9 4 20 4q10 0 16.5 -6t6.5 -18q0 -8 -4 -21.5t-15 -34.5t-30 -51.5t-48 -72.5q-45 -64 -108 -148t-146 -188q-47 -59 -93.5 -115.5t-89 -108t-79.5 -95.5t-64 -76t-43 -50.5t-16 -19.5q-3 -3 -8 -3z" />
    <glyph glyph-name="eight" unicode="8" horiz-adv-x="1000" 
d="M225 -123q-106 0 -162 42t-56 127q0 18 2.5 33.5t5.5 28t6 20.5t3 10q2 5 10 23t24 44t39.5 58t56 64.5t75.5 64t96 55.5q75 34 133.5 51t99.5 30q-21 42 -37.5 83t-16.5 86q0 40 16.5 79.5t45.5 70t69.5 49.5t87.5 19q35 0 67 -10.5t59 -30.5q-6 29 -16 55t-19 45
q-11 22 -23 41q-3 3 -3 6t2.5 6.5t7.5 3.5q3 0 9 -4q0 -1 9 -14.5t20 -37t21.5 -55t14.5 -67.5q54 -60 54 -148v-15.5t-1 -18t-4 -14.5t-8 -6t-7.5 3.5t-2.5 8.5q3 22 3 42q0 36 -9 64t-24 51q0 -45 -14.5 -86.5t-41.5 -79.5q-17 -23 -41.5 -42.5t-55 -36t-64.5 -31
t-70 -27.5q24 -49 44 -102t20 -117q0 -44 -12.5 -94t-40 -99t-70.5 -93.5t-103 -77.5q-49 -27 -101 -42t-98 -15zM567 510q-40 -15 -99.5 -31t-133.5 -50q-63 -29 -108.5 -62.5t-77.5 -66.5t-51.5 -64t-31 -54t-16 -37t-6.5 -13v-1q0 -1 -8 -26t-8 -60q0 -70 49 -109
t149 -39q41 0 90 13.5t96.5 39t89 62t67.5 82.5q34 60 48 109.5t14 94.5q0 62 -20 113.5t-43 98.5zM723 895q-32 0 -67 -12.5t-64.5 -37.5t-48.5 -62t-19 -86q0 -42 16 -81t37 -81q34 13 67.5 27t63 29.5t53.5 34t40 40.5q52 73 52 156q0 5 -0.5 10.5t-0.5 11.5
q-27 27 -61 39t-68 12z" />
    <glyph glyph-name="nine" unicode="9" horiz-adv-x="553" 
d="M133 -60q-10 0 -10 10q0 2 2 6l570 777q-134 -134 -239 -201t-187 -67q-38 0 -69.5 11.5t-55 32.5t-36.5 50t-13 65q0 57 35.5 116t97.5 107t146 78.5t180 30.5q41 0 76 -4.5t60 -10t39.5 -10.5t15.5 -5q7 -4 7 -9t-3.5 -8t-7.5 -3q-2 0 -3 1q-24 8 -53 14
q-25 5 -58.5 10t-72.5 5q-58 0 -129 -15.5t-144 -61.5q-78 -50 -122 -111.5t-44 -122.5q0 -32 12 -58t33 -44t49 -28t60 -10q68 0 159 53t208 165q38 36 70.5 70.5t56.5 61.5t37.5 44l13.5 17l16 -12l-689 -940q-3 -4 -8 -4z" />
    <glyph glyph-name="colon" unicode=":" horiz-adv-x="324" 
d="M231 103q0 -23 -17 -39.5t-40 -16.5t-39.5 16.5t-16.5 39.5q0 24 16.5 40.5t39.5 16.5t40 -16.5t17 -40.5zM296 376q0 -23 -17 -39.5t-40 -16.5t-39.5 16.5t-16.5 39.5q0 24 16.5 40.5t39.5 16.5t40 -16.5t17 -40.5z" />
    <glyph glyph-name="semicolon" unicode=";" horiz-adv-x="332" 
d="M296 376q0 -23 -17 -39.5t-40 -16.5t-39.5 16.5t-16.5 39.5q0 24 16.5 40.5t39.5 16.5t40 -16.5t17 -40.5zM182 52q0 24 -16.5 40.5t-40.5 16.5q-23 0 -39.5 -16.5t-16.5 -40.5q0 -23 16.5 -39.5t39.5 -16.5q6 0 9 1q-11 -10 -26.5 -18.5t-38.5 -14.5q-7 -4 -7 -8
q0 -9 11 -9q37 10 58.5 26t32.5 31.5t14.5 29t3.5 18.5z" />
    <glyph glyph-name="less" unicode="&#x3c;" 
d="M380 85q-9 0 -9 8q-3 42 -25 80.5t-53 70.5t-66 58t-64.5 44.5t-48.5 29t-17 11.5q-5 3 -5 9q0 8 10 8q25 -3 52 -3q54 0 105 10t97.5 26.5t87 37t73.5 40.5q40 24 73 48.5t56 43.5t35.5 31.5l12.5 12.5q2 1 3.5 2t3.5 1q8 0 8 -9q0 -3 -2 -7l-13 -12.5t-36.5 -32
t-56.5 -44t-74 -49.5q-94 -57 -187 -87t-184 -29h-17q39 -24 81.5 -56.5t79 -70.5t61.5 -79.5t28 -82.5q0 -10 -9 -10z" />
    <glyph glyph-name="equal" unicode="=" 
d="M774 443h-605q-9 0 -9 9t9 9h605q9 0 9 -9t-9 -9zM651 234h-605q-9 0 -9 9t9 9h605q9 0 9 -9t-9 -9z" />
    <glyph glyph-name="greater" unicode="&#x3e;" 
d="M85 117q-4 0 -6.5 3t-2.5 6t3 6q0 1 14.5 14.5t39.5 34t60.5 45.5t76.5 49.5t87.5 46.5t94.5 37q45 14 89 21.5t88 6.5h17q-38 23 -80.5 55.5t-78.5 70t-61.5 79.5t-28.5 84q0 8 8 10q10 0 10 -9q3 -41 25 -79t52.5 -70.5t65.5 -59t64.5 -45.5t48.5 -29t18 -10q5 -3 5 -9
q0 -3 -3 -5.5t-6 -2.5q-14 0 -26.5 1.5t-26.5 1.5q-79 0 -149 -18.5t-129 -46.5t-107 -60t-82 -60t-53 -46.5t-21 -18.5q-2 -3 -6 -3z" />
    <glyph glyph-name="question" unicode="?" horiz-adv-x="836" 
d="M188 173q-3 0 -6 2.5t-3 6.5t1 5l140 224h5q24 -3 47 -3q53 0 104 15.5t96.5 41t83.5 59.5t65 71t42.5 75t15.5 72q0 25 -10 47.5t-30 39.5t-51 27t-73 10q-47 0 -94.5 -16t-90 -46.5t-76.5 -76t-54 -104.5q-4 -7 -8 -7q-9 0 -9 9v3q18 53 50.5 100t76 81.5t95 54.5
t107.5 20q48 0 83 -11.5t58 -30.5t34 -44.5t11 -52.5q0 -37 -16 -77.5t-44.5 -80t-68 -75t-86.5 -63t-99.5 -43.5t-107.5 -16q-24 0 -46 3l-134 -215q-3 -5 -8 -5zM172 46q0 -23 -17 -39.5t-40 -16.5t-39.5 16.5t-16.5 39.5q0 24 16.5 40.5t39.5 16.5t40 -16.5t17 -40.5z
" />
    <glyph glyph-name="at" unicode="@" horiz-adv-x="1143" 
d="M121 424q50 72 123 134.5t158.5 109t178.5 73t183 26.5q74 0 138 -18t111 -49.5t74 -73.5t27 -89q0 -52 -33 -115q-14 -26 -36 -55.5t-50.5 -59t-62 -57t-68.5 -49t-70 -34t-68 -12.5q-37 0 -57 15t-20 37q0 27 36 68q-29 -23 -60.5 -47.5t-65.5 -44t-70.5 -32
t-73.5 -12.5q-29 0 -55 9.5t-46 27t-31.5 42t-11.5 53.5q0 90 126 197q36 30 76 57.5t83 48.5t88 33t92 12q22 0 47.5 -4.5t47 -15.5t35.5 -29.5t14 -46.5q0 -62 -78 -144l4 3q30 22 58.5 41.5t51 34t37 23l14.5 8.5q2 2 5 2t5.5 -3t2.5 -6t-9 -8.5t-28.5 -18.5l-51 -34
t-75.5 -54q-47 -35 -76 -61.5t-45 -46t-21.5 -32.5t-5.5 -20v-4q0 -2 1.5 -7t7.5 -10t18 -9t33 -4q31 0 65 13t67.5 34.5t65.5 49t59.5 56t48 56t32.5 49.5q16 29 23 55.5t7 50.5q0 48 -28.5 87t-75 67t-105.5 43t-121 15q-85 0 -169.5 -23.5t-162 -63t-144.5 -92
t-116.5 -111t-78 -119.5t-28.5 -117q0 -59 27.5 -106t74 -80t107.5 -51t128 -18q27 0 54 3q73 8 131.5 23t107 36t89 48t78.5 59q2 1 3.5 2t3.5 1q9 0 9 -10q0 -3 -2 -5q-44 -42 -100.5 -75t-119 -55t-126.5 -33.5t-124 -11.5q-77 0 -143 20t-114 56t-75.5 86t-27.5 110
q0 46 17.5 97t55.5 105zM415 157q37 0 76.5 15.5t78 40t75.5 54t71 57.5q43 36 71.5 66t45 54.5t23 43.5t6.5 33q0 25 -13.5 41t-33 24.5t-41.5 11.5t-38 3q-74 0 -159 -38t-168 -109q-20 -17 -41 -37.5t-38.5 -44t-29 -48.5t-11.5 -52q0 -28 11 -49.5t29 -36t40.5 -22
t45.5 -7.5z" />
    <glyph glyph-name="A" unicode="A" horiz-adv-x="1208" 
d="M1544 980q4 -3 4 -9q0 -7 -8 -7q-4 0 -6 2q-34 23 -70.5 34t-71.5 13q-7 -5 -36 -26t-71 -60t-91 -96.5t-96 -134.5t-87.5 -174t-63.5 -216q41 10 71.5 22.5t50.5 23t30.5 18t11.5 8.5q4 2 6 2q3 0 6 -2t3 -6t-4 -8l-11 -8.5t-33.5 -20t-56 -25t-78.5 -23.5
q-11 -67 -16 -137t-5 -150h-18q0 63 -12 132t-40 139q-22 -2 -43 -3t-44 -1q-71 0 -124 7.5t-91 18.5q-41 -67 -81 -128.5t-83.5 -108.5t-92.5 -75t-108 -28q-39 0 -66 13t-45 33t-28 43.5t-15 44t-6 35.5t-1 17q0 10 9 10t9 -9q0 -20 6.5 -48.5t23 -55.5t44.5 -46t70 -19
q54 0 99.5 26.5t86.5 71.5t80 104.5t81 125.5q-49 20 -70 46t-21 55q0 27 11.5 46.5t31 31.5t44.5 17.5t52 5.5q19 0 38.5 -2t39.5 -8q5 8 11 16.5t12 16.5q80 108 159.5 201t163.5 160.5t174.5 106t192.5 38.5q41 0 85.5 -10t86.5 -40zM460 400q0 -17 7.5 -30t19.5 -23.5
t26.5 -18t29.5 -13.5q25 39 50.5 79.5t54.5 81.5q-32 8 -67 8q-19 0 -40 -3.5t-39 -12.5t-30 -25.5t-12 -42.5zM729 285q28 0 56 0.5t60 3.5q-27 60 -70 109.5t-109 71.5q-29 -40 -54.5 -80.5t-51.5 -80.5q31 -9 72 -15.5t97 -8.5zM907 141q2 38 6.5 73t10.5 68
q-26 -5 -54 -9q14 -32 23 -66.5t14 -65.5zM1143 795q33 45 66 80.5t61.5 62.5t52 45.5t38.5 29.5q-96 -4 -182.5 -42.5t-167 -104t-158 -155.5t-156.5 -198q-5 -7 -10 -13.5t-10 -13.5q70 -26 115 -79t71 -116q17 2 33.5 4.5t31.5 5.5q15 81 38 151.5t51.5 132t60.5 114
t65 96.5z" />
    <glyph glyph-name="B" unicode="B" horiz-adv-x="995" 
d="M1078 944q1 -1 1 -4q0 -9 -9 -9q-6 0 -8 5q-7 14 -20.5 25.5t-30.5 20t-36 13.5t-37 5q-35 0 -67 -3.5t-62.5 -13.5t-60.5 -27t-63 -44q61 -5 105.5 -18.5t76 -32.5t51 -42t30.5 -46.5t15 -46.5t4 -41q0 -20 -3 -36.5t-4 -18.5q-2 -5 -9 -23t-24 -40.5t-46.5 -45.5
t-76.5 -36q42 -36 69 -86.5t27 -113.5q0 -64 -25.5 -121t-68.5 -99.5t-100.5 -67.5t-121.5 -25q-53 0 -103 12t-88.5 39t-62 70t-23.5 104q0 19 1 28t3 13t4 4h4q5 0 7 -3t2 -6q0 -8 -1.5 -16.5t-1.5 -19.5q0 -27 10.5 -65t45.5 -77q18 -18 42 -30.5t51 -20t55.5 -11
t54.5 -3.5q52 0 105 20.5t96 58.5t70 92t27 122q0 60 -25 106.5t-63 81.5q-8 6 -11 10q-35 -6 -71 -6q-11 0 -34.5 1t-47.5 6t-42.5 16.5t-18.5 31.5q0 21 17.5 32t36.5 11q37 0 76 -17.5t88 -55.5q50 10 80.5 32t47 44.5t22 39.5t6.5 19q3 12 4.5 23t1.5 27q0 25 -9 59
t-38.5 66t-85.5 56t-150 30q-38 -36 -74.5 -82t-73 -100t-73.5 -115t-76 -127q-59 -100 -109 -194t-100 -167t-105.5 -117t-125.5 -44q-19 0 -39.5 7t-38 19.5t-28.5 29t-11 35.5q0 9 9 9q7 0 9 -7q7 -34 35.5 -54.5t63.5 -20.5q36 0 68 13.5t61 38.5q37 31 79.5 94
t89.5 143t97.5 170.5t103 177.5t106 163.5t107.5 128.5q-97 0 -169 -26.5t-122 -61.5q-26 -18 -53 -43t-45 -49q-3 -4 -8 -4q-9 0 -9 10q0 1 2 5q1 0 12 14t33 34.5t55 45t77 45t99 34.5t121 14h13.5t12.5 -1q113 104 261 104q21 0 44.5 -3.5t45 -12.5t39.5 -23t28 -35z
M716 493q26 0 47 3q-44 30 -74.5 45.5t-64.5 15.5q-13 0 -25 -7.5t-12 -19.5q0 -36 129 -37z" />
    <glyph glyph-name="C" unicode="C" horiz-adv-x="738" 
d="M163 -14q-32 12 -55 33.5t-38 49t-22 58.5t-7 63q0 74 34 154.5t90 159t129 151t150 129.5q-7 10 -15 23t-14.5 28t-10.5 30.5t-4 30.5q0 8 9 8q5 0 6 -3l2 -6q5 -27 15.5 -53t26.5 -47q47 34 95 62t94 47t88.5 29.5t77.5 10.5q60 0 86 -27t26 -67q0 -24 -8 -46t-20 -38
q-3 -4 -16.5 -20t-39.5 -34t-64.5 -32.5t-90.5 -14.5q-44 0 -81 9.5t-66 24.5t-50.5 33.5t-34.5 37.5q-76 -59 -147.5 -130t-126.5 -147t-88.5 -153.5t-33.5 -149.5q1 -43 14 -80t38 -64.5t61.5 -43t85.5 -15.5q45 2 80.5 11t73.5 32q21 12 45 30t50 43t53.5 58t55.5 76
q3 4 8 4q9 0 9 -9q0 -3 -2 -5q-57 -88 -111.5 -138t-98.5 -75q-41 -23 -81 -34t-82 -11q-21 0 -45.5 3.5t-49.5 13.5zM516 735q29 -22 73 -37t98 -15q50 0 87 14t61 31.5t36 32t13 15.5q10 14 17 34t7 40q0 14 -4 28t-14.5 24.5t-29 17t-46.5 6.5q-33 0 -73.5 -10t-85 -29
t-92 -46t-94.5 -61q10 -12 21.5 -23t25.5 -22z" />
    <glyph glyph-name="D" unicode="D" horiz-adv-x="1008" 
d="M1164 873q0 -1 0.5 -2t0.5 -2q0 -9 -9 -9q-7 0 -8 6q-11 24 -29 40t-41 26t-49.5 14t-53.5 4q-70 0 -131 -22t-112 -60q61 -27 102 -66t66.5 -86t36.5 -99t11 -104q0 -49 -10 -108t-31 -118.5t-53.5 -116t-77.5 -100t-103 -70t-130 -26.5q-35 0 -71.5 10t-66.5 31
t-49.5 54t-19.5 80q0 20 6 41.5t21 39.5t39.5 29.5t60.5 11.5q3 0 23.5 -2t44 -6.5t43 -11.5t19.5 -17q0 -3 -3 -6t-7 -3q-2 0 -3 1q-37 15 -65.5 21t-51.5 6q-30 0 -51 -9.5t-33.5 -24.5t-18.5 -34t-6 -39q0 -39 17.5 -68t44.5 -48t60.5 -28.5t66.5 -9.5q64 0 117.5 23
t96.5 62t75.5 90.5t54 109.5t32.5 118.5t11 117.5q0 52 -11 102.5t-36 95t-66 82t-102 63.5q-61 -47 -113.5 -109.5t-102.5 -136.5q48 0 93 13t87 43q7 5 18.5 15.5t23.5 21.5t21.5 19t12.5 8q9 0 9 -9q0 1 0.5 -0.5t-4.5 -9t-20.5 -21.5t-46.5 -36q-41 -29 -87 -45.5
t-96 -16.5h-11.5t-11.5 1q-22 -32 -44 -66t-43 -68q-41 -65 -76 -129t-67.5 -122.5t-64.5 -108t-66.5 -86t-74 -57t-86.5 -20.5q-19 0 -39.5 7t-38 19.5t-28.5 29t-11 35.5q0 9 9 9q7 0 9 -6q8 -36 36 -56t63 -20q66 0 116 43t97 115t95.5 164.5t111.5 191.5q20 32 41 64
t41 64q-32 5 -59.5 17.5t-48 31t-32.5 42t-12 50.5q0 40 27 80q35 53 87 74t111 21q44 0 87.5 -9.5t84.5 -25.5q59 42 123 66.5t140 24.5q27 0 55.5 -4.5t54 -15t46.5 -29t33 -46.5zM571 737q29 36 60 68t65 59q-36 13 -76.5 21.5t-80.5 8.5q-37 0 -73.5 -11.5t-66 -32.5
t-47.5 -49t-18 -61q0 -46 39.5 -81t105.5 -46q45 68 92 124z" />
    <glyph glyph-name="E" unicode="E" horiz-adv-x="847" 
d="M368 -14q-54 2 -102 19t-84 47.5t-57 74.5t-21 101q0 50 11.5 90t29 70.5t37.5 53t37 36.5q38 32 77.5 52.5t84.5 29.5q-16 44 -16 93q0 46 15 90q-12 12 -25.5 28.5t-25 37t-19 42.5t-7.5 44q0 7 8 9q8 0 10 -8q8 -44 24.5 -75.5t41.5 -59.5q17 43 42 75t52.5 54.5
t54.5 36.5t49 21.5t36 10.5l14 3q24 3 48 3q28 0 55 -7t48 -22t34 -38.5t13 -55.5q0 -43 -22.5 -76.5t-57.5 -57t-77.5 -36t-81.5 -12.5q-58 2 -107 18t-92 51q-12 -41 -12 -81q0 -45 17 -85q15 3 29.5 4t28.5 1q15 0 34.5 -2t37 -8t29.5 -17t12 -30q0 -23 -16 -32.5
t-36 -9.5q-48 0 -81.5 23.5t-47.5 50.5q-60 -12 -109.5 -42t-84.5 -72t-54 -94t-19 -108t22 -98t57.5 -70t79 -41.5t86.5 -13.5q58 0 112.5 15t102 43t85.5 69t64 94q1 6 8 6q10 0 10 -10q0 -1 -0.5 -1.5t-0.5 -1.5q-58 -112 -157 -172t-224 -60zM552 502q1 3 1 9
q0 16 -13 24t-29 11.5t-30.5 4t-16.5 0.5q-17 0 -30.5 -1.5t-24.5 -3.5q17 -27 48 -43.5t60 -16.5q26 0 35 16zM594 678q42 1 82 13t70.5 33.5t49.5 51.5t19 68q0 51 -36 76.5t-99 25.5q-46 0 -89 -15t-79.5 -41.5t-65 -62.5t-45.5 -79q40 -37 91 -53.5t102 -16.5z" />
    <glyph glyph-name="F" unicode="F" 
d="M1357 913q19 -17 19 -46q0 -15 -7.5 -35t-28.5 -38.5t-58.5 -33t-97.5 -17.5q-30 0 -59 0.5t-63.5 4t-76.5 11.5t-98 22q-76 -63 -145 -146t-134 -168q8 -2 16 -2h16q26 0 53 6t57 22q1 1 4 1q9 0 9 -9q0 -5 -5 -7q-32 -17 -61.5 -24t-56.5 -7q-23 0 -44 3
q-12 -14 -27 -35.5t-29 -39.5q-67 -91 -123 -167t-108 -131t-102.5 -86t-105.5 -31q-62 0 -96 30.5t-34 84.5q0 5 0.5 13.5t2 16.5t4 14t7.5 6q9 0 9 -9q0 -11 -2.5 -21.5t-2.5 -19.5q0 -50 31 -73.5t82 -23.5q44 0 90 25.5t100 83.5q25 27 57 67.5t64.5 83.5t62 83t49.5 65
l8 11q-20 -7 -50 -12t-56 -5q-14 0 -36 2t-42 9t-34.5 19t-14.5 33q0 20 9 33t23.5 20.5t32.5 10.5t35 3q31 0 55 -5t45.5 -11.5t42.5 -13t45 -10.5q64 85 132.5 166.5t144.5 149.5q-48 13 -104 30.5t-122 41.5q-39 14 -74 20t-67 6t-65.5 -6.5t-66 -19t-62 -31t-52.5 -41.5
q-3 -3 -7 -3t-6.5 3t-2.5 6q0 4 2 6q49 49 117.5 76.5t142.5 27.5q33 0 70 -6.5t77 -20.5q69 -26 127.5 -44t109.5 -31q78 67 163.5 107.5t180.5 40.5q16 0 34.5 -1t36 -5t33.5 -10.5t27 -18.5zM551 421q7 8 13 16.5t12 16.5q-27 6 -47.5 12.5t-40.5 12.5t-40.5 9.5
t-47.5 3.5q-11 0 -24.5 -2t-26.5 -7t-21.5 -14.5t-8.5 -25.5q0 -14 11.5 -22.5t28 -13.5t34 -7t29.5 -2q15 0 34.5 2.5t38 6t34 7.5t22.5 7zM1313 797q16 8 30 28.5t14 41.5t-14 33t-34 19t-42.5 9t-40.5 2q-88 0 -168 -37t-154 -98q53 -13 92.5 -20t71.5 -10t59.5 -3.5
t55.5 -0.5q50 2 81 12.5t49 23.5z" />
    <glyph glyph-name="G" unicode="G" horiz-adv-x="1008" 
d="M394 -460q-50 1 -84 26.5t-34 78.5q0 49 22.5 88t60.5 69t87.5 53t104 39t109.5 27t104 18q26 57 45 110t36 102q-33 -47 -73.5 -84t-86 -63t-94 -40t-97.5 -14q-51 0 -93 15t-72 44.5t-47 73t-17 100.5q0 66 30 145t85.5 162t134 165.5t176.5 155.5q-9 11 -17.5 25.5
t-15 30.5t-10.5 31.5t-4 29.5q0 10 10 10q8 0 10 -9q0 -31 14.5 -60t28.5 -47q106 74 199 116.5t180 42.5q22 0 43 -5.5t36.5 -18t25 -31.5t9.5 -46q0 -24 -9 -46.5t-23 -42.5t-31.5 -36.5t-35.5 -27.5q-69 -44 -152 -44q-71 0 -137 29.5t-109 81.5q-88 -65 -164 -143
t-132.5 -160t-88.5 -161.5t-32 -147.5q0 -60 19.5 -100.5t49.5 -65.5t67 -35.5t73 -10.5q52 0 98.5 15t88.5 39q23 13 49.5 34t53.5 50t52.5 68t46.5 89l18 -7q-23 -70 -49.5 -149.5t-65.5 -167.5q69 6 144 6q8 0 21 0.5t25.5 0t21.5 -3t9 -8.5q0 -10 -11 -10q-17 1 -33 1
h-32q-43 0 -81.5 -2t-73.5 -5q-17 -35 -38 -77t-47 -84t-57 -81.5t-68 -70t-80 -49t-93 -18.5zM754 -83q-94 -11 -160.5 -29t-109.5 -36t-63 -31.5l-20 -13.5q-2 0 -18.5 -12.5t-36 -34.5t-35 -51.5t-15.5 -63.5q0 -39 24 -62t74 -23q52 0 97.5 23t83.5 58t68.5 78t53 82.5
t37 71t20.5 44.5zM719 806q43 -51 103.5 -77t123.5 -26q37 0 78 12t75.5 34.5t57.5 55.5t23 75q0 35 -23 57.5t-73 22.5q-71 0 -167 -39.5t-198 -114.5z" />
    <glyph glyph-name="H" unicode="H" horiz-adv-x="924" 
d="M15 -194q-15 19 -23.5 44.5t-8.5 55.5q0 45 19.5 97.5t64.5 112.5q65 86 157 151.5t198 116.5q29 91 57 178t58 164.5t62 143t68 114.5q-32 12 -64.5 33.5t-66.5 60.5q-3 3 -3 6t3 6t6 3q4 0 7 -3q35 -41 68 -62t62 -29q33 44 75.5 75t86.5 31q23 0 33.5 -13.5
t10.5 -28.5q0 -23 -16.5 -38t-34.5 -26q-2 -1 -10 -5.5t-20.5 -9t-30 -8t-38.5 -3.5q-24 0 -49 6q-33 -50 -64 -108t-60 -132q-30 -77 -59 -164t-59 -181q48 22 98 41.5t99 38.5t95 37.5t86 38.5q29 52 61 102.5t58 89.5t43 62t16 22q2 2 19.5 24.5t44.5 49t59.5 48.5
t64.5 22q33 0 54.5 -22t21.5 -53t-16.5 -57t-35.5 -46q-2 -2 -26.5 -25t-72 -59.5t-117 -81.5t-161.5 -90q-31 -54 -59.5 -112t-50.5 -115.5t-35 -113.5t-13 -105q0 -53 14.5 -91t39 -64t56.5 -42.5t67 -25.5q6 -3 6 -9q0 -9 -9 -9h-2q-39 11 -74 30t-60.5 48t-40.5 69
t-15 94q0 48 12.5 102t33 110t47 112t54.5 109q-40 -20 -85 -38t-92.5 -36t-96.5 -37.5t-95 -40.5q-15 -45 -26 -84t-23.5 -79t-28 -84.5t-39.5 -101.5q-16 -39 -38.5 -84.5t-49.5 -85t-59 -66t-68 -26.5q-26 0 -49.5 12.5t-40.5 33.5zM82 105q-44 -57 -62.5 -107.5
t-18.5 -91.5q0 -30 9 -54t23.5 -40.5t33.5 -25t39 -8.5q34 0 67.5 32.5t64 82.5t56 109.5t43.5 113.5q21 63 39.5 123.5t38.5 120.5q-101 -50 -187 -112.5t-146 -142.5zM1081 891q-27 -26 -47.5 -50t-39.5 -50.5t-39 -58.5t-47 -74q-14 -22 -28.5 -45t-28.5 -49
q83 43 146.5 84.5t107 75t67 55.5t26.5 25q18 19 33 42t15 49q0 23 -18 40t-40 17q-16 0 -31 -6t-28.5 -15t-25.5 -20t-22 -20zM735 991q20 0 36 3t28 8q14 5 25 12q12 7 27.5 19t15.5 29t-10 21t-20 4q-19 0 -39 -9.5t-38 -23.5t-34 -30t-28 -30q19 -3 37 -3z" />
    <glyph glyph-name="I" unicode="I" 
d="M90 -119q-27 0 -51.5 6.5t-44 21t-31 38t-11.5 56.5v15t1.5 17.5t4.5 14.5t9 6q10 0 10 -10q0 -11 -2.5 -22t-2.5 -21q0 -30 10.5 -49.5t27.5 -31t38 -16.5t41 -5q49 0 95 26.5t94.5 75.5t102 119t117.5 157q55 72 107 147t103.5 144.5t103.5 129.5t108 104
q-31 11 -73 22t-87 11q-19 0 -37.5 -2.5t-36.5 -8.5q-1 -1 -3 -1q-10 0 -10 11q0 6 11 10.5t26 7t30 3.5t23 1q45 0 88.5 -12t86.5 -26q66 50 130.5 77t136.5 27q15 0 33.5 -2.5t34.5 -10.5t27 -22.5t11 -37.5q0 -17 -6 -34.5t-21 -32t-39 -24t-60 -9.5q-25 0 -51 3t-55 8.5
t-62.5 14t-74.5 20.5q-56 -45 -109 -106t-105.5 -130.5t-105.5 -145t-108 -148.5q-66 -89 -120.5 -160.5t-105 -121.5t-98.5 -77t-100 -27zM962 812q75 -23 127.5 -32t100.5 -9q42 0 71.5 22t29.5 56q0 18 -8 28.5t-20.5 16.5t-27 8t-27.5 2q-69 0 -130.5 -25t-115.5 -67z
" />
    <glyph glyph-name="J" unicode="J" horiz-adv-x="609" 
d="M-450 -402q-42 1 -70.5 20.5t-28.5 67.5q0 43 22 81.5t55 70t72 55.5t72 38q56 24 113 38t113.5 23t112.5 15t110 14q75 84 136.5 160.5t115 147.5t102 135.5t97.5 124.5t100.5 115t112.5 106q10 8 19.5 16t20.5 16q-75 20 -132.5 29.5t-104.5 9.5q-62 0 -95 -8.5
t-38 -8.5q-4 0 -7.5 2.5t-3.5 7.5q0 7 7 9q1 1 38 10t101 9q51 0 111.5 -11.5t143.5 -33.5q169 121 341 121h24q4 0 22.5 -2.5t39 -10.5t37 -24.5t16.5 -44.5q0 -12 -3 -27q-3 -7 -9.5 -21.5t-26 -29.5t-56.5 -26.5t-100 -11.5q-22 0 -46 2.5t-56.5 8.5t-75.5 16.5
t-103 27.5q-65 -48 -121 -103t-109 -117t-105 -130.5t-108 -142.5t-119 -154t-137 -164q37 4 71.5 11t66 19.5t59 33t49.5 52.5q11 17 18.5 32t12.5 27q5 14 8 26q4 8 10 8q5 0 7.5 -3.5t2.5 -6.5v-2q-1 -2 -9.5 -29t-32.5 -62q-25 -39 -56.5 -62t-67.5 -35.5t-76 -18.5
t-81 -12q-39 -42 -82.5 -88.5t-91 -91.5t-97.5 -85.5t-101.5 -71.5t-104.5 -49t-105 -18zM101 -2q-56 -7 -110 -13.5t-106.5 -15.5t-104 -22.5t-100.5 -34.5q-31 -14 -67.5 -36t-68 -51.5t-52.5 -64t-21 -71.5q0 -22 7 -36t18 -22.5t26 -11.5t30 -3q51 0 108 21t124 66.5
t145.5 118t171.5 176.5zM870 850q53 -15 92 -24.5t69 -15.5t52.5 -8.5t42.5 -2.5q99 0 139.5 25.5t40.5 69.5q0 24 -14.5 37t-32.5 19t-33.5 7t-16.5 1h-24q-86 0 -164.5 -28.5t-150.5 -79.5z" />
    <glyph glyph-name="K" unicode="K" horiz-adv-x="898" 
d="M1212 847q21 -8 33.5 -27.5t12.5 -43.5q0 -27 -6 -35.5t-10 -8.5q-9 0 -9 8t3.5 16.5t3.5 19.5q0 23 -16 41t-45 18q-21 0 -44.5 -12t-47.5 -30.5t-48.5 -41t-48.5 -42.5q-48 -42 -102.5 -82.5t-113 -75t-119.5 -61t-123 -39.5q28 -38 46 -86t18 -105t-10.5 -106
t-10.5 -87q0 -16 4.5 -32.5t14.5 -29.5t24.5 -21t34.5 -8q32 0 64 18.5t53 40.5q4 2 6 2q3 0 6 -2t3 -7q0 -4 -2 -6q-11 -11 -26.5 -22.5t-32.5 -20.5t-35.5 -14.5t-36.5 -5.5q-42 0 -68.5 30.5t-26.5 77.5q0 43 10.5 90.5t10.5 102.5q0 58 -18.5 103.5t-47.5 83.5
q-20 -4 -39 -5.5t-39 -1.5q-62 0 -119 19l-20 -28t-21 -28q-69 -92 -125.5 -168.5t-108 -131t-101 -84.5t-103.5 -30q-66 0 -98 31.5t-32 82.5v13.5t1.5 16.5t4.5 14t8 6q9 0 9 -8q0 -11 -2.5 -22t-2.5 -20q0 -43 27 -69.5t85 -26.5q55 0 105.5 34t104 95t114.5 145.5
t138 184.5q-8 5 -17 10.5t-17.5 13t-14 18t-5.5 24.5q0 27 21 43t48 16q17 0 34 -4t32 -11q60 81 121 154t124 129q-47 9 -102.5 22t-110 24.5t-102 19.5t-78.5 8q-57 0 -83 -16.5t-26 -45.5v-4q0 -8 -10 -8q-5 0 -6.5 4.5t-1.5 9.5q0 10 5.5 23.5t19.5 25.5t38.5 20.5
t63.5 8.5q34 0 84 -8.5t106.5 -20.5t114.5 -25.5t106 -23.5q52 45 110 71.5t119 28.5q12 0 26.5 -2.5t26.5 -10t20 -20.5t8 -34q0 -24 -10.5 -39.5t-27.5 -24.5t-37.5 -13t-39.5 -4q-22 0 -71.5 7.5t-118.5 21.5q-65 -53 -126.5 -127t-124.5 -159q34 -17 66 -43.5t57 -57.5
q60 11 121 36.5t120 60t114.5 75.5t104.5 83q23 20 47.5 43t49.5 42.5t50.5 32.5t52.5 13q16 0 33 -6zM717 905q-13 -8 -26 -17t-26 -19q65 -13 110 -19.5t65 -6.5q14 0 30.5 2.5t31 9.5t24 19.5t9.5 32.5q0 15 -5.5 24t-14.5 14.5t-20.5 7.5t-23.5 2q-39 -1 -77.5 -14
t-76.5 -36zM262 532q0 -17 16 -30.5t31 -20.5q14 20 29 40l30 40q-13 5 -26.5 9t-28.5 4q-17 0 -34 -10.5t-17 -31.5zM434 458q16 0 32 1.5t33 3.5q-21 23 -37.5 38.5t-30 25.5t-25 16t-21.5 11q-15 -20 -29.5 -40t-29.5 -40q51 -16 108 -16z" />
    <glyph glyph-name="L" unicode="L" 
d="M540 -188q-43 24 -75.5 48.5t-58.5 49t-47 48.5t-40 45q-36 -27 -79 -42t-81 -15q-24 0 -50 5.5t-47.5 17t-35.5 29.5t-14 42t9.5 40.5t24.5 27.5t33.5 16t36.5 5q65 -2 112.5 -30t93.5 -73q75 55 153 141t166 205q49 66 94.5 131.5t90 126.5t90 113.5t93.5 93.5
q-33 11 -73 22.5t-74 11.5q-29 0 -53 -5t-42 -11t-28.5 -11t-11.5 -5q-4 -2 -5 -2q-4 0 -6.5 3t-2.5 6q0 6 5 8l11 5.5t29.5 12t45 12t58.5 5.5q19 0 40 -3.5t43 -9t42.5 -12.5t38.5 -14q47 37 102 60t117 23q32 0 57.5 -18t25.5 -52q0 -14 -6 -28.5t-19.5 -26.5
t-34.5 -19.5t-51 -7.5q-27 0 -49.5 4t-44.5 10.5t-45 15.5t-49 19q-49 -39 -95 -91.5t-91 -114t-91.5 -128.5t-96.5 -135q-88 -118 -167 -206t-154 -142q21 -21 41.5 -44t45.5 -46.5t55.5 -47.5t72.5 -47q50 -28 95 -40.5t83 -12.5q22 0 44.5 5t40.5 16.5t29.5 29.5t11.5 45
q0 20 -7.5 36.5t-17 28.5t-17 19t-7.5 8q0 10 9 10q2 1 6 -2q4 -2 10 -8t16 -20q26 -37 26 -73q0 -33 -14.5 -54.5t-36.5 -34.5t-47 -18.5t-46 -5.5q-41 0 -88.5 13t-98.5 42zM30 39q3 -22 16.5 -36.5t32.5 -23t40.5 -12t39.5 -3.5q35 0 72.5 13.5t75.5 38.5
q-42 42 -88 68.5t-103 26.5q-35 0 -60.5 -18.5t-25.5 -53.5zM1099 823q28 -11 55 -17.5t59 -6.5q19 0 36.5 3.5t31 11.5t21.5 19.5t8 28.5q0 16 -6.5 26t-17 16t-22.5 8.5t-22 2.5q-56 -2 -103 -21t-93 -51q15 -6 28 -10.5t25 -9.5z" />
    <glyph glyph-name="M" unicode="M" horiz-adv-x="1191" 
d="M1018 -150q-18 17 -29 37t-16.5 41t-7 42t-1.5 41q3 77 22 158.5t46.5 161t61.5 154.5t67.5 139.5t64 115t51.5 81.5q7 11 13.5 26t6.5 27q0 11 -6.5 18t-23.5 7q-37 0 -87.5 -22.5t-109.5 -62.5t-123.5 -96t-129.5 -123t-128.5 -142.5t-118.5 -155.5q-9 -72 -9 -149
q0 -14 0.5 -26.5t0.5 -26.5q0 -17 -2.5 -42.5t-11.5 -49t-27 -40t-48 -16.5q-31 0 -47 24t-16 53q0 19 6 39.5t15 40t19 37t19 31.5q19 34 40 66.5t43 65.5q9 73 26 141t38 132t45.5 124t50.5 119q9 21 12.5 35.5t3.5 23.5q-1 15 -7 20.5t-19 5.5q-57 0 -119 -41.5
t-128 -109.5t-134 -154.5t-136 -176t-134.5 -174.5t-129.5 -150q-84 -86 -161 -128t-160 -42q-42 2 -71.5 16.5t-48 36t-26.5 48.5t-8 54q0 12 3 31t8 37t12 31t15 13q9 0 9 -10q0 -3 -1 -4q-13 -19 -20.5 -45t-7.5 -53q0 -25 7.5 -49.5t25 -44t45.5 -31.5t70 -12
q58 0 116 27t118.5 79t125 128t136.5 173q49 66 100 134.5t103 131.5t103 118.5t101 96.5t97 64.5t90 23.5q23 0 33.5 -12.5t10.5 -31.5q0 -12 -4 -28t-14 -39q-24 -55 -46.5 -111t-43 -115t-37 -121t-26.5 -129q57 79 120 152.5t127.5 138t128 118t121 92t108 59.5t87.5 21
q22 -2 35.5 -11t13.5 -30q0 -20 -18.5 -54t-47.5 -83t-65.5 -114t-72.5 -146q-24 -55 -46.5 -114t-40.5 -119t-29.5 -119.5t-13.5 -116.5v-1v-13q0 -34 9.5 -69.5t38.5 -63.5q25 -23 56.5 -33.5t62.5 -10.5q37 0 65.5 13.5t47.5 30t29 30.5t11 16q2 5 7 5t8 -3t3 -6t-2 -5
q-1 -1 -12 -16.5t-32 -34t-52 -33.5t-73 -15q-79 0 -131 49zM473 -35q23 0 37 13.5t21.5 33.5t10 42.5t2.5 40.5q0 14 -0.5 26t-0.5 23q0 32 1.5 59.5t3.5 61.5q-38 -56 -61.5 -97.5t-36.5 -71t-18 -47t-5 -25.5q0 -21 11 -40t35 -19z" />
    <glyph glyph-name="N" unicode="N" horiz-adv-x="921" 
d="M-324 -16q-19 23 -26.5 50t-7.5 55q0 12 2.5 31t7.5 37.5t12 32t15 13.5q9 0 9 -10q0 -3 -1 -4q-14 -20 -20.5 -46t-6.5 -54q0 -36 11.5 -61.5t30.5 -42t43.5 -24t50.5 -7.5q115 0 238 104t269 302q50 67 101.5 135t102.5 130.5t100.5 117t95.5 94.5t88 63t77 23
q19 0 30.5 -8.5t11.5 -25.5q0 -13 -17.5 -48.5t-44.5 -86.5t-60 -114.5t-64 -132.5q-26 -56 -49.5 -115.5t-41.5 -118t-28.5 -114.5t-10.5 -105q0 -10 1 -21t4.5 -20.5t9.5 -15.5t15 -6q25 0 53.5 42t66 111t87.5 159t118 186q74 105 141 175.5t118 114t83 63t36 21.5
q2 2 12.5 8t26.5 15q-26 33 -36 56.5t-11 27.5v2q0 3 2.5 6t7.5 3q2 0 9 -11.5t15 -26.5t16 -29t13 -19q19 9 41 19t45.5 18.5t48.5 14t51 5.5q51 0 78.5 -21.5t27.5 -56.5q0 -23 -10.5 -38.5t-26 -25t-34 -13.5t-34.5 -4q-56 0 -105.5 20.5t-85.5 58.5q-27 -15 -66.5 -38.5
t-91 -67t-116 -112.5t-140.5 -176q-73 -102 -124 -194t-89 -161t-67.5 -109.5t-59.5 -40.5q-17 0 -26.5 10t-14.5 24t-6 30t-1 28q2 68 21 144t47.5 153t63 152t67.5 140.5t61.5 118t45.5 85.5q10 17 10 29q0 18 -24 18q-47 0 -111 -48.5t-136.5 -127.5t-150 -178
t-152.5 -201q-74 -99 -141 -176.5t-131 -130.5t-126 -80t-124 -27q-36 0 -67 11t-53 37zM1569 811q15 0 30.5 3t28 10.5t20 19.5t7.5 30q0 29 -25.5 44.5t-61.5 15.5q-23 0 -46 -5t-45.5 -13t-43.5 -17t-39 -18q40 -38 84 -54t91 -16z" />
    <glyph glyph-name="O" unicode="O" horiz-adv-x="951" 
d="M264 -35q-65 4 -112.5 25t-79 54.5t-47 77.5t-15.5 96q0 63 20 125t51.5 119t71.5 107.5t79 90.5q117 118 241 181.5t238 64.5h23.5t20.5 -7q41 17 81 17q75 0 125 -42t70 -113q1 -3 1.5 -5.5t0.5 -5.5q64 -8 104 -39.5t40 -89.5q0 -23 -8.5 -48.5t-29 -48.5t-55.5 -39.5
t-88 -21.5q-29 -64 -72.5 -125.5t-98 -117t-118 -102.5t-133 -81t-142 -53.5t-144.5 -19.5h-12t-12 1zM265 -17h16q77 0 148 19t134 49.5t118 70t100 81.5q63 58 113 124t82 135q-48 0 -93 9.5t-84.5 26.5t-71.5 41t-53 54q-21 -22 -40 -48t-36 -58q-2 -5 -7 -5
q-10 0 -10 10q0 3 1 4q18 34 38.5 62t42.5 51q-17 28 -25 58t-8 59q2 56 28 96t72 66h-29q-59 0 -120.5 -21t-121.5 -54.5t-114.5 -77t-99.5 -88.5q-39 -39 -77.5 -88.5t-69.5 -105t-50 -115.5t-19 -121q0 -102 60 -165t176 -69zM722 565q19 -18 46.5 -33.5t60 -27t68 -18
t70.5 -6.5h8.5t8.5 1q19 44 30.5 88t11.5 89q0 11 -1 31t-6 44h-11q-86 0 -168 -29t-154 -98q16 -22 36 -41zM1044 657q-2 -51 -13 -93t-27 -82q32 2 60 13.5t49 30.5t33.5 43t12.5 52q-1 31 -12.5 51t-29 32.5t-39 18.5t-41.5 9q5 -24 6 -43.5t1 -30.5v-1zM648 726
q0 -26 7 -52.5t22 -51.5q40 38 82.5 63t85.5 39.5t86 20.5t84 6q-20 72 -66.5 109.5t-112.5 37.5q-37 -1 -71 -14t-60 -35.5t-41.5 -53.5t-15.5 -69z" />
    <glyph glyph-name="P" unicode="P" horiz-adv-x="1203" 
d="M1290 818q1 -1 1 -4q0 -9 -9 -9q-7 0 -8 6q-11 23 -28.5 39t-39.5 26t-47 14.5t-49 4.5q-49 0 -92 -9q5 -2 9 -3.5t9 -3.5q50 -23 85.5 -51t59.5 -58.5t37.5 -60t20.5 -55t9 -45t2 -28.5q0 -67 -29.5 -129t-79 -109.5t-113 -76t-131.5 -28.5q-51 0 -101 17.5t-98 52.5
q-18 13 -31.5 26t-22.5 23q-11 11 -19 22q-2 2 -2 5q0 10 8 10q4 0 8 -4q21 -29 50.5 -53.5t63.5 -42t71.5 -27.5t74.5 -10q58 0 117 25t107 69t78.5 103t30.5 127q0 9 -2 29.5t-9.5 47t-23 57t-43 60t-68.5 56.5t-99 47q-72 -21 -134 -67.5t-118 -110t-107.5 -140
t-101.5 -156.5q-40 -64 -75 -128t-67.5 -122t-64.5 -107.5t-66 -86t-72.5 -57.5t-84.5 -21q-42 0 -76 23t-46 66v1q0 10 10 10q6 0 8 -7q8 -37 37.5 -56t65.5 -19q33 0 62 12.5t55.5 34.5t50.5 52.5t48 67.5q38 59 80 135.5t89.5 159t100.5 165t112.5 154t125.5 126
t139 80.5q-18 7 -42.5 12t-49.5 8.5t-48.5 5t-40.5 1.5q-65 0 -128 -15.5t-120 -51.5q9 -13 15.5 -30t10 -34.5t5 -34.5t1.5 -30q0 -60 -21.5 -89.5t-59.5 -29.5q-37 0 -55 23t-18 58q0 15 6.5 36.5t18.5 45t30 47t42 41.5q-18 21 -40 35q-7 4 -19.5 9.5t-25 11.5
t-21.5 10.5t-9 7.5q0 10 10 10h2l12 -4t30 -12.5t38 -22.5t37 -34q53 34 116.5 52.5t128.5 18.5q111 0 225 -35q26 8 54.5 12t58.5 4q29 0 57.5 -4.5t53.5 -15t45 -29t33 -46.5zM537 779q-4 31 -22 57q-23 -18 -39.5 -40t-28 -43.5t-17 -41t-5.5 -31.5q0 -25 11.5 -44
t42.5 -19q28 0 46 24.5t18 76.5q0 26 -6 61z" />
    <glyph glyph-name="Q" unicode="Q" horiz-adv-x="1004" 
d="M752 -298q-37 17 -77 46t-78 78q-32 42 -64.5 74.5t-61.5 57.5q-36 -15 -67 -25t-60.5 -16.5t-58 -9.5t-58.5 -3q-21 0 -55 3t-66.5 13.5t-55.5 31.5t-23 56q0 29 13 47.5t32.5 29.5t42 15t41.5 4q47 0 92 -11t84 -27q1 -1 12.5 -5.5t30.5 -15t44 -26.5t54 -40
q97 42 184.5 111t154 151.5t107.5 172.5t45 175q0 67 -17 122.5t-67 94.5q-38 29 -84.5 43.5t-93.5 13.5q-59 -1 -118 -18t-113 -46t-101.5 -67.5t-83.5 -82.5q-42 -52 -68 -115t-26 -124q0 -45 18 -90.5t52.5 -81.5t85 -58.5t115.5 -22.5q79 0 138 24.5t98 62.5t58 83.5
t19 87.5q0 47 -14.5 81t-38 55.5t-53 32t-58.5 10.5t-57.5 -9.5t-52.5 -25.5q-4 -2 -5 -2q-9 0 -9 9q0 5 4 8q27 18 59 28t65 10q30 0 62 -11t57.5 -35t42 -61.5t16.5 -89.5q0 -46 -21 -94.5t-62 -89t-103.5 -66.5t-144.5 -26q-65 0 -118 22t-91 59.5t-59 86t-21 101.5
q0 58 21.5 116t59 110.5t88.5 97.5t109.5 78t122.5 52t127 19q84 0 138 -28t85.5 -71t44 -94.5t12.5 -99.5q-5 -88 -46 -179.5t-108 -175t-154.5 -153.5t-184.5 -114q29 -24 60 -56t63 -73q36 -47 73.5 -75t72.5 -43t65 -20t51 -5q24 0 49 5.5t45 18t33 32t13 47.5
q0 24 -8.5 40t-21.5 25t-29 12.5t-32 3.5q-17 0 -31.5 -4.5t-27.5 -3.5q-8 0 -8 9v4t5.5 6t19.5 5t42 2q21 0 40.5 -5t35 -17t24.5 -31t9 -47q0 -33 -15.5 -56t-38.5 -37t-51 -20.5t-53 -6.5q-23 0 -54.5 5t-68.5 21h1zM51 32q-5 -13 -5 -26q0 -22 13 -37t33 -24.5t43.5 -14
t44 -6.5t35 -2h16.5q59 0 114.5 13.5t109.5 35.5q-54 42 -89.5 59t-39.5 19q-35 16 -80.5 26.5t-89.5 10.5q-35 0 -63 -12.5t-42 -41.5z" />
    <glyph glyph-name="R" unicode="R" horiz-adv-x="1154" 
d="M1220 783q0 -1 0.5 -2t0.5 -2q0 -9 -9 -9q-6 0 -8 5q-11 26 -29.5 42.5t-41.5 25.5t-49 12.5t-53 3.5q-22 0 -42 -2t-40 -6q1 0 1.5 -0.5t1.5 -0.5q71 -28 113 -68t64 -81.5t28.5 -77t6.5 -54.5q0 -23 -4.5 -57t-23 -72.5t-56 -78.5t-103.5 -75q-51 -27 -103 -38
t-102 -11q-11 0 -21.5 0.5t-21.5 1.5q7 -34 7 -73q0 -24 -3.5 -47.5t-7.5 -46.5t-7.5 -47t-3.5 -49q0 -17 4.5 -34t14 -30.5t24.5 -21.5t35 -8q33 0 63.5 18t55.5 41q2 2 5 2q10 0 10 -10q0 -3 -3 -6q-24 -24 -59 -43.5t-72 -19.5q-41 0 -68.5 30t-27.5 81q0 45 10.5 93.5
t10.5 96.5q0 19 -1.5 37.5t-5.5 38.5q-55 6 -97.5 17.5t-75 25t-57 28t-43.5 26.5q-34 -56 -64.5 -114.5t-61 -113.5t-62 -103t-66.5 -84t-74.5 -56.5t-86.5 -20.5q-40 0 -74 23t-44 66v2q0 9 9 9q7 0 9 -7q8 -35 35.5 -55t64.5 -20q62 0 110.5 39.5t93 106t91.5 154.5
t106 185q-16 12 -27 30.5t-11 41.5q0 38 24 53.5t55 15.5q22 0 45 -6q39 60 81.5 117.5t89 106t98 86t110.5 58.5q-96 26 -195 26q-8 0 -32.5 -1.5t-58 -8t-71.5 -20t-72 -37.5q18 -28 25 -60.5t7 -68.5q0 -18 -4 -39t-14 -39t-25.5 -29.5t-39.5 -11.5q-32 0 -52 22.5
t-20 57.5q0 15 6.5 37t19 46t30.5 47.5t41 41.5q-9 11 -19 19t-21 15q-6 4 -18.5 10l-25 12t-21.5 11t-9 8q0 8 9 8h2l12 -3.5t29.5 -12t38 -22.5t38.5 -35v1q38 25 77.5 39t73.5 21t59.5 8.5t34.5 1.5q54 0 109 -8t117 -26q24 7 49.5 11t53.5 4q29 0 58.5 -3.5t56 -13.5
t48 -28.5t35.5 -48.5zM473 682q0 29 -5.5 59.5t-23.5 58.5q-21 -16 -37.5 -38t-28.5 -44t-18 -41.5t-6 -31.5q0 -29 14.5 -46.5t39.5 -17.5q18 0 30 9t19.5 23.5t11 32.5t4.5 36zM402 422q0 -17 8 -32t22 -26q24 42 67 104q-18 5 -36 5q-23 0 -42 -11t-19 -40zM447 353
q57 -37 119 -60.5t138 -33.5q-11 31 -27 57t-34 47q-23 27 -41 44t-33 28t-28 16.5t-25 10.5q-17 -27 -34 -53.5t-35 -55.5zM945 833q-7 3 -13.5 5.5t-13.5 4.5q-60 -17 -113.5 -52.5t-102 -84.5t-92 -107.5t-84.5 -120.5q23 -10 47 -26q12 -8 33 -25.5t43.5 -42.5t43 -57.5
t31.5 -69.5q12 -1 24 -1.5t24 -0.5q48 0 97.5 10.5t98.5 36.5q55 30 90 62t54.5 65.5t26.5 67t7 65.5q0 35 -8.5 72.5t-31 73.5t-61.5 68t-100 57z" />
    <glyph glyph-name="S" unicode="S" horiz-adv-x="942" 
d="M-17 -6q-29 -17 -66.5 -25.5t-71.5 -8.5q-7 0 -19.5 0.5t-24.5 2t-21 4.5t-9 9q0 3 2.5 6t6.5 3q17 0 33.5 -3.5t31.5 -3.5q36 0 67 8t57 21q-36 38 -53 82.5t-17 90.5q0 37 10.5 75t30.5 69.5t49.5 51.5t67.5 20q54 -3 82 -36.5t28 -82.5q-2 -81 -44 -152.5t-124 -120.5
q48 -36 103.5 -57.5t123.5 -21.5q45 0 84.5 7t72.5 18t60 25.5t46 28.5q54 40 88 88t53 100.5t26.5 110t10.5 117t4.5 120.5t8.5 121q-45 0 -84.5 11.5t-71.5 35.5q-4 3 -4 8q0 4 3 6t6 2q4 0 6 -2q29 -22 66.5 -32.5t80.5 -10.5q6 52 23 113t47.5 114t76 88.5t108.5 35.5
q47 -2 77.5 -27.5t30.5 -78.5q0 -38 -17.5 -73t-44.5 -64.5t-59 -52t-61 -35.5q-38 -17 -80.5 -26.5t-84.5 -11.5q-7 -60 -8.5 -121t-4 -121.5t-10.5 -119.5t-28 -113.5t-55 -104.5t-92 -93q-41 -30 -111 -55.5t-163 -25.5q-64 0 -123 19.5t-105 54.5zM-52 305
q-30 -62 -30 -126q0 -45 16 -86.5t51 -76.5q36 22 65.5 51t51.5 62.5t34 71.5t12 77q0 42 -24.5 71t-66.5 29q-40 -4 -66 -23.5t-43 -49.5zM738 836q-15 -38 -24 -77t-14 -80q52 2 109.5 20.5t105.5 51t79 77t31 98.5q0 24 -8 40.5t-20.5 26.5t-28.5 14.5t-31 4.5
q-39 -2 -70 -17.5t-55.5 -40.5t-42.5 -55.5t-31 -62.5z" />
    <glyph glyph-name="T" unicode="T" horiz-adv-x="805" 
d="M-77 -62q-27 30 -27 77q0 5 0.5 13.5t2 16.5t4 14t7.5 6q9 0 9 -9q0 -11 -2.5 -21.5t-2.5 -19.5q0 -29 10.5 -47.5t26.5 -29t36 -15t39 -4.5q30 1 56.5 10.5t49.5 24.5t44 34t40 39q34 36 73.5 87.5t84.5 112t94 127t101.5 132.5t108 127.5t112.5 112.5q-49 13 -105 30.5
t-121 41.5q-39 14 -74.5 20t-67.5 6q-57 0 -101.5 -14.5t-76 -32.5t-48.5 -33.5t-20 -16.5q-3 -3 -7 -3q-8 0 -8 8q0 5 2 7q29 28 68 51q33 20 81 36t110 16q34 0 70.5 -6t77.5 -21q69 -25 127.5 -43t109.5 -31q78 64 163 106t181 42q23 0 48.5 -3t47 -12t35.5 -25.5
t14 -44.5q0 -38 -23 -62t-56.5 -37t-71.5 -17.5t-67 -4.5q-40 0 -105 7t-162 31q-76 -69 -149 -155.5t-140.5 -175t-128 -172t-111.5 -144.5q-25 -30 -53 -61t-60 -56t-67.5 -40.5t-75.5 -15.5q-26 0 -55.5 8t-47.5 29zM1078 701q66 0 105 11t60 27t27.5 33.5t6.5 30.5
q0 24 -13 37.5t-32.5 20t-41.5 8.5t-39 2q-95 -2 -174.5 -41t-148.5 -95q91 -22 152 -28t98 -6z" />
    <glyph glyph-name="U" unicode="U" horiz-adv-x="902" 
d="M1221 815q0 -7 -6 -8q-11 -2 -52.5 -19t-101 -54.5t-130.5 -100t-141 -155.5q-15 -20 -41.5 -61t-55.5 -94.5t-58 -113.5t-48 -118q-8 -25 -19 -65.5t-11 -79.5q0 -20 4.5 -38.5t15 -32.5t28 -22.5t42.5 -8.5q32 0 59 19t46.5 48.5t30.5 66t11 71.5q0 8 8 10q8 0 10 -8
q0 -35 -11.5 -74.5t-32.5 -72.5t-51.5 -55t-68.5 -22q-30 0 -51 9.5t-34 25.5t-18.5 37.5t-5.5 45.5q0 35 8 70.5t16 62.5q-27 -37 -58.5 -68.5t-69 -54.5t-82.5 -36t-101 -13q-35 0 -73 11.5t-69.5 37t-52 66t-20.5 97.5q0 42 13 91.5t43 109.5q39 78 87.5 145.5t100 124.5
t103 104t96.5 85q-51 6 -94 18.5t-80.5 27t-72.5 29.5t-70.5 27t-74 20t-83.5 8q-22 0 -49 -3.5t-51 -14.5t-40 -31.5t-16 -54.5q0 -22 9.5 -38t25.5 -27t36 -17.5t40 -7.5q9 -1 9 -10q0 -8 -9 -8h-1q-2 -1 -22 2.5t-44 15.5t-43.5 33.5t-19.5 57.5q0 35 16 58t41 37
t56.5 20t61.5 6q48 0 89 -8t78 -21t72.5 -28.5t74.5 -30.5t82.5 -27t97.5 -17q18 15 37.5 33t41 33t44.5 25.5t49 10.5t43.5 -12t17.5 -41q0 -27 -18.5 -41.5t-44.5 -21t-53.5 -7.5t-45.5 -1q-32 0 -65 3q-33 -27 -71 -60.5t-78 -72.5q-32 -31 -66.5 -70.5t-68 -84
t-63.5 -92t-53 -95.5t-36.5 -94.5t-13.5 -87.5q0 -49 16.5 -85.5t44.5 -60.5t63 -36t73 -12q62 0 115 19.5t96.5 53t78 80t59.5 100.5q57 136 124 237t134.5 172.5t130 118t111.5 73t78.5 36.5t30.5 10t1.5 0.5t1.5 0.5q6 0 8 -7v-3zM664 878q-20 -1 -38 -10t-35.5 -21.5
t-33.5 -27t-32 -27.5q22 -3 47 -3q13 0 36.5 0.5t47 5.5t41 16t17.5 32q0 35 -43 35h-7z" />
    <glyph glyph-name="V" unicode="V" horiz-adv-x="1149" 
d="M-87 -144q-30 0 -54 13.5t-26 43.5q0 22 14 38.5t35 26.5t46 15t46 5q20 0 42 -2t46 -6q14 39 38.5 92.5t55.5 113t67.5 120.5t75.5 114q51 70 92 120.5t75.5 88t63.5 64.5t57 50q-77 10 -134.5 31.5t-110 43.5t-106 38.5t-122.5 16.5q-29 0 -57 -5t-50 -17t-35 -31.5
t-13 -47.5q0 -27 14 -44.5t32.5 -28.5t36.5 -15.5t27 -4.5q9 -2 9 -10t-10 -8q0 -1 -9.5 0t-23.5 5t-30.5 11t-31 19.5t-24 31t-9.5 43.5q0 34 15.5 57.5t40 37t55.5 19.5t63 6q47 0 87 -8.5t77 -21t73.5 -28.5t75.5 -30.5t83 -26.5t97 -17q24 20 48 38.5t46.5 32.5
t42.5 22.5t36 8.5q30 0 45 -13.5t15 -37.5q0 -31 -21.5 -46t-50 -21t-56 -5.5t-39.5 0.5q-31 0 -61 3q-29 -24 -58.5 -51t-64.5 -64.5t-78 -89.5t-97 -127q-38 -52 -73.5 -111.5t-66.5 -118t-55.5 -111t-38.5 -91.5q39 -8 81.5 -14.5t84 -11t79 -7t67.5 -2.5q29 0 72 5
t95.5 20.5t110.5 44.5t116.5 78t115 120.5t105.5 171.5t87 232t60 301q0 8 10 8q8 -2 8 -10q-22 -170 -60.5 -303t-88 -234.5t-107 -174.5t-117.5 -123t-119.5 -80.5t-113 -46.5t-98.5 -21.5t-76 -5.5q-92 2 -168 11.5t-152 24.5q-9 -20 -20.5 -39.5t-29.5 -35.5t-44 -27
t-65 -12zM-129 -50q-11 -9 -15.5 -19t-4.5 -18q2 -22 22 -31t40 -9q51 3 83 27.5t58 72.5q-22 3 -42 5t-38 2q-7 0 -19 -1t-26 -4t-29.5 -9t-28.5 -16zM673 766q33 0 55.5 2t37 4.5t22 5.5t11.5 5q9 5 16 14t7 23q0 18 -11.5 25.5t-29.5 7.5q-16 0 -38 -8t-50 -31
q-16 -13 -30.5 -24.5t-29.5 -22.5q10 -1 20 -1h20z" />
    <glyph glyph-name="W" unicode="W" horiz-adv-x="1560" 
d="M593 -134q0 23 13.5 36.5t32.5 20t40 8.5t35 2q19 0 37.5 -1.5t33.5 -3.5q17 24 36 56t36 74.5t32 97t25 124.5q-46 -72 -97.5 -123.5t-104.5 -86.5t-105 -56t-98 -32t-83 -14.5t-60 -3.5q-39 1 -69.5 2.5t-55 3.5t-45 3.5t-38.5 3.5q-23 -57 -67.5 -91.5t-98.5 -34.5
q-32 0 -55 16t-23 42q0 27 16.5 44t41.5 27.5t53 14.5t52 4q36 0 69 -3q15 40 39.5 92.5t55 110.5t66 116.5t73.5 110.5q51 70 92 121.5t75.5 89t63.5 64.5t57 49q-78 10 -136.5 31.5t-111 43.5t-105.5 38.5t-120 16.5q-25 0 -52.5 -4.5t-50 -16t-37.5 -31.5t-15 -52
q0 -25 11.5 -42.5t28.5 -28t36 -15t34 -4.5q8 0 8 -8q0 -10 -9 -10q-2 0 -22 2.5t-43.5 13.5t-43 32.5t-19.5 59.5q0 37 17 61t43 37.5t56.5 18.5t57.5 5q71 0 127.5 -17.5t111.5 -40.5t115 -44.5t138 -29.5q20 16 40.5 34t42.5 33.5t45 25.5t49 10q23 0 40 -13.5t17 -39.5
q0 -28 -19 -42.5t-46 -21t-55.5 -7t-46.5 -0.5q-33 0 -61 3q-29 -24 -59 -51t-65.5 -64.5t-78 -89.5t-96.5 -127q-36 -50 -71 -107.5t-65.5 -114t-54.5 -108.5t-39 -91q56 -5 93.5 -7.5l60 -4t33.5 -1.5h15q24 0 62 3.5t84.5 15.5t99.5 34.5t106.5 60.5t105 94t96.5 134
q0 6 1 9q11 95 19 181t20 151.5t32 104t54 38.5q13 0 20 -12t7 -32q0 -10 -1 -16.5t-1 -8.5q-20 -134 -54.5 -237t-79.5 -183q-9 -81 -23.5 -142t-32.5 -107.5t-37.5 -81t-38.5 -62.5q9 -1 19.5 -1.5t22.5 -0.5q40 0 93.5 7.5t113.5 33t124.5 74t127.5 131.5q39 52 74 116.5
t61 144t42.5 173.5t19.5 204q0 9 9 9t9 -10q-4 -148 -31.5 -268t-70.5 -214.5t-98 -164.5t-113 -119t-115 -78t-104 -41q-39 -10 -76 -13t-66 -3q-34 0 -53 3q-29 -40 -64.5 -67t-80.5 -27q-23 0 -39 11t-17 40zM702 -154q22 11 41 30t31 36q-23 3 -55 3q-9 0 -27 -0.5
t-36 -5t-31.5 -14.5t-13.5 -29q0 -20 12 -27t26 -7t28.5 4.5t24.5 9.5zM-48 -53q-8 -8 -13.5 -18t-5.5 -21q0 -21 19 -30t39 -9q53 0 90.5 31.5t57.5 77.5q-15 2 -31 3t-33 1q-35 0 -67.5 -7.5t-55.5 -27.5zM1025 782q-19 -21 -31 -58.5t-20.5 -89.5t-15 -118.5
t-15.5 -147.5q37 75 65.5 169.5t45.5 211.5q0 3 0.5 8.5t0.5 11.5q0 9 -2 16t-10 7q-5 0 -10 -3t-8 -7zM754 762q25 0 51 1.5t48 6.5t36 16t14 29q-2 23 -14.5 29t-26.5 6q-22 0 -42.5 -9t-39 -22.5t-35.5 -28.5t-31 -26q10 -1 19.5 -1.5t20.5 -0.5z" />
    <glyph glyph-name="X" unicode="X" horiz-adv-x="973" 
d="M1180 845q32 0 61.5 -7t52 -23t35.5 -41.5t13 -62.5q0 -26 -3 -29.5t-8 -3.5q-3 0 -6 2t-3 6q0 3 1 7q0 3 0.5 8t0.5 10q0 30 -11 52t-30.5 36t-46 21t-56.5 7q-47 0 -97 -16.5t-99 -44t-96 -64.5t-87 -77q-36 -38 -78.5 -87.5t-82.5 -110t-74.5 -130t-53.5 -147.5
q-3 -13 -4.5 -28.5t-1.5 -30.5q0 -38 11.5 -70.5t33 -56t52 -36.5t67.5 -13q31 0 62.5 10t56.5 30.5t40.5 50.5t15.5 70q0 19 -4.5 37t-15.5 31.5t-28.5 22t-42.5 8.5q-23 0 -45.5 -9t-38.5 -29q-3 -4 -8 -4q-4 0 -6 3t-2 6q0 4 2 6q17 21 43 33.5t55 12.5q28 0 49 -10
t34 -26.5t19.5 -38.5t6.5 -45q0 -41 -16 -74t-43 -56t-62 -35t-72 -12q-40 0 -73.5 14.5t-57.5 40t-37 61.5t-13 79q0 50 13.5 92.5t30.5 84.5q-38 -52 -85 -106q-1 0 -17.5 -17t-46 -43t-71.5 -56t-93.5 -56t-110.5 -43t-124 -17q-39 0 -86.5 8t-88.5 29t-68.5 57t-27.5 92
q0 60 26.5 103.5t69 71t95 41t105.5 13.5h19t11 -8q0 -9 -9 -9q-44 0 -96 -8.5t-97 -32t-75 -66t-30 -109.5q0 -47 25 -78.5t62.5 -50.5t81.5 -27t83 -8q45 0 87.5 9t82 24t75 34.5t65.5 40.5q38 26 73.5 54.5t65.5 63.5q41 48 87 111.5t84.5 133.5t63.5 142.5t25 139.5
q0 30 -9.5 62.5t-35 59t-70 44t-113.5 17.5t-118 -22t-80 -56t-45.5 -75.5t-14.5 -80.5q0 -32 11.5 -58.5t31.5 -45.5t46.5 -29.5t57.5 -10.5q55 0 90 31t46 82q2 7 8 7q9 0 9 -8q0 -24 -11.5 -47t-32 -41.5t-48.5 -29.5t-60 -11t-61.5 10.5t-53 31t-37.5 51t-14 70.5
q0 42 15.5 86t49 80.5t85.5 60t126 23.5q78 0 126 -20.5t74.5 -51.5t35.5 -68t10 -70q-2 -53 -16.5 -103t-36.5 -103q34 46 67 83.5t62 66.5q38 38 84.5 75.5t97.5 67t104.5 47.5t105.5 18z" />
    <glyph glyph-name="Y" unicode="Y" horiz-adv-x="921" 
d="M1371 861q0 -6 -15.5 -10.5t-44.5 -15t-69 -30t-88 -55t-102.5 -90.5t-111.5 -136q-26 -36 -65.5 -93.5t-88 -129.5t-103.5 -156.5t-110 -174.5q-24 -38 -55 -69.5t-68 -54.5t-80 -36t-91 -13q-34 0 -69 6t-67 20.5t-60.5 37.5t-49.5 56q-9 -9 -22 -20.5t-27 -21.5
t-29 -16.5t-29 -6.5q-5 0 -6.5 3t-1.5 6q0 7 7 9q25 5 49.5 22t49.5 42q-11 22 -17 45.5t-6 49.5q0 16 3 36.5t11 38.5t21 30t34 12q24 0 37 -19.5t13 -46.5q0 -42 -23 -80.5t-51 -68.5q14 -27 38 -48.5t55 -36.5t66.5 -23t73.5 -8q85 0 158 44.5t121 119.5q36 57 68.5 109
t64.5 102q-41 -41 -95.5 -69t-119.5 -28q-34 0 -70 8.5t-66 29t-49.5 54.5t-19.5 85q0 40 14.5 89t46.5 110q35 67 72.5 120t75.5 95.5t75.5 76.5t72.5 63q-76 10 -134.5 31.5t-111.5 43.5t-106.5 39t-118.5 17q-27 0 -55 -5t-51 -17t-37.5 -32.5t-14.5 -51.5q0 -23 10 -38
t25.5 -25.5t35.5 -16.5t40 -10q9 0 9 -9q-2 -9 -10 -9q0 -2 -20 2.5t-44 17t-44 34t-20 54.5q0 30 13.5 53.5t37 39t54.5 23.5t67 8q48 0 88.5 -8.5t77.5 -21.5t73 -28.5t75.5 -30.5t83.5 -27t97 -17q18 15 38.5 33t43 33.5t46 26t46.5 10.5q28 0 43 -17t15 -37t-11.5 -33.5
t-31 -22t-44 -12.5t-49.5 -4q-24 0 -47.5 1.5t-43.5 2.5q-36 -29 -74 -62.5t-77 -77t-78 -98t-76 -123.5q-32 -60 -45.5 -107t-13.5 -83q0 -45 17.5 -75.5t44.5 -49t60 -26.5t65 -8q43 0 82.5 14.5t76 41t70.5 63t67 81.5q51 76 89.5 132t63.5 91q53 76 106 130.5t101.5 92
t90 59.5t72 34t48 16t18.5 4h1q9 0 9 -7v-2zM814 924q-20 -3 -37.5 -12t-35 -21t-34 -26t-33.5 -27q14 -2 31 -3t36 -1q20 0 41.5 2.5t39 8.5t29 16.5t11.5 26.5q0 14 -11 25t-31 11h-6zM19 28q0 -42 19 -80q11 12 22.5 27t20.5 31.5t15 34.5t6 36q0 7 -1.5 15.5t-5 16.5
t-10 13.5t-15.5 5.5q-14 0 -23.5 -9.5t-15.5 -24t-9 -32t-3 -34.5z" />
    <glyph glyph-name="Z" unicode="Z" horiz-adv-x="1164" 
d="M1220 891q17 -7 29.5 -24.5t12.5 -37.5q0 -13 -7 -30.5t-29.5 -33t-63.5 -26.5t-109 -11q-86 0 -173 15q-64 -66 -119.5 -143t-107.5 -146l208 -20q9 0 9 -10q-2 -10 -10 -8l-220 21q-18 -24 -53 -66t-80.5 -92.5t-97 -103.5t-102.5 -99q69 -19 139 -45.5t143 -50.5
t150 -40.5t159 -16.5q28 0 60 4t59 17.5t45 39.5t18 69q0 12 -2 23.5t-2 22.5q0 8 9 8q4 0 6.5 -5.5t4 -13.5t2 -16.5t0.5 -15.5q0 -48 -18.5 -77.5t-47 -46t-64.5 -22t-70 -5.5q-84 0 -161 17t-150.5 41t-146 51t-148.5 48q-37 -33 -68.5 -58t-63 -42.5t-64 -26t-70.5 -8.5
q-18 0 -37.5 4t-36 14t-27 28t-10.5 45q0 30 12.5 50.5t32.5 33t45 18t50 5.5q63 0 121 -14t111 -29q49 44 99.5 95.5t95 100.5t80.5 91.5t57 69.5l-169 15q-8 2 -8 8q0 10 8 10h2l180 -16q25 34 52 71.5t55 75.5t57.5 74.5t61.5 68.5q-136 20 -231.5 47.5t-149.5 47.5
q-18 7 -36.5 14.5t-37 14.5t-38 11.5t-40.5 4.5q-47 0 -77.5 -34.5t-30.5 -88.5q0 -23 5 -44.5t11 -38.5q3 -9 11 -23.5t8 -21.5q0 -9 -10 -9q-1 0 -7.5 9t-14.5 26t-14.5 43t-6.5 59q0 28 8.5 53.5t25 45t40 31t52.5 11.5q42 0 80.5 -15.5t78.5 -30.5q93 -35 189 -58
t201 -38q38 36 80 62.5t82 43t75 24.5t58 8q16 0 28.5 -2.5t22.5 -6.5zM151 -23q35 19 63 42t57 49q-48 13 -99 26t-116 13q-21 0 -43 -4t-39.5 -14t-29 -27t-11.5 -43q0 -21 8 -35t21 -23t30 -12.5t34 -3.5q27 0 56 6t69 26zM1240 809q4 8 4 19q0 23 -19 38.5t-56 15.5
q-19 0 -50 -6.5t-68 -21.5t-77 -38.5t-77 -57.5q36 -7 75 -9.5t81 -2.5q51 0 85 6.5t55 16t31.5 20.5t15.5 20z" />
    <glyph glyph-name="bracketleft" unicode="[" horiz-adv-x="528" 
d="M196 -230h-164q-5 0 -7.5 3t-2.5 6q0 1 2 5l737 1136q4 4 8 4h142q9 0 9 -9t-9 -9h-138l-725 -1118h148q9 0 9 -9t-9 -9z" />
    <glyph glyph-name="backslash" unicode="\" horiz-adv-x="484" 
d="M327 -227q-7 0 -9 7l-234 1235v2q0 9 9 9q7 0 9 -7l234 -1235v-2q0 -9 -9 -9z" />
    <glyph glyph-name="bracketright" unicode="]" 
d="M15 -201h-142q-9 0 -9 9t9 9h138l725 1118h-148q-9 0 -9 9t9 9h164q9 0 9 -10q0 -3 -1 -4l-737 -1136q-4 -4 -8 -4z" />
    <glyph glyph-name="asciicircum" unicode="^" horiz-adv-x="808" 
d="M740 557q-21 0 -36 10.5t-25 27.5t-14.5 38t-4.5 43q0 42 10 84t19 69q-197 -143 -415 -219q-56 -20 -96.5 -30.5t-66 -16t-35.5 -6t-4 -0.5q-8 0 -8 9q0 7 5 8t25 4.5t61.5 13.5t113.5 35q40 14 90 34.5t105.5 49t116 66t121.5 84.5q2 2 5 2q10 0 10 -9q0 -3 -6 -20.5
t-13.5 -42.5t-13.5 -56t-6 -61q0 -39 14 -66.5t49 -32.5q8 -2 8 -11q-2 -7 -9 -7z" />
    <glyph glyph-name="underscore" unicode="_" horiz-adv-x="651" 
d="M627 0h-605q-9 0 -9 9t9 9h605q9 0 9 -9t-9 -9z" />
    <glyph glyph-name="grave" unicode="`" horiz-adv-x="430" 
d="M338 829q-49 0 -97.5 9.5t-90 30.5t-73 55t-45.5 82q-7 22 -8 36t-1 15q0 9 9 9h6.5t0.5 -4.5t1.5 -16t8.5 -35.5q16 -48 46.5 -79t70.5 -49.5t85.5 -26t90.5 -7.5h27.5t27.5 2q8 0 10 -8q0 -6 -8 -9t-19 -3.5t-23 -0.5h-19z" />
    <glyph glyph-name="a" unicode="a" horiz-adv-x="887" 
d="M900 225q2 -4 2 -7q0 -2 -2 -6q-36 -33 -83.5 -71t-100 -70.5t-107.5 -54t-107 -21.5q-15 0 -33.5 2.5t-35 10t-27.5 20.5t-11 33q0 30 36 74q-88 -71 -163.5 -112t-138.5 -41q-32 0 -61.5 10t-52 29t-35.5 46t-13 62q0 101 142 222q96 81 194.5 125.5t186.5 44.5
q42 0 76 -10q2 0 15.5 -5t29 -16.5t28 -30t12.5 -46.5q0 -69 -88 -161q36 24 69.5 46.5t59 39.5t41.5 27t18 10q1 1 4 1q9 0 9 -9q0 -3 -10.5 -9.5t-33 -20t-57 -36.5t-81.5 -57q-84 -61 -126.5 -108t-42.5 -76q0 -14 9.5 -23.5t23 -14.5t28.5 -7t27 -2q45 0 94.5 18.5
t100 48.5t99.5 68t92 78q4 2 6 2q4 0 7 -3zM129 0q42 0 86 17.5t87.5 45.5t85.5 61t80 65q50 41 82 75t51 62t26 49.5t7 37.5q0 23 -11 38.5t-24.5 25t-25 13.5t-12.5 4q-33 9 -71 9q-85 0 -180 -43.5t-189 -122.5q-136 -115 -136 -208q0 -30 11.5 -54t31 -40.5t46 -25.5
t55.5 -9z" />
    <glyph glyph-name="b" unicode="b" horiz-adv-x="682" 
d="M69 9q-22 13 -35.5 31t-21 34.5t-10.5 28.5t-3 14q-4 15 -4 37q0 75 56.5 185t165.5 254q51 67 101.5 127t94 107.5t75.5 80t45 44.5q38 35 66 50t45 16q16 0 29 -11t13 -38q0 -13 -6 -29.5t-14 -32t-15 -26.5t-8 -14q-53 -77 -112 -150t-117 -138.5t-110.5 -120.5
t-93 -95.5t-65 -63.5t-25.5 -24t-9.5 -9t-22.5 -19.5t-32.5 -24.5t-38.5 -25q-2 -12 -3.5 -22.5t-1.5 -20.5q0 -17 3 -30q0 -2 5.5 -21.5t22 -42.5t45.5 -41.5t76 -18.5q18 0 44.5 4t57.5 16.5t65 36t69 61.5q22 24 44 59.5t36 83.5q-26 16 -40.5 36.5t-22.5 39t-10 32
t-2 16.5q0 29 16.5 44.5t36.5 15.5q24 0 38.5 -21t14.5 -68q0 -23 -2.5 -45t-7.5 -42q37 -21 80 -21q41 0 80 17.5t71 44.5q4 2 6 2q3 0 6 -2.5t3 -6.5t-3 -7q-40 -35 -78.5 -50.5t-81.5 -15.5q-24 0 -46.5 5t-41.5 16q-19 -63 -49 -107t-64.5 -73.5t-70.5 -47t-66.5 -26.5
t-52 -11.5t-26.5 -2.5q-26 0 -51 6t-47 20zM645 1002q-17 0 -41.5 -16.5t-58.5 -47.5q-15 -14 -48 -47.5t-76 -81.5t-92 -106t-97 -121q-171 -224 -209 -360q17 11 32.5 22.5t27 21t18.5 16l7 6.5q0 2 24 25t64 63t93 94.5t110.5 119.5t116.5 138t112 149l5 7q11 16 23 40.5
t12 45.5q0 11 -5 21.5t-18 10.5zM459 428q-19 0 -27 -14t-8 -30q0 -5 2 -16.5t8.5 -26.5t18.5 -31.5t32 -29.5q8 37 8 77q0 7 -0.5 19t-4 23.5t-10.5 20t-19 8.5z" />
    <glyph glyph-name="c" unicode="c" horiz-adv-x="706" 
d="M162 -5q-92 0 -140.5 31.5t-48.5 88.5q0 50 33.5 109.5t86 114.5t116 96.5t123.5 55.5q22 5 41 7.5t35 2.5q45 0 68 -21t23 -53q0 -17 -5.5 -34t-13.5 -17q-9 0 -9 8q0 7 5 18t5 24q0 26 -18.5 41.5t-56.5 15.5q-35 0 -75 -11.5t-81 -33t-81.5 -53t-76.5 -71.5
q-48 -54 -74 -106t-26 -93q0 -34 18.5 -54.5t45 -31t56 -13.5t51.5 -3q14 0 23 0.5t10 0.5l12.5 1t34 4t50.5 8t63 14q32 8 72 22.5t84 36t91 51.5t94 69q4 2 6 2q9 0 9 -9q0 -6 -3 -7q-77 -63 -165.5 -111t-183.5 -72q-68 -17 -113 -22t-50 -5q-2 0 -11.5 -0.5t-23.5 -0.5z
" />
    <glyph glyph-name="d" unicode="d" horiz-adv-x="884" 
d="M1107 862q1 -4 1 -14q0 -35 -41 -88.5t-106.5 -118.5t-148.5 -138.5t-167 -148.5q-43 -63 -84.5 -128.5t-74.5 -126.5q-4 -7 -8.5 -20t-4.5 -26q0 -12 7.5 -23.5t38.5 -11.5q34 0 71.5 12t73.5 30t68.5 39.5t56.5 39.5q34 26 53 42.5t29 25.5t13.5 12.5t5.5 3.5
q3 0 6 -2.5t3 -5.5q0 -2 -15.5 -18.5t-42.5 -40t-64 -51t-79 -50.5t-87.5 -38.5t-90.5 -15.5q-9 0 -20.5 1.5t-21 7t-16.5 15.5t-7 27q0 20 7 36.5t8 18.5q19 35 40.5 71t44.5 72q-119 -131 -223.5 -198.5t-195.5 -67.5q-31 0 -61 9.5t-53 28t-37.5 46t-14.5 62.5
q0 102 142 223q99 85 194.5 128t182.5 43q21 0 48.5 -3.5t51.5 -14t41 -30t17 -51.5q0 -24 -9 -49q65 96 127.5 181t115 152t92 111t57.5 58q22 16 38 16q11 0 18.5 -5t12 -11t6.5 -11zM471 190q48 45 78.5 81.5t48.5 65t25 50.5t7 38q0 26 -14.5 42t-36 24.5t-46 11.5
t-44.5 3q-85 0 -176.5 -42.5t-188.5 -124.5q-21 -18 -45 -40.5t-44 -49.5t-33.5 -57t-13.5 -61q0 -29 11.5 -53t31.5 -41t47 -26.5t59 -9.5q45 0 90.5 18t88.5 46t82.5 61.5t72.5 63.5zM994 698q97 103 97 151q0 11 -5.5 19t-16.5 8q-13 0 -29 -13q-12 -9 -44 -45.5
t-78.5 -94.5t-105 -135.5t-123.5 -169.5q85 76 165.5 146.5t139.5 133.5z" />
    <glyph glyph-name="e" unicode="e" horiz-adv-x="702" 
d="M41 13q-35 19 -49.5 50t-14.5 68q0 29 7.5 60t20.5 59.5t29 53t33 42.5q-16 8 -23.5 12t-9.5 6.5t-1.5 3.5t0.5 3q0 9 9 9q4 0 3 0.5t0 -1t7.5 -5.5t27.5 -14q84 90 175.5 143t176.5 53q29 0 56 -8t48 -22.5t33.5 -35t12.5 -45.5q0 -42 -25.5 -74t-63 -53t-80.5 -31.5
t-79 -10.5q-44 0 -84 7.5t-72.5 17t-56.5 20t-37 16.5q-15 -14 -31 -37.5t-28.5 -51t-21 -58t-8.5 -59.5q0 -57 39.5 -91t122.5 -34q32 0 65 4.5t63 11t54 14t39 13.5q40 16 78.5 34.5t78 41.5t81.5 53.5t90 71.5q4 2 6 2q3 0 6 -2t3 -7q0 -4 -3 -7q-49 -42 -92 -72.5
t-83 -54t-79 -41.5t-80 -35q-22 -8 -49 -16t-56.5 -14t-60.5 -10t-61 -4q-32 0 -62 5.5t-54 18.5zM123 339q16 -7 38.5 -15t49.5 -14.5t58 -11t63 -4.5q41 0 82 12t74 32t54 47.5t21 57.5q0 21 -10.5 38.5t-28.5 30.5t-41.5 20t-48.5 7q-32 0 -69.5 -9t-80 -30.5t-90 -57.5
t-98.5 -91z" />
    <glyph glyph-name="f" unicode="f" horiz-adv-x="510" 
d="M-435 -575q-14 0 -23.5 4.5t-14.5 11.5t-7 15.5t-2 16.5q0 18 10.5 48.5t23.5 60.5t24.5 53.5t14.5 27.5q18 35 51 85t76.5 110.5t95.5 128t107 138t111 140.5t109 135q90 111 174.5 212t151 179.5t109.5 128.5t52 60q17 20 34.5 26t28.5 6q34 0 47 -24t13 -54
q0 -15 -2 -28.5t-5 -25t-5.5 -18.5t-2.5 -8q-25 -73 -84 -155.5t-150.5 -167t-214.5 -167t-277 -155.5q-21 -26 -42 -53t-42 -53q5 -5 23.5 -20.5t47.5 -26.5q24 -10 50 -14t54 -4q69 0 138 21t125 47q32 15 77.5 42t94.5 69q4 2 6 2q9 0 9 -9q0 -4 -3 -7
q-51 -42 -97.5 -70.5t-79.5 -43.5q-61 -28 -131.5 -48.5t-139.5 -20.5q-52 0 -99.5 17t-71.5 39q1 -13 1.5 -25.5t0.5 -25.5q0 -68 -17 -141t-47.5 -142.5t-72 -132t-89.5 -108.5q-39 -38 -75 -57t-65 -19zM-90 82q-99 -126 -169.5 -224t-115.5 -172.5t-66.5 -126.5
t-21.5 -86q0 -17 7 -24t24 -7q32 0 70.5 25t77 67.5t74 99.5t63 122t44 134t16.5 135q0 28 -3 57zM642 968l-35 -40t-71.5 -83.5t-100.5 -119t-122 -145.5t-135.5 -164.5t-141.5 -174.5q144 72 259.5 151.5t201.5 160t142 159t80 148.5q1 1 8 24t7 51q0 10 -2 20.5t-6.5 19
t-12.5 14t-21 5.5q-14 0 -27.5 -8t-22.5 -18z" />
    <glyph glyph-name="g" unicode="g" horiz-adv-x="763" 
d="M771 215q2 -4 2 -5q0 -4 -4 -8q-1 0 -27 -20t-70 -49.5t-102.5 -62t-124.5 -56.5q-31 -11 -62.5 -26t-61.5 -30q-55 -78 -112.5 -153.5t-112.5 -141t-104 -117.5t-86 -84q-1 -1 -13 -10.5t-30 -20.5t-40 -20t-43 -9q-12 0 -23.5 3.5t-21.5 11t-16 19t-6 26.5
q0 32 26.5 73t71 86t104 92.5t125.5 93.5t135.5 88t133.5 76q25 37 49.5 71t54.5 68q-84 -63 -149.5 -97t-125.5 -34q-32 0 -61.5 10.5t-51.5 30t-35 46.5t-13 61q0 101 141 221q100 85 195 128t182 43q23 0 51.5 -4t54 -16t43 -33.5t17.5 -55.5q0 -62 -72 -143
q36 24 72.5 47.5t77.5 43.5q1 0 1.5 0.5t2.5 0.5q3 0 6 -2.5t3 -6.5q0 -6 -5 -9q2 0 -16.5 -8.5t-50 -26t-73.5 -45.5t-87.5 -67.5t-91 -90t-85.5 -114.5q24 11 48 21.5t47 19.5q39 14 78 33.5t74.5 40t66 40.5t53 36t35.5 26l13 10q4 2 6 2q4 0 7 -3zM138 -3
q42 0 86.5 17.5t88 45.5t85.5 61t80 65q49 41 81 75.5t51 62t26 49t7 37.5q0 28 -15 45.5t-37.5 27.5t-48 14t-47.5 4q-84 0 -176 -42.5t-189 -123.5q-66 -57 -100.5 -109.5t-34.5 -97.5q0 -30 11 -54t30.5 -41t45.5 -26.5t56 -9.5zM-106 -525q37 32 82.5 80t96 108
t104.5 130t108 146q-56 -31 -119 -71t-124.5 -84t-118 -90.5t-99 -89t-68 -79t-25.5 -62.5q0 -12 5 -20.5t12 -13.5t15.5 -7.5t15.5 -2.5q18 0 37.5 8t36 18t28 19t13.5 11z" />
    <glyph glyph-name="h" unicode="h" horiz-adv-x="775" 
d="M-118 4q36 95 97 202t145 232l5 7q38 55 85.5 117t98 124.5t101 121t94.5 105.5t79 79t54 42q20 10 41 10q28 0 45.5 -19.5t17.5 -48.5q0 -14 -3.5 -26t-7.5 -21.5t-8 -15.5l-4 -6q-83 -111 -296 -275q-42 -32 -83.5 -62t-78.5 -55.5t-68.5 -46.5t-53.5 -36
q-55 -80 -109 -168t-97 -178q45 63 97.5 127.5t105 121t103.5 100t93 64.5l12.5 5.5t31.5 11.5t43 11t48 5q27 0 51 -7.5t41.5 -21.5t28 -34t10.5 -45q0 -33 -14.5 -65.5t-33 -59.5t-35.5 -45.5t-21 -22.5q-11 -11 -22 -23q-10 -11 -22 -25t-24 -30q-35 -44 -46 -68.5
t-11 -36.5q0 -1 -0.5 -5t3 -8t12.5 -7.5t28 -3.5q31 0 65.5 11t77 35.5t96.5 65t124 99.5q4 2 6 2q9 0 9 -9q0 -6 -3 -7q-56 -47 -107.5 -86.5t-98.5 -68t-90 -44.5t-82 -16q-27 0 -42.5 9.5t-15.5 32.5q0 40 61 116q22 28 51 58t55 62t44 66.5t18 71.5q0 23 -10 40.5
t-25.5 29t-36 17t-41.5 5.5q-24 0 -46.5 -4.5t-40.5 -10.5t-29 -11l-11 -5q-62 -31 -137.5 -102t-160.5 -179q-32 -41 -59 -78t-46.5 -65.5t-30.5 -45.5l-11 -17zM682 1027q-8 0 -15 -2t-18 -7q-17 -8 -64 -53t-113 -117.5t-144.5 -168.5t-156.5 -207q34 23 79 54t95 68
t102.5 78t101 83t89.5 83.5t69 79.5q1 1 10.5 18t9.5 40q0 6 -1.5 15t-6.5 17t-13.5 13.5t-23.5 5.5z" />
    <glyph glyph-name="i" unicode="i" horiz-adv-x="429" 
d="M29 4q-17 0 -34 2t-30.5 9.5t-21.5 21.5t-8 37q0 30 13.5 64.5t34 69.5t43.5 68t42 60q27 39 53.5 74t48 62t35 43l13.5 16q1 3 7 3q9 0 9 -9q0 -2 -2 -6l-13.5 -16t-35 -42.5t-48 -61.5t-53.5 -73q-18 -25 -40 -57t-42 -66t-33.5 -67.5t-13.5 -61.5q0 -18 7 -28.5
t18 -15.5t24.5 -6.5t26.5 -1.5q43 0 94 17.5t102.5 46t102 64.5t93.5 74q4 2 6 2q9 0 9 -9q0 -4 -3 -7q-45 -38 -94.5 -75t-101.5 -66t-104.5 -47t-103.5 -18zM363 659q0 -20 -14 -34.5t-34 -14.5t-34.5 14.5t-14.5 34.5t14.5 34t34.5 14t34 -14t14 -34z" />
    <glyph glyph-name="j" unicode="j" horiz-adv-x="318" 
d="M-604 -597q-31 0 -47.5 18t-16.5 49t19.5 64t52.5 67.5t77 69t94 68t103 66.5t103 63q44 68 90.5 144t90.5 150t82.5 141t67.5 118t45.5 80.5t16.5 28.5q3 4 8 4q3 0 6 -2.5t3 -5.5t-15 -31t-42 -74.5t-63 -108t-77.5 -131.5t-87 -144.5t-90.5 -147.5q18 10 34 20
q63 37 126 75t122.5 77t114 80t100.5 84q3 3 7 3q3 0 6 -3t3 -6q0 -2 -1 -3.5t-2 -3.5q-53 -50 -116.5 -95.5t-132 -89t-140.5 -86.5t-142 -86q-86 -135 -153 -228t-115 -146l-14 -14t-30.5 -26.5t-41.5 -26t-45 -11.5zM-240 -166q-62 -37 -119.5 -74t-107.5 -74.5
t-91 -75.5t-70 -78q-22 -31 -22 -61q0 -28 13.5 -39t30.5 -11q24 0 45.5 12t38 26t26 25t9.5 9q45 48 107 134t140 207zM295 660q0 -20 -14 -34t-34 -14t-34.5 14t-14.5 34t14.5 34.5t34.5 14.5t34 -14.5t14 -34.5z" />
    <glyph glyph-name="k" unicode="k" horiz-adv-x="671" 
d="M-95 -5q13 37 42 95.5t73 135t102.5 170t132.5 200.5q51 73 97 137.5t81.5 112.5t57 76t21.5 29q2 2 14.5 16.5t31.5 30.5t43 29t49 13q11 0 24 -5t24 -14t18 -22.5t7 -29.5q0 -33 -27.5 -81t-81.5 -108q-29 -32 -59 -62.5t-56.5 -55.5t-45.5 -42t-26 -23
q-18 -15 -53 -44t-84 -67q13 5 35.5 12t49 14t54 11.5t48.5 4.5q32 0 56 -8t40 -22t24 -32.5t8 -39.5q0 -32 -20 -62t-53.5 -52.5t-78.5 -36t-95 -13.5q-33 0 -61.5 4.5t-51.5 10.5t-39.5 12t-25.5 10q-5 -17 -12.5 -52t-7.5 -80q0 -34 8 -63.5t24.5 -51t43 -34t64.5 -12.5
q30 0 65 8t79.5 30.5t99 62t123.5 102.5q3 3 6 3q9 0 9 -9q0 -4 -3 -7q-66 -60 -120 -100t-100 -64t-85.5 -33.5t-75.5 -9.5q-75 0 -115.5 46t-40.5 135q0 25 3.5 51t8 46.5t8.5 33.5l4 13l3 9l10 -4l15 -6t39.5 -13.5t56 -13.5t66.5 -6q43 0 84.5 11t74 30.5t52.5 46
t20 58.5q0 39 -29.5 61.5t-80.5 22.5q-33 0 -67 -7t-62 -15.5t-46.5 -16l-18.5 -7.5q-40 -17 -76.5 -45.5t-69 -63t-59.5 -73t-48 -74.5q-19 -32 -34.5 -60.5t-28 -54.5t-24 -51.5t-21.5 -52.5zM649 1022q-22 0 -43.5 -12t-38.5 -27t-28.5 -28t-12.5 -15l-16.5 -22
t-44.5 -60.5t-65.5 -90t-79.5 -111t-86 -124.5t-86 -129q49 35 91.5 67.5t77 59.5t59.5 48t39 33q9 8 34 31t57.5 54.5t67.5 69t64 74.5t48 70.5t19 57.5q0 13 -5.5 23t-14 16.5t-18.5 10.5t-18 4z" />
    <glyph glyph-name="l" unicode="l" horiz-adv-x="533" 
d="M57 -9q-29 0 -49 8t-32.5 21.5t-18.5 31t-6 35.5q0 21 4 36.5t5 17.5q19 53 48.5 112.5t63.5 119t69.5 116t66.5 103.5q33 51 63.5 94t54 74.5t37.5 50l14 18.5q0 1 19.5 23t48.5 49.5t62.5 54.5t62.5 39q28 12 50 12q33 0 51.5 -21.5t18.5 -52.5q0 -21 -8 -46t-20.5 -50
t-28 -49t-30.5 -45q-45 -62 -94.5 -115.5t-115.5 -110t-154.5 -121t-211.5 -148.5q-14 -29 -26.5 -57.5t-23.5 -56.5q-2 -6 -4 -14q-2 -7 -3 -15.5t-1 -17.5q0 -40 26.5 -59.5t65.5 -19.5q31 0 66 11q63 19 115.5 40t100 46.5t93 56t94.5 68.5q4 2 6 2q9 0 9 -9q0 -6 -3 -7
q-50 -38 -96.5 -69.5t-95 -57.5t-102 -48t-117.5 -40q-20 -6 -39 -8t-35 -2zM391 818q-2 -2 -19 -23.5t-43.5 -58.5t-61.5 -87.5t-72.5 -109.5t-76.5 -124.5t-74 -133.5q78 54 140.5 98.5t113 84t91.5 74.5t75.5 70t65 70.5t59.5 75.5q41 57 62 103t21 77q0 25 -14.5 40
t-38.5 15q-23 0 -48.5 -12.5t-50.5 -31.5t-48 -41t-41 -41t-29 -32z" />
    <glyph glyph-name="m" unicode="m" horiz-adv-x="1238" 
d="M-251 -5q0 1 12 13t31 30.5t42 42l46 47t43.5 44.5t33.5 36q61 68 98.5 115t58 78.5t27.5 50t7 27.5q0 11 -8 13.5t-8 10.5q0 9 8 9q14 0 20 -12t6 -22q0 -29 -36 -86t-108 -138q77 69 146.5 118.5t128.5 81.5t106.5 47.5t80.5 15.5q17 0 34 -4.5t30 -15t21 -28.5t8 -44
q0 -34 -16 -78t-47 -97q125 125 223 189t180 64h11.5t10.5 -1q2 0 13.5 -2.5t24 -10t23 -21.5t10.5 -39q0 -80 -134 -234q-44 -50 -59 -81t-15 -48q0 -25 20.5 -34.5t45.5 -9.5q16 0 34 3t34.5 7.5t30.5 9.5t23 9q40 17 102 57t141 115q3 3 7 3q8 0 8 -9q0 -3 -2 -7
q-81 -78 -145 -118.5t-105 -57.5q-25 -11 -60 -20.5t-68 -9.5q-15 0 -30 3t-27 10t-19.5 18.5t-7.5 28.5q0 23 17 57.5t62 85.5q63 72 96 128t33 93q0 19 -8.5 30.5t-18.5 17.5t-18.5 8t-9.5 2q-5 1 -9.5 1h-9.5q-85 0 -203 -82.5t-265 -250.5q-25 -29 -58 -71t-71 -87
l-14 11l12 14.5t30.5 37t41 50.5t45.5 57q60 81 91 147t31 112q0 20 -6 33.5t-13 21.5t-13 11l-6 3q-18 5 -36 5q-42 0 -105.5 -27t-141.5 -77.5t-168 -123.5t-184 -166q-26 -26 -48 -48.5t-38.5 -38.5t-26.5 -25.5l-10 -9.5z" />
    <glyph glyph-name="n" unicode="n" horiz-adv-x="853" 
d="M-173 4q-2 -2 11.5 16t36 48.5t51.5 71t59 85.5q43 64 69 108.5t40.5 74.5t19.5 47t5 26q0 6 -1.5 8.5t-1.5 5.5q0 9 9 9q11 0 11 -22t-28 -82.5t-95 -165.5q128 137 249.5 207t227.5 70q61 0 97 -19.5t36 -60.5q0 -20 -8 -40.5t-18 -37.5t-18 -27.5t-9 -11.5l-6.5 -8.5
t-17.5 -22.5t-24.5 -32t-26.5 -39q-61 -95 -61 -146q0 -21 13 -35.5t42 -14.5q34 0 85.5 24t120.5 72q32 22 60.5 44t50.5 40t34.5 29.5l12.5 11.5q4 2 6 2q9 0 9 -9q0 -4 -3 -7q-22 -20 -48 -41q-22 -18 -50.5 -40.5t-60.5 -44.5q-140 -98 -217 -98q-35 0 -54 19t-19 48
q0 58 64 156q14 20 27.5 39t24.5 33q13 17 25 31q13 17 24 35q9 15 16.5 34t7.5 36q0 62 -116 62q-61 0 -121 -21.5t-116 -55.5t-107 -77.5t-94 -87.5t-77 -85t-57 -70l-28.5 -38l-24 -32t-16.5 -23l-6 -9z" />
    <glyph glyph-name="o" unicode="o" horiz-adv-x="866" 
d="M131 -10q-41 2 -69.5 16t-46 35t-25.5 46.5t-8 52.5q0 39 13 74.5t32.5 67t42.5 58t44 46.5q85 82 173 122t159 40q38 0 65 -9t45 -19.5t26.5 -19.5t9.5 -10q1 -2 1 -6t-1 -5q17 -4 25 -18t8 -31q0 -38 -29 -93t-92 -124q32 -33 72 -48.5t85 -15.5q50 0 101 19t97 55
q2 2 5 2q10 0 10 -10q0 -5 -3 -6q-49 -38 -102 -58t-107 -20q-49 0 -93.5 16.5t-76.5 51.5q-43 -48 -88.5 -86.5t-91.5 -65.5t-89.5 -42t-81.5 -15h-10zM449 531q-32 0 -70 -9t-79 -27q-40 -18 -91.5 -54t-98 -84t-78.5 -104t-32 -113q0 -24 7 -48t23.5 -42.5t44 -30
t67.5 -11.5q71 0 161 54t179 153q-13 20 -18.5 45.5t-5.5 52.5q0 33 8.5 63.5t23.5 54t37 37t49 13.5q-4 5 -13.5 13.5t-25 16.5t-37.5 14t-51 6zM576 463q-42 -1 -71 -40.5t-29 -108.5q0 -23 4 -44.5t14 -40.5q51 60 82 112t31 89q0 15 -7 24t-24 9z" />
    <glyph glyph-name="p" unicode="p" horiz-adv-x="891" 
d="M914 254q2 -4 2 -6q0 -6 -3 -7q-139 -125 -275 -186t-275 -63q-61 0 -116 12.5t-93 28.5q-28 8 -56.5 23.5t-51.5 37.5q-137 -228 -238.5 -378t-162.5 -212q-1 -2 -11.5 -12.5t-26 -22.5t-34 -21.5t-34.5 -9.5q-18 0 -27.5 11t-9.5 28q0 26 18.5 74.5t53.5 113.5
q56 104 132 212.5t162.5 211t179.5 195t184 163.5q31 54 49 86t28 49.5t14 22.5t6 5q3 0 6 -2t3 -7q0 1 -1 -1.5t-7.5 -14.5t-20.5 -38t-40 -72q49 40 111.5 63t141.5 23q48 0 84.5 -12.5t60.5 -33.5t36 -49t12 -59q0 -32 -12 -64.5t-31 -63t-43 -58.5t-49 -50
q-36 -32 -77.5 -59.5t-85 -47t-87 -30.5t-83.5 -11q26 -6 53.5 -9.5t60.5 -3.5q51 0 111 11t128 38.5t143.5 74.5t157.5 120q3 3 6 3q2 0 3.5 -1t3.5 -2zM-368 -484q37 38 95 118t133 195t163 260.5t185 315.5q-77 -63 -144.5 -130t-124.5 -131t-102 -120.5t-76 -99.5
q-58 -80 -103 -151.5t-75.5 -130t-46.5 -101t-16 -64.5q0 -8 4.5 -14.5t15.5 -6.5t24.5 7t26.5 17t24 20t17 16zM160 50q19 -5 37.5 -7t35.5 -2q85 -1 173 38t162 106q24 21 46.5 47t40.5 54t29 58.5t11 60.5q0 25 -9 49.5t-29 44t-53 32t-82 12.5q-58 0 -101 -11.5
t-75.5 -28.5t-56.5 -35.5t-43 -32.5q-38 -66 -88 -149.5t-102 -175.5q21 -21 51 -36.5t53 -23.5z" />
    <glyph glyph-name="q" unicode="q" horiz-adv-x="798" 
d="M822 386q0 -8 -8 -8q-60 -8 -113 -37.5t-97 -65.5t-77 -70.5t-53 -53.5l-4 -5q1 -2 1 -6q-5 -55 -17 -111.5t-32 -114.5t-47.5 -117t-59.5 -113.5t-66 -101.5t-67.5 -82t-64.5 -55t-55 -20q-28 0 -42 19t-14 42q0 56 69.5 161.5t196.5 274.5q26 34 51 66.5t46.5 60
t39.5 50l30 37.5q-82 -66 -152 -101t-130 -35q-32 0 -61 10t-51.5 29.5t-35.5 46.5t-13 62q0 101 142 221q99 84 194 127t182 43q17 0 45 -2.5t55 -13.5t46.5 -32.5t19.5 -60.5q0 -47 -46 -111q19 13 42 26.5t47 24.5t47.5 18t43.5 7q8 0 8 -7v-2zM157 18q42 0 86.5 17.5
t88 44.5t85.5 60.5t80 65.5q12 10 23 19.5t22 20.5q36 33 59 61t36.5 50.5t19 40.5t5.5 32q0 33 -19 51t-44 27t-49.5 11t-35.5 2q-84 0 -176 -42t-189 -124q-66 -57 -100.5 -109.5t-34.5 -98.5q0 -30 11.5 -53.5t31.5 -40.5t45.5 -26t54.5 -9zM317 -279q19 35 40 79
t39.5 95t33 108.5t21.5 119.5q-21 -27 -61.5 -77.5t-88 -112.5t-97 -130t-90 -129.5t-66.5 -111t-26 -75.5q0 -23 12 -33.5t26 -10.5q22 0 53.5 22.5t66.5 61t70.5 88.5t66.5 106z" />
    <glyph glyph-name="r" unicode="r" horiz-adv-x="652" 
d="M274 -33q-40 2 -60 24t-20 57q0 38 24 87t57 99t68 95.5t57 76.5q5 8 9 16t4 15q0 9 -6.5 13.5t-15.5 7t-18.5 3t-14.5 0.5q-2 0 -14.5 1t-30.5 4t-38.5 8.5t-36.5 14.5q-4 -6 -6 -10q-45 -77 -98.5 -145t-116.5 -125q-2 -2 -6 -2q-9 0 -9 9q0 4 3 7q67 60 117.5 128
t93.5 138q2 3 4 6.5t2 4.5q-15 11 -21.5 25.5t-6.5 29.5t4.5 24t10.5 13.5t12 5.5t8 1q13 0 20 -4.5t10 -11t3.5 -12.5t0.5 -9q0 -23 -17 -57q12 -7 28.5 -12t32.5 -8t30 -4.5t22 -1.5q6 0 18 -1t24 -4.5t21 -12t9 -23.5t-16 -41.5t-40.5 -59.5t-53 -71t-53 -76.5
t-40.5 -75.5t-16 -68q0 -61 73 -61q25 0 63 11t83 30t94.5 45t97.5 55q2 2 5 2t5.5 -3t2.5 -6q0 -5 -4 -8q-52 -32 -103.5 -58.5t-98.5 -45.5t-87 -29.5t-69 -10.5zM214 564q-1 -2 -1 -7q0 -11 5 -23.5t13 -17.5q8 17 11 27.5t3 17.5q0 8 -4 14t-13 6q-11 -1 -14 -17z" />
    <glyph glyph-name="s" unicode="s" horiz-adv-x="541" 
d="M85 22q-8 16 -8 35q0 45 42.5 87.5t147.5 87.5q5 0 5 4v7q0 51 -5.5 97.5t-7.5 94.5q-45 -38 -90 -76.5t-81.5 -70t-60 -52l-23.5 -20.5q-2 -2 -6 -2q-9 0 -9 8q0 4 3 7q0 1 24.5 22.5t63 55t85.5 73.5t93 78q0 81 21 115.5t51 34.5q19 0 29.5 -12t10.5 -29
q0 -18 -10.5 -35.5t-25.5 -32.5t-31 -27.5t-27 -21.5q0 -54 7 -100.5t7 -93.5v-14q25 10 47.5 18.5t39.5 13.5q20 6 37 11q30 9 70.5 16t81.5 7h17.5t9.5 -9t-9 -9h-17q-40 0 -79.5 -7t-68.5 -15l-39 -13q-18 -6 -41 -14t-49 -19q0 -121 -36.5 -180.5t-93.5 -59.5
q-23 0 -44 10t-31 30zM272 215q-91 -38 -134 -77t-43 -82q0 -30 20.5 -43.5t44.5 -13.5q33 0 54 20t33.5 51.5t17.5 70t7 74.5zM305 579q-12 -11 -19.5 -38t-9.5 -69q9 6 22 15.5t25 22t20.5 27.5t8.5 32q0 3 -3.5 12t-18.5 9q-12 0 -25 -11z" />
    <glyph glyph-name="t" unicode="t" horiz-adv-x="664" 
d="M-22 220q27 24 57.5 49.5t62 52t62.5 52t60 48.5q67 55 134 108q-12 0 -40.5 1t-62 3t-65.5 4t-50 4q-9 2 -9 10t9 8h5.5t11.5 -1q108 -9 210 -12q67 126 123 225t98.5 167.5t71.5 104.5t43 36q4 0 11.5 -3t7.5 -18q0 -14 -5 -31.5t-8 -25.5q-28 -73 -70.5 -143
t-87.5 -130.5t-86 -108t-65 -74.5q21 0 41.5 -0.5t40.5 -0.5q71 0 139 3q9 0 9 -9q0 -6 -17 -8.5t-40.5 -3t-47.5 -0.5h-38q-26 0 -51.5 0.5t-51.5 1.5q-5 -5 -8 -8.5t-6 -6.5q-39 -74 -74 -141t-61 -118t-41.5 -82t-16.5 -32q-7 -13 -11 -26q-5 -11 -8 -25t-3 -28
q0 -61 77 -61q45 0 91.5 13.5t91.5 34.5t86 47t75.5 51.5t60 47t39.5 33.5q4 2 6 2q9 0 9 -9q0 -4 -3 -7q-57 -51 -118.5 -93.5t-120.5 -73t-114.5 -47.5t-100.5 -17q-49 0 -73 22t-24 58q0 15 3.5 30t8 27t8 19.5t4.5 9.5t16.5 32t41.5 78.5t59 111t68 128.5
q-1 -1 -24.5 -20t-59.5 -48t-79 -64t-82 -67.5t-68.5 -58t-38.5 -35.5q-4 -4 -8 -4q-5 0 -7 3t-2 6q0 5 5 9zM401 579q23 26 64.5 74t85.5 109t84.5 130.5t61.5 139.5q3 9 3.5 15t0.5 10q0 5 -2 5q-11 0 -42 -45t-73.5 -115.5t-90.5 -156t-92 -166.5z" />
    <glyph glyph-name="u" unicode="u" horiz-adv-x="839" 
d="M466 -9q-33 0 -56 15t-23 50q0 30 19 75.5t60 107.5q-63 -55 -119.5 -99t-115.5 -75q-43 -22 -77 -34t-58.5 -17t-38.5 -6t-17 -1q-1 0 -15.5 0.5t-31 6.5t-30.5 21t-14 45q0 43 40 119.5t118 188.5q33 48 55 77.5t34.5 45.5t18 21.5t6.5 5.5q9 0 9 -10q0 -3 -2 -5
l-19.5 -25.5t-48.5 -65.5t-63 -89.5t-62.5 -98.5t-48 -92.5t-19.5 -71.5q0 -31 20.5 -43.5t49.5 -12.5q24 0 52 6.5t54.5 16t48 19.5t33.5 16q56 30 133.5 88t170.5 159q27 32 56.5 68t54 66.5t40.5 51l16 20.5l14 -12q-37 -47 -77.5 -94t-79 -95.5t-72 -99t-57.5 -104.5
q-18 -41 -18 -70q0 -52 60 -52q32 0 73.5 15.5t88 43.5t96.5 67.5t100 87.5q4 2 7 2q8 0 8 -9q0 -4 -2 -6q-51 -50 -102 -90t-99 -68t-91 -43.5t-79 -16.5z" />
    <glyph glyph-name="v" unicode="v" horiz-adv-x="859" 
d="M-33 82q0 22 11 53t27.5 65.5t36.5 70t39 66.5q2 3 12.5 20.5t22 41t21 48t9.5 41.5q0 15 -8.5 20t-18.5 5q-14 0 -28 -9t-24.5 -19.5t-17.5 -20l-7 -9.5q-1 -4 -7 -4q-9 0 -9 10q0 -1 0.5 1t3.5 7.5t11 14.5t23 23t29.5 19t25.5 5q23 0 34.5 -13.5t11.5 -30.5t-7.5 -38
t-18.5 -43q-13 -28 -27 -51.5t-30.5 -51t-35.5 -62t-41 -83.5q-11 -22 -15.5 -41.5t-4.5 -35.5q0 -20 7.5 -34t19.5 -22.5t27 -12.5t30 -4q5 0 10 0.5t10 1.5q49 8 94 27t84 44.5t71.5 53.5t56.5 54q50 53 87.5 109.5t64.5 117.5q-41 35 -41 99q0 26 14 42t37 16
q20 0 30 -14.5t10 -34.5q0 -39 -28 -102q17 -12 42.5 -20t54.5 -8q34 0 67 11t61.5 26.5t51 32.5t36.5 29q3 3 6 3q5 0 7 -3t2 -6q0 -5 -12 -16t-29 -23t-36.5 -24t-35.5 -19q-31 -15 -60.5 -22t-56.5 -7q-30 0 -58 8t-47 21q-37 -80 -92.5 -154.5t-121 -132t-137.5 -92.5
t-141 -35q-47 0 -75 24t-28 67zM538 550q-7 -5 -10 -15t-3 -24q0 -47 30 -77q10 24 17 48t7 42q0 32 -24 32q-8 0 -17 -6z" />
    <glyph glyph-name="w" unicode="w" horiz-adv-x="950" 
d="M459 -16q-47 0 -71.5 25.5t-24.5 76.5q0 39 14.5 91.5t43.5 119.5q-31 -45 -61 -85.5t-62 -74.5t-69 -61.5t-81 -48.5q-63 -30 -112 -30q-39 0 -61 20.5t-22 55.5q0 54 30.5 128t81.5 163q29 51 48.5 81.5t31.5 46.5q14 18 22 26q3 0 6 -2.5t3 -6.5q0 -3 -2 -5l-8 -11.5
t-21 -31.5t-30 -47.5t-35 -58.5q-49 -85 -78.5 -158.5t-29.5 -124.5q0 -27 16 -42t48 -15q54 0 105 25t97.5 66t88.5 93.5t78.5 107.5t68.5 108.5t57 96.5l15 -10q-6 -11 -19 -33.5t-29.5 -53.5t-34 -67.5t-33.5 -75.5q-49 -121 -49 -186q0 -83 77 -83q43 0 88 21.5t89.5 62
t86.5 98.5t78 131q-21 22 -26.5 47.5t-5.5 41.5q0 25 5.5 47t15.5 38.5t23 26t28 9.5t24 -10.5t9 -31.5q0 -15 -5 -37t-13 -44.5t-17 -44.5t-16 -37q13 -10 29 -14t33 -4q34 0 68.5 10t63.5 23q33 15 65 34q2 1 5 1q9 0 9 -9q0 -1 -3 -5t-14.5 -11t-33.5 -17.5t-59 -23.5
q-58 -20 -99 -20q-46 0 -72 19q-36 -73 -79 -132t-89 -101t-93.5 -64.5t-93.5 -22.5zM840 508q-15 0 -25.5 -11t-17 -26.5t-9 -33t-2.5 -29.5q0 -46 22 -74q6 13 14 32t15.5 40t12.5 41.5t5 37.5q0 23 -15 23z" />
    <glyph glyph-name="x" unicode="x" horiz-adv-x="751" 
d="M758 202q2 -2 2 -5q0 -4 -3 -7q-113 -100 -214 -154t-176 -54q-60 0 -87.5 31.5t-27.5 89.5q0 31 6.5 66t16.5 71q-78 -54 -144 -105.5t-114 -92t-75.5 -65l-27.5 -24.5q-4 -2 -6 -2q-9 0 -9 9q0 4 2 6q-1 -1 29.5 26t82.5 70.5t122 97.5t148 107q6 24 14.5 52t15.5 55
t12 50t5 37q0 18 -6.5 23t-22.5 5q-17 0 -48.5 -8.5t-86.5 -33.5q-26 -12 -51.5 -25t-49 -25.5t-43 -23.5t-32.5 -19q-1 -1 -5 -1q-3 0 -6 2t-3 6q0 5 18.5 17t46.5 27t60 31t58 28q95 43 143 43q46 0 46 -47q0 -14 -4 -34t-10.5 -44t-14 -49.5t-13.5 -49.5
q100 69 195.5 123.5t183.5 92.5q1 0 2 0.5t2 0.5q9 0 9 -9q0 -6 -5 -8q-106 -47 -206.5 -107t-188.5 -120q-11 -41 -19 -80.5t-8 -73.5q0 -50 22 -76t73 -26q72 0 170 53t209 150q4 2 6 2q4 0 7 -3z" />
    <glyph glyph-name="y" unicode="y" horiz-adv-x="789" 
d="M-166 -594q-35 1 -51 18t-16 43q0 33 24 71.5t65 79.5t96 83.5t116.5 84t127 80.5t126.5 73q17 30 45 82t62 112q-33 -24 -71 -49t-78.5 -45t-82.5 -32.5t-82 -12.5q-60 0 -101 29t-41 85q0 28 9.5 57t24 57.5t32.5 55t35 49.5q19 26 47 55.5t62.5 57t74.5 52t84 40.5
q1 0 1.5 0.5t1.5 0.5q4 0 7 -3t3 -6q0 -7 -6 -9q-43 -16 -81 -39t-71 -49.5t-60 -54.5t-48 -55q-1 -1 -16 -21t-33 -51t-33 -67.5t-15 -70.5q0 -24 10 -42t26.5 -29.5t38.5 -17.5t46 -6q43 0 89 15.5t91 39.5t85.5 52t72.5 53q27 49 54.5 98.5t51 91.5t40.5 73t24 45
q8 17 24 30t34 13q2 0 8.5 -0.5t13 -4.5t11.5 -13t5 -26q0 -21 -13.5 -51t-40.5 -67.5t-68 -81t-96 -90.5q-8 -7 -16.5 -14t-17.5 -15q-33 -60 -63.5 -114t-50.5 -92q51 27 82.5 43t32.5 16l26.5 13.5t70 39t101.5 63.5t121 89q4 2 6 2q3 0 5.5 -3t2.5 -6q0 -6 -3 -7
q-63 -51 -121 -89t-102.5 -64t-71 -39.5t-27.5 -14.5q-8 -4 -43.5 -21.5t-95.5 -50.5l-2 -4l-2 -4q-15 -29 -38 -66.5t-52 -79.5t-63 -86.5t-71 -87.5q-29 -33 -62.5 -67t-69.5 -61.5t-72 -45t-69 -17.5zM306 -91q-106 -59 -200.5 -120t-165.5 -119.5t-112.5 -110.5
t-41.5 -92q0 -18 11 -30.5t38 -12.5q48 0 115.5 48.5t143.5 136.5q34 39 65.5 80t58.5 80.5t49.5 75t38.5 64.5zM637 472q-7 -12 -21.5 -38.5t-34.5 -62.5t-44 -79.5t-49 -88.5q104 90 157.5 163.5t53.5 112.5q0 14 -6 20.5t-14 6.5q-13 0 -24 -11.5t-18 -22.5z" />
    <glyph glyph-name="z" unicode="z" horiz-adv-x="679" 
d="M-260 -525q4 34 46.5 87.5t113 117.5t165.5 132.5t204 132.5q-3 34 -24.5 56.5t-46 35.5t-45 18l-20.5 5l-28 5l25 12l12.5 6t32.5 17.5t46 27t54 35.5q87 61 133.5 121.5t46.5 115.5q0 22 -6 42.5t-18.5 36.5t-31 25.5t-42.5 9.5q-29 0 -59.5 -10t-55 -22t-41 -22
l-16.5 -10q-31 -20 -47 -32.5t-24 -20t-10.5 -10t-5.5 -2.5q-8 0 -8 8q0 5 2 7q1 1 23.5 21.5t59.5 43.5q3 1 20 12t43 23t57.5 22t62.5 10q30 0 51.5 -11.5t35.5 -30.5t21 -42.5t7 -47.5q0 -43 -20 -82t-51 -73.5t-68.5 -63.5t-72.5 -51t-62.5 -37l-38.5 -21
q13 -4 33.5 -13t40 -23t34.5 -34t18 -47q29 17 56.5 31.5t53.5 27.5q67 33 125.5 70t101.5 68.5t68 52.5t26 21q2 2 5 2q10 0 10 -9q0 -3 -3 -6q-1 -1 -26 -22t-69 -53t-103 -69.5t-127 -70.5q-27 -14 -56 -29.5t-60 -33.5q-1 -27 -18.5 -66t-46 -84t-67 -93.5t-81.5 -95.5
q-23 -25 -56 -57.5t-70 -61.5t-75 -49t-69 -20q-29 0 -47 17t-18 43v7zM269 -76q-64 -38 -127 -80.5t-119.5 -85.5t-105 -85t-84 -80t-55.5 -69.5t-20 -54.5t15 -33t35 -10t48 12.5t61 36.5t70 57.5t75 75.5q39 43 75 88.5t64.5 88t46.5 79t21 60.5z" />
    <glyph glyph-name="braceleft" unicode="{" horiz-adv-x="440" 
d="M129 -175q-37 13 -52.5 43t-15.5 58q0 48 21.5 75.5t52.5 52.5q54 43 89 76t54.5 63t27 59.5t7.5 67.5q0 23 -13 41.5t-28.5 32t-28.5 21.5l-13 8q-6 1 -6 9q1 8 5.5 8t15 1t29 7t47.5 25q46 30 76.5 81.5t44.5 120.5q32 164 124 249q24 22 49 36t49 22t45.5 11t39.5 3
q9 0 9 -9t-9 -9q-54 0 -101 -21t-84 -60.5t-63.5 -96.5t-40.5 -129q-20 -100 -72 -160.5t-130 -83.5q29 -17 51 -45.5t22 -73.5t-15.5 -81.5t-41 -68t-58.5 -60t-69 -58.5q-24 -20 -45.5 -45.5t-21.5 -66.5q0 -24 12 -49t41 -38q8 -4 8 -9t-3 -6.5t-5 -1.5h-3q-1 0 -1 1z
" />
    <glyph glyph-name="bar" unicode="|" 
d="M40 -225q-9 0 -9 9q0 1 2 5l813 1270q4 4 7 4q10 0 10 -9q0 -3 -2 -5l-813 -1270q-3 -4 -8 -4z" />
    <glyph glyph-name="braceright" unicode="}" horiz-adv-x="689" 
d="M572 1025q37 -13 52.5 -43t15.5 -58q0 -48 -21.5 -75.5t-52.5 -52.5q-55 -44 -89.5 -77t-54 -62.5t-27 -59.5t-7.5 -67q0 -23 13 -42t28.5 -32.5t28.5 -21l13 -7.5q6 -2 6 -9q-2 -8 -6 -8t-14.5 -1t-29 -7t-47.5 -25q-46 -30 -76.5 -81.5t-44.5 -120.5
q-32 -164 -124 -249q-24 -22 -49 -36t-49 -22t-45.5 -11t-39.5 -3q-9 0 -9 9t9 9q54 0 100.5 21t83.5 60.5t64 96.5t41 129q20 100 72 160.5t130 83.5q-29 17 -51 45.5t-22 73.5t15 81t40.5 67.5t59 60.5t69.5 59q24 20 45.5 45.5t21.5 66.5q0 24 -12 49t-41 38l-6 4t-3 5
q0 5 3 6.5t5 1.5q1 0 2 -0.5t2 -0.5h1z" />
    <glyph glyph-name="asciitilde" unicode="~" horiz-adv-x="441" 
d="M387 796q-7 2 -7 9q0 1 0.5 3t0.5 12q0 6 -2.5 17.5t-10.5 23t-23.5 20t-40.5 8.5t-47.5 -14.5t-46.5 -32t-50.5 -32t-58.5 -14.5q-35 0 -51 19t-16 48q0 19 2 29t4 14t4.5 4h4.5q9 0 9 -10v-2q-1 -1 -3.5 -11t-2.5 -24q0 -21 11 -35t38 -14q30 0 54 14.5t47.5 32.5
t47 32.5t52.5 14.5q38 0 58 -14.5t28.5 -31.5t9.5 -31t1 -13q0 -14 -2 -18t-8 -4h-2z" />
    <glyph glyph-name="exclamdown" unicode="&#xa1;" horiz-adv-x="622" 
d="M461 457q4 0 6.5 -3t2.5 -6q0 -2 -0.5 -2.5t-0.5 -1.5q-26 -63 -58.5 -126.5t-68 -123.5t-70.5 -114.5t-66 -98.5q-33 -48 -62.5 -88.5t-52 -69.5t-35.5 -45.5l-13 -16.5q-3 -3 -7 -3q-9 0 -9 9q0 4 2 6l13 16.5t35 45t51.5 68.5t62.5 88q30 44 65 98t70 113.5
t67.5 122.5t58.5 126q4 6 9 6zM471 585q0 23 17 39.5t40 16.5t39.5 -16.5t16.5 -39.5q0 -24 -16.5 -40.5t-39.5 -16.5t-40 16.5t-17 40.5z" />
    <glyph glyph-name="cent" unicode="&#xa2;" horiz-adv-x="819" 
d="M239 -53q-16 0 -35 1t-33 6l-130 -203q-4 -4 -8 -4q-3 0 -6 2.5t-3 6.5t1 5l127 199q-48 17 -70 63t-22 113q0 42 6.5 73.5t10.5 45.5q22 77 60.5 150t87.5 137.5t106.5 118.5t117 92.5t119.5 60t114 21.5h15.5t14.5 -1l127 197q3 4 8 4q4 0 6.5 -3t2.5 -6t-2 -5
l-122 -190q88 -15 88 -88q0 -22 -7 -43.5t-15.5 -39.5t-16 -29.5t-8.5 -12.5q-3 -4 -8 -4q-4 0 -6.5 3t-2.5 6q0 1 2 5l7 11t15.5 27.5t15 36.5t6.5 40q0 61 -80 72l-541 -845l21 -3q10 -2 19 -1.5t18 -0.5q52 0 92 11t69 27t48.5 35t31 35t16.5 26.5t5 9.5q2 5 8 5
q10 0 10 -9q0 -1 -0.5 -1.5t-0.5 -1.5q-2 -3 -17 -27.5t-48 -53t-85.5 -51.5t-128.5 -23zM684 817h-2q-50 -1 -106 -21t-113.5 -56t-113.5 -87.5t-105 -114.5t-88 -136t-62 -153q-6 -21 -11.5 -51.5t-5.5 -63.5q0 -25 4.5 -49.5t14 -45.5t26 -38t40.5 -26l539 841q-4 1 -8 1
h-9z" />
    <glyph glyph-name="sterling" unicode="&#xa3;" horiz-adv-x="1258" 
d="M626 306q-49 -84 -104.5 -155.5t-102.5 -121.5q19 -9 47 -21.5t61 -24.5t68 -20.5t68 -8.5q24 0 45.5 5.5t38.5 19.5q2 2 6 2q3 0 6 -2.5t3 -6.5q0 -5 -3 -6q-22 -17 -46.5 -24t-50.5 -7q-33 0 -67 9t-67 21.5t-64.5 26.5t-58.5 24q-18 -17 -42 -37t-52 -36.5
t-58.5 -27.5t-59.5 -11q-24 0 -44.5 8.5t-35.5 22.5t-23 32t-8 38q0 27 11.5 46.5t28.5 32t37 18t37 5.5q25 0 51.5 -7t53 -17t52 -22.5t48.5 -22.5q48 48 101.5 117t103.5 153l-212 19q-8 2 -8 10q2 8 8 8h2l221 -20q17 28 33 54.5t30 52.5l-226 21q-8 0 -8 9q2 8 8 8h2
l232 -21q53 95 104 177t103.5 142t108.5 94.5t120 34.5q43 0 73.5 -10.5t49.5 -27t27.5 -37t8.5 -41.5q0 -20 -2.5 -30t-5.5 -14.5t-5.5 -5t-3.5 -0.5q-4 0 -6.5 3t-2.5 6q0 2 4 9t4 33q0 19 -9 36.5t-26.5 31t-44 21.5t-60.5 8q-106 0 -210 -113q-33 -36 -61 -75.5
t-53 -80.5t-48 -82.5t-45 -80.5l203 -19q8 0 8 -9q0 -3 -2 -6t-7 -3l-212 20q-14 -28 -29 -53.5t-32 -53.5l214 -20q8 0 8 -10q0 -8 -9 -8h-1zM146 -67q20 -10 45 -10q26 0 53.5 9.5t53.5 24.5t49.5 33t40.5 34q-1 0 -2 1q-71 33 -112.5 48.5t-74.5 15.5q-16 0 -33 -5
t-31 -15.5t-24 -25.5t-11 -34q0 -23 11.5 -43.5t34.5 -32.5z" />
    <glyph glyph-name="dieresis" unicode="&#xa8;" horiz-adv-x="366" 
d="M152 842q0 -23 -15.5 -38.5t-38.5 -15.5t-38.5 15.5t-15.5 38.5t15.5 38.5t38.5 15.5t38.5 -15.5t15.5 -38.5zM314 842q0 -23 -15.5 -38.5t-38.5 -15.5t-38.5 15.5t-15.5 38.5t15.5 38.5t38.5 15.5t38.5 -15.5t15.5 -38.5z" />
    <glyph glyph-name="guillemotleft" unicode="&#xab;" horiz-adv-x="1118" 
d="M380 85q-9 0 -9 8q-3 42 -25 80.5t-53 70.5t-66 58t-64.5 44.5t-48.5 29t-17 11.5q-5 3 -5 9q0 8 10 8q25 -3 52 -3q54 0 105 10t97.5 26.5t87 37t73.5 40.5q40 24 73 48.5t56 43.5t35.5 31.5l12.5 12.5q2 1 3.5 2t3.5 1q8 0 8 -9q0 -3 -2 -7l-13 -12.5t-36.5 -32
t-56.5 -44t-74 -49.5q-94 -57 -187 -87t-184 -29h-17q39 -24 81.5 -56.5t79 -70.5t61.5 -79.5t28 -82.5q0 -10 -9 -10zM745 85q-9 0 -9 8q-3 42 -25 80.5t-53 70.5t-66 58t-64.5 44.5t-48.5 29t-17 11.5q-5 3 -5 9q0 8 10 8q25 -3 52 -3q54 0 105 10t97.5 26.5t87 37
t73.5 40.5q40 24 73 48.5t56 43.5t35.5 31.5l12.5 12.5q2 1 3.5 2t3.5 1q8 0 8 -9q0 -3 -2 -7l-13 -12.5t-36.5 -32t-56.5 -44t-74 -49.5q-94 -57 -187 -87t-184 -29h-17q39 -24 81.5 -56.5t79 -70.5t61.5 -79.5t28 -82.5q0 -10 -9 -10z" />
    <glyph glyph-name="acute" unicode="&#xb4;" horiz-adv-x="505" 
d="M21 809q-7 2 -7 9q0 3 2 6t6 3q17 0 33.5 -2t33.5 -2q103 0 205 34t185 88q4 2 6 2q8 0 8 -9q0 -5 -4 -8q-94 -60 -195 -92.5t-206 -32.5q-17 0 -33.5 1t-33.5 3z" />
    <glyph glyph-name="cedilla" unicode="&#xb8;" horiz-adv-x="270" 
d="M26 -204q-6 1 -6 7q0 10 8 10q2 0 2.5 -0.5t1.5 -0.5q51 -18 89 -18q17 0 35 5.5t32.5 15.5t23.5 24t9 30q0 17 -14 26t-31 14t-31 8.5t-14 9.5q0 2 2 6l57 70q3 3 7 3q3 0 6 -2.5t3 -5.5q0 -2 -2 -6l-47 -59q10 -2 24.5 -6t27 -11.5t21.5 -19.5t9 -28q0 -10 -6 -25.5
t-19.5 -30t-36 -25t-55.5 -10.5q-20 0 -43.5 4t-52.5 15z" />
    <glyph glyph-name="guillemotright" unicode="&#xbb;" horiz-adv-x="1104" 
d="M421 117q-4 0 -6.5 3t-2.5 6t3 6q0 1 14.5 14.5t39.5 34t60.5 45.5t76.5 49.5t87.5 46.5t94.5 37q45 14 89 21.5t88 6.5h17q-38 23 -80.5 55.5t-78.5 70t-61.5 79.5t-28.5 84q0 8 8 10q10 0 10 -9q3 -41 25 -79t52.5 -70.5t65.5 -59t64.5 -45.5t48.5 -29t18 -10
q5 -3 5 -9q0 -3 -3 -5.5t-6 -2.5q-14 0 -26.5 1.5t-26.5 1.5q-79 0 -149 -18.5t-129 -46.5t-107 -60t-82 -60t-53 -46.5t-21 -18.5q-2 -3 -6 -3zM57 117q-4 0 -6.5 3t-2.5 6t3 6q0 1 14.5 14.5t39.5 34t60.5 45.5t76.5 49.5t87.5 46.5t94.5 37q45 14 89 21.5t88 6.5h17
q-38 23 -80.5 55.5t-78.5 70t-61.5 79.5t-28.5 84q0 8 8 10q10 0 10 -9q3 -41 25 -79t52.5 -70.5t65.5 -59t64.5 -45.5t48.5 -29t18 -10q5 -3 5 -9q0 -3 -3 -5.5t-6 -2.5q-14 0 -26.5 1.5t-26.5 1.5q-79 0 -149 -18.5t-129 -46.5t-107 -60t-82 -60t-53 -46.5t-21 -18.5
q-2 -3 -6 -3z" />
    <glyph glyph-name="questiondown" unicode="&#xbf;" horiz-adv-x="706" 
d="M544 495q3 0 6 -2.5t3 -7.5q0 -3 -1 -4l-140 -224h-5q-24 3 -47 3q-80 0 -154 -33t-130 -83t-89.5 -108.5t-33.5 -109.5q0 -25 9.5 -47.5t30 -39.5t51.5 -27t73 -10q46 0 94 16t90.5 46.5t76.5 76t54 104.5q2 7 8 7q9 0 9 -10v-2q-18 -53 -50.5 -100t-76 -81.5
t-95.5 -54.5t-107 -20q-48 0 -83.5 11.5t-58 30.5t-33.5 44.5t-11 52.5q0 55 35 117t93.5 115t134.5 88t158 35q23 0 47 -3l134 215q3 5 8 5zM560 622q0 23 17 39.5t40 16.5t39.5 -16.5t16.5 -39.5q0 -24 -16.5 -40.5t-39.5 -16.5t-40 16.5t-17 40.5z" />
    <glyph glyph-name="Agrave" unicode="&#xc0;" horiz-adv-x="1208" 
d="M1544 980q4 -3 4 -9q0 -7 -8 -7q-4 0 -6 2q-34 23 -70.5 34t-71.5 13q-7 -5 -36 -26t-71 -60t-91 -96.5t-96 -134.5t-87.5 -174t-63.5 -216q41 10 71.5 22.5t50.5 23t30.5 18t11.5 8.5q4 2 6 2q3 0 6 -2t3 -6t-4 -8l-11 -8.5t-33.5 -20t-56 -25t-78.5 -23.5
q-11 -67 -16 -137t-5 -150h-18q0 63 -12 132t-40 139q-22 -2 -43 -3t-44 -1q-71 0 -124 7.5t-91 18.5q-41 -67 -81 -128.5t-83.5 -108.5t-92.5 -75t-108 -28q-39 0 -66 13t-45 33t-28 43.5t-15 44t-6 35.5t-1 17q0 10 9 10t9 -9q0 -20 6.5 -48.5t23 -55.5t44.5 -46t70 -19
q54 0 99.5 26.5t86.5 71.5t80 104.5t81 125.5q-49 20 -70 46t-21 55q0 27 11.5 46.5t31 31.5t44.5 17.5t52 5.5q19 0 38.5 -2t39.5 -8q5 8 11 16.5t12 16.5q80 108 159.5 201t163.5 160.5t174.5 106t192.5 38.5q41 0 85.5 -10t86.5 -40zM460 400q0 -17 7.5 -30t19.5 -23.5
t26.5 -18t29.5 -13.5q25 39 50.5 79.5t54.5 81.5q-32 8 -67 8q-19 0 -40 -3.5t-39 -12.5t-30 -25.5t-12 -42.5zM729 285q28 0 56 0.5t60 3.5q-27 60 -70 109.5t-109 71.5q-29 -40 -54.5 -80.5t-51.5 -80.5q31 -9 72 -15.5t97 -8.5zM907 141q2 38 6.5 73t10.5 68
q-26 -5 -54 -9q14 -32 23 -66.5t14 -65.5zM1143 795q33 45 66 80.5t61.5 62.5t52 45.5t38.5 29.5q-96 -4 -182.5 -42.5t-167 -104t-158 -155.5t-156.5 -198q-5 -7 -10 -13.5t-10 -13.5q70 -26 115 -79t71 -116q17 2 33.5 4.5t31.5 5.5q15 81 38 151.5t51.5 132t60.5 114
t65 96.5zM1441 1078q-49 0 -97.5 9.5t-90 30.5t-73 55t-45.5 82q-7 22 -8 36t-1 15q0 9 9 9h6.5t0.5 -4.5t1.5 -16t8.5 -35.5q16 -48 46.5 -79t70.5 -49.5t85.5 -26t90.5 -7.5h27.5t27.5 2q8 0 10 -8q0 -6 -8 -9t-19 -3.5t-23 -0.5h-19z" />
    <glyph glyph-name="Aacute" unicode="&#xc1;" horiz-adv-x="1208" 
d="M1544 980q4 -3 4 -9q0 -7 -8 -7q-4 0 -6 2q-34 23 -70.5 34t-71.5 13q-7 -5 -36 -26t-71 -60t-91 -96.5t-96 -134.5t-87.5 -174t-63.5 -216q41 10 71.5 22.5t50.5 23t30.5 18t11.5 8.5q4 2 6 2q3 0 6 -2t3 -6t-4 -8l-11 -8.5t-33.5 -20t-56 -25t-78.5 -23.5
q-11 -67 -16 -137t-5 -150h-18q0 63 -12 132t-40 139q-22 -2 -43 -3t-44 -1q-71 0 -124 7.5t-91 18.5q-41 -67 -81 -128.5t-83.5 -108.5t-92.5 -75t-108 -28q-39 0 -66 13t-45 33t-28 43.5t-15 44t-6 35.5t-1 17q0 10 9 10t9 -9q0 -20 6.5 -48.5t23 -55.5t44.5 -46t70 -19
q54 0 99.5 26.5t86.5 71.5t80 104.5t81 125.5q-49 20 -70 46t-21 55q0 27 11.5 46.5t31 31.5t44.5 17.5t52 5.5q19 0 38.5 -2t39.5 -8q5 8 11 16.5t12 16.5q80 108 159.5 201t163.5 160.5t174.5 106t192.5 38.5q41 0 85.5 -10t86.5 -40zM460 400q0 -17 7.5 -30t19.5 -23.5
t26.5 -18t29.5 -13.5q25 39 50.5 79.5t54.5 81.5q-32 8 -67 8q-19 0 -40 -3.5t-39 -12.5t-30 -25.5t-12 -42.5zM729 285q28 0 56 0.5t60 3.5q-27 60 -70 109.5t-109 71.5q-29 -40 -54.5 -80.5t-51.5 -80.5q31 -9 72 -15.5t97 -8.5zM907 141q2 38 6.5 73t10.5 68
q-26 -5 -54 -9q14 -32 23 -66.5t14 -65.5zM1143 795q33 45 66 80.5t61.5 62.5t52 45.5t38.5 29.5q-96 -4 -182.5 -42.5t-167 -104t-158 -155.5t-156.5 -198q-5 -7 -10 -13.5t-10 -13.5q70 -26 115 -79t71 -116q17 2 33.5 4.5t31.5 5.5q15 81 38 151.5t51.5 132t60.5 114
t65 96.5zM1156 1068q-7 2 -7 9q0 3 2 6t6 3q17 0 33.5 -2t33.5 -2q103 0 205 34t185 88q4 2 6 2q8 0 8 -9q0 -5 -4 -8q-94 -60 -195 -92.5t-206 -32.5q-17 0 -33.5 1t-33.5 3z" />
    <glyph glyph-name="Acircumflex" unicode="&#xc2;" horiz-adv-x="1208" 
d="M1544 980q4 -3 4 -9q0 -7 -8 -7q-4 0 -6 2q-34 23 -70.5 34t-71.5 13q-7 -5 -36 -26t-71 -60t-91 -96.5t-96 -134.5t-87.5 -174t-63.5 -216q41 10 71.5 22.5t50.5 23t30.5 18t11.5 8.5q4 2 6 2q3 0 6 -2t3 -6t-4 -8l-11 -8.5t-33.5 -20t-56 -25t-78.5 -23.5
q-11 -67 -16 -137t-5 -150h-18q0 63 -12 132t-40 139q-22 -2 -43 -3t-44 -1q-71 0 -124 7.5t-91 18.5q-41 -67 -81 -128.5t-83.5 -108.5t-92.5 -75t-108 -28q-39 0 -66 13t-45 33t-28 43.5t-15 44t-6 35.5t-1 17q0 10 9 10t9 -9q0 -20 6.5 -48.5t23 -55.5t44.5 -46t70 -19
q54 0 99.5 26.5t86.5 71.5t80 104.5t81 125.5q-49 20 -70 46t-21 55q0 27 11.5 46.5t31 31.5t44.5 17.5t52 5.5q19 0 38.5 -2t39.5 -8q5 8 11 16.5t12 16.5q80 108 159.5 201t163.5 160.5t174.5 106t192.5 38.5q41 0 85.5 -10t86.5 -40zM460 400q0 -17 7.5 -30t19.5 -23.5
t26.5 -18t29.5 -13.5q25 39 50.5 79.5t54.5 81.5q-32 8 -67 8q-19 0 -40 -3.5t-39 -12.5t-30 -25.5t-12 -42.5zM729 285q28 0 56 0.5t60 3.5q-27 60 -70 109.5t-109 71.5q-29 -40 -54.5 -80.5t-51.5 -80.5q31 -9 72 -15.5t97 -8.5zM907 141q2 38 6.5 73t10.5 68
q-26 -5 -54 -9q14 -32 23 -66.5t14 -65.5zM1143 795q33 45 66 80.5t61.5 62.5t52 45.5t38.5 29.5q-96 -4 -182.5 -42.5t-167 -104t-158 -155.5t-156.5 -198q-5 -7 -10 -13.5t-10 -13.5q70 -26 115 -79t71 -116q17 2 33.5 4.5t31.5 5.5q15 81 38 151.5t51.5 132t60.5 114
t65 96.5zM1617 1054q-54 0 -89 37t-39 95q-88 -51 -178.5 -76.5t-178.5 -25.5q-35 0 -54.5 3t-20.5 3q-7 2 -7 9q0 9 9 9h2q8 -2 19 -3q18 -3 52 -3q22 0 58 2.5t83 13.5t102.5 32t116.5 59q1 1 4 1q10 0 10 -9q0 -1 1.5 -21.5t12.5 -44.5q28 -63 97 -63q9 0 9 -9t-9 -9z
" />
    <glyph glyph-name="Atilde" unicode="&#xc3;" horiz-adv-x="1208" 
d="M1544 980q4 -3 4 -9q0 -7 -8 -7q-4 0 -6 2q-34 23 -70.5 34t-71.5 13q-7 -5 -36 -26t-71 -60t-91 -96.5t-96 -134.5t-87.5 -174t-63.5 -216q41 10 71.5 22.5t50.5 23t30.5 18t11.5 8.5q4 2 6 2q3 0 6 -2t3 -6t-4 -8l-11 -8.5t-33.5 -20t-56 -25t-78.5 -23.5
q-11 -67 -16 -137t-5 -150h-18q0 63 -12 132t-40 139q-22 -2 -43 -3t-44 -1q-71 0 -124 7.5t-91 18.5q-41 -67 -81 -128.5t-83.5 -108.5t-92.5 -75t-108 -28q-39 0 -66 13t-45 33t-28 43.5t-15 44t-6 35.5t-1 17q0 10 9 10t9 -9q0 -20 6.5 -48.5t23 -55.5t44.5 -46t70 -19
q54 0 99.5 26.5t86.5 71.5t80 104.5t81 125.5q-49 20 -70 46t-21 55q0 27 11.5 46.5t31 31.5t44.5 17.5t52 5.5q19 0 38.5 -2t39.5 -8q5 8 11 16.5t12 16.5q80 108 159.5 201t163.5 160.5t174.5 106t192.5 38.5q41 0 85.5 -10t86.5 -40zM460 400q0 -17 7.5 -30t19.5 -23.5
t26.5 -18t29.5 -13.5q25 39 50.5 79.5t54.5 81.5q-32 8 -67 8q-19 0 -40 -3.5t-39 -12.5t-30 -25.5t-12 -42.5zM729 285q28 0 56 0.5t60 3.5q-27 60 -70 109.5t-109 71.5q-29 -40 -54.5 -80.5t-51.5 -80.5q31 -9 72 -15.5t97 -8.5zM907 141q2 38 6.5 73t10.5 68
q-26 -5 -54 -9q14 -32 23 -66.5t14 -65.5zM1143 795q33 45 66 80.5t61.5 62.5t52 45.5t38.5 29.5q-96 -4 -182.5 -42.5t-167 -104t-158 -155.5t-156.5 -198q-5 -7 -10 -13.5t-10 -13.5q70 -26 115 -79t71 -116q17 2 33.5 4.5t31.5 5.5q15 81 38 151.5t51.5 132t60.5 114
t65 96.5zM1567 1059q-7 2 -7 9q0 1 0.5 3t0.5 12q0 6 -2.5 17.5t-10.5 23t-23.5 20t-40.5 8.5t-47.5 -14.5t-46.5 -32t-50.5 -32t-58.5 -14.5q-35 0 -51 19t-16 48q0 19 2 29t4 14t4.5 4h4.5q9 0 9 -10v-2q-1 -1 -3.5 -11t-2.5 -24q0 -21 11 -35t38 -14q30 0 54 14.5
t47.5 32.5t47 32.5t52.5 14.5q38 0 58 -14.5t28.5 -31.5t9.5 -31t1 -13q0 -14 -2 -18t-8 -4h-2z" />
    <glyph glyph-name="Adieresis" unicode="&#xc4;" horiz-adv-x="1208" 
d="M1544 980q4 -3 4 -9q0 -7 -8 -7q-4 0 -6 2q-34 23 -70.5 34t-71.5 13q-7 -5 -36 -26t-71 -60t-91 -96.5t-96 -134.5t-87.5 -174t-63.5 -216q41 10 71.5 22.5t50.5 23t30.5 18t11.5 8.5q4 2 6 2q3 0 6 -2t3 -6t-4 -8l-11 -8.5t-33.5 -20t-56 -25t-78.5 -23.5
q-11 -67 -16 -137t-5 -150h-18q0 63 -12 132t-40 139q-22 -2 -43 -3t-44 -1q-71 0 -124 7.5t-91 18.5q-41 -67 -81 -128.5t-83.5 -108.5t-92.5 -75t-108 -28q-39 0 -66 13t-45 33t-28 43.5t-15 44t-6 35.5t-1 17q0 10 9 10t9 -9q0 -20 6.5 -48.5t23 -55.5t44.5 -46t70 -19
q54 0 99.5 26.5t86.5 71.5t80 104.5t81 125.5q-49 20 -70 46t-21 55q0 27 11.5 46.5t31 31.5t44.5 17.5t52 5.5q19 0 38.5 -2t39.5 -8q5 8 11 16.5t12 16.5q80 108 159.5 201t163.5 160.5t174.5 106t192.5 38.5q41 0 85.5 -10t86.5 -40zM460 400q0 -17 7.5 -30t19.5 -23.5
t26.5 -18t29.5 -13.5q25 39 50.5 79.5t54.5 81.5q-32 8 -67 8q-19 0 -40 -3.5t-39 -12.5t-30 -25.5t-12 -42.5zM729 285q28 0 56 0.5t60 3.5q-27 60 -70 109.5t-109 71.5q-29 -40 -54.5 -80.5t-51.5 -80.5q31 -9 72 -15.5t97 -8.5zM907 141q2 38 6.5 73t10.5 68
q-26 -5 -54 -9q14 -32 23 -66.5t14 -65.5zM1143 795q33 45 66 80.5t61.5 62.5t52 45.5t38.5 29.5q-96 -4 -182.5 -42.5t-167 -104t-158 -155.5t-156.5 -198q-5 -7 -10 -13.5t-10 -13.5q70 -26 115 -79t71 -116q17 2 33.5 4.5t31.5 5.5q15 81 38 151.5t51.5 132t60.5 114
t65 96.5zM1346 1120q0 -23 -15.5 -38.5t-38.5 -15.5t-38.5 15.5t-15.5 38.5t15.5 38.5t38.5 15.5t38.5 -15.5t15.5 -38.5zM1508 1120q0 -23 -15.5 -38.5t-38.5 -15.5t-38.5 15.5t-15.5 38.5t15.5 38.5t38.5 15.5t38.5 -15.5t15.5 -38.5z" />
    <glyph glyph-name="Aring" unicode="&#xc5;" horiz-adv-x="1208" 
d="M1544 980q4 -3 4 -9q0 -7 -8 -7q-4 0 -6 2q-34 23 -70.5 34t-71.5 13q-7 -5 -36 -26t-71 -60t-91 -96.5t-96 -134.5t-87.5 -174t-63.5 -216q41 10 71.5 22.5t50.5 23t30.5 18t11.5 8.5q4 2 6 2q3 0 6 -2t3 -6t-4 -8l-11 -8.5t-33.5 -20t-56 -25t-78.5 -23.5
q-11 -67 -16 -137t-5 -150h-18q0 63 -12 132t-40 139q-22 -2 -43 -3t-44 -1q-71 0 -124 7.5t-91 18.5q-41 -67 -81 -128.5t-83.5 -108.5t-92.5 -75t-108 -28q-39 0 -66 13t-45 33t-28 43.5t-15 44t-6 35.5t-1 17q0 10 9 10t9 -9q0 -20 6.5 -48.5t23 -55.5t44.5 -46t70 -19
q54 0 99.5 26.5t86.5 71.5t80 104.5t81 125.5q-49 20 -70 46t-21 55q0 27 11.5 46.5t31 31.5t44.5 17.5t52 5.5q19 0 38.5 -2t39.5 -8q5 8 11 16.5t12 16.5q80 108 159.5 201t163.5 160.5t174.5 106t192.5 38.5q41 0 85.5 -10t86.5 -40zM460 400q0 -17 7.5 -30t19.5 -23.5
t26.5 -18t29.5 -13.5q25 39 50.5 79.5t54.5 81.5q-32 8 -67 8q-19 0 -40 -3.5t-39 -12.5t-30 -25.5t-12 -42.5zM729 285q28 0 56 0.5t60 3.5q-27 60 -70 109.5t-109 71.5q-29 -40 -54.5 -80.5t-51.5 -80.5q31 -9 72 -15.5t97 -8.5zM907 141q2 38 6.5 73t10.5 68
q-26 -5 -54 -9q14 -32 23 -66.5t14 -65.5zM1143 795q33 45 66 80.5t61.5 62.5t52 45.5t38.5 29.5q-96 -4 -182.5 -42.5t-167 -104t-158 -155.5t-156.5 -198q-5 -7 -10 -13.5t-10 -13.5q70 -26 115 -79t71 -116q17 2 33.5 4.5t31.5 5.5q15 81 38 151.5t51.5 132t60.5 114
t65 96.5zM1400 1052q-25 0 -47 9.5t-38.5 26t-26 38.5t-9.5 47t9.5 47t26 38.5t38.5 26t47 9.5t47 -9.5t38.5 -26t26 -38.5t9.5 -47t-9.5 -47t-26 -38.5t-38.5 -26t-47 -9.5zM1400 1276q-21 0 -40 -8t-33 -22t-22 -33t-8 -40t8 -40t22 -33t33 -22t40 -8t40 8t33 22t22 33
t8 40t-8 40t-22 33t-33 22t-40 8z" />
    <glyph glyph-name="AE" unicode="&#xc6;" horiz-adv-x="1762" 
d="M1265 0q-54 2 -102 19t-84 47.5t-57 74.5t-21 101q0 50 11.5 90t29 70.5t37.5 53t37 36.5q38 32 77.5 52.5t84.5 29.5q-16 44 -16 93q0 46 15 90q-12 12 -25.5 28.5t-25 37t-19 42.5t-7.5 44q0 7 8 9q8 0 10 -8q8 -44 24.5 -75.5t41.5 -59.5q26 66 68 105.5t82 60.5
q47 25 98 35q24 3 48 3q28 0 55 -7t48 -22t34 -38.5t13 -55.5q0 -43 -22.5 -76.5t-57.5 -57t-77.5 -36t-81.5 -12.5q-58 2 -107 18t-92 51q-12 -41 -12 -81q0 -45 17 -85q15 3 29.5 4t28.5 1q15 0 34.5 -2t37 -8t29.5 -17t12 -30q0 -23 -16 -32.5t-36 -9.5q-48 0 -81.5 23.5
t-47.5 50.5q-61 -12 -110.5 -42t-84 -72t-53.5 -94t-19 -108t22 -98t57.5 -70t79 -41.5t86.5 -13.5q58 0 112.5 15t102 43t85.5 69t64 94q1 6 8 6q10 0 10 -10q0 -1 -0.5 -1.5t-0.5 -1.5q-58 -112 -157 -172t-224 -60zM1449 516q1 3 1 9q0 16 -13 24t-29 11.5t-30.5 4
t-16.5 0.5q-17 0 -30.5 -1.5t-24.5 -3.5q17 -27 48 -43.5t60 -16.5q26 0 35 16zM1491 692q42 1 82 13t70.5 33.5t49.5 51.5t19 68q0 51 -36 76.5t-99 25.5q-48 0 -92 -16t-80 -43t-63.5 -63t-43.5 -76q40 -37 91 -53.5t102 -16.5zM1565 980q4 -3 4 -9q0 -7 -8 -7q-4 0 -6 2
q-34 23 -70.5 34t-71.5 13q-7 -5 -36 -26t-71 -60t-91 -96.5t-96 -134.5t-87.5 -174t-63.5 -216q41 10 71.5 22.5t50.5 23t30.5 18t11.5 8.5q4 2 6 2q3 0 6 -2t3 -6t-4 -8l-11 -8.5t-33.5 -20t-56 -25t-78.5 -23.5q-11 -67 -16 -137t-5 -150h-18q0 63 -12 132t-40 139
q-22 -2 -43 -3t-44 -1q-71 0 -124 7.5t-91 18.5q-41 -67 -81 -128.5t-83.5 -108.5t-92.5 -75t-108 -28q-39 0 -66 13t-45 33t-28 43.5t-15 44t-6 35.5t-1 17q0 10 9 10t9 -9q0 -20 6.5 -48.5t23 -55.5t44.5 -46t70 -19q54 0 99.5 26.5t86.5 71.5t80 104.5t81 125.5
q-49 20 -70 46t-21 55q0 27 11.5 46.5t31 31.5t44.5 17.5t52 5.5q19 0 38.5 -2t39.5 -8q5 8 11 16.5t12 16.5q80 108 159.5 201t163.5 160.5t174.5 106t192.5 38.5q41 0 85.5 -10t86.5 -40zM481 400q0 -17 7.5 -30t19.5 -23.5t26.5 -18t29.5 -13.5q25 39 50.5 79.5
t54.5 81.5q-32 8 -67 8q-19 0 -40 -3.5t-39 -12.5t-30 -25.5t-12 -42.5zM751 286q8 0 16.5 -0.5t17.5 -0.5q18 0 37.5 1t43.5 3q-27 60 -70 109.5t-109 71.5q-29 -40 -54.5 -80.5t-51.5 -80.5q31 -9 72.5 -15t97.5 -8zM928 141q2 38 6.5 73t10.5 68q-26 -5 -54 -9
q14 -32 23 -66.5t14 -65.5zM1164 795q33 45 66 80.5t61.5 62.5t52 45.5t38.5 29.5q-96 -4 -182.5 -42.5t-167 -104t-158 -155.5t-156.5 -198q-5 -7 -10 -13.5t-10 -13.5q70 -26 115 -79t71 -116q17 2 33.5 4.5t31.5 5.5q15 81 38 151.5t51.5 132t60.5 114t65 96.5z" />
    <glyph glyph-name="Ccedilla" unicode="&#xc7;" horiz-adv-x="738" 
d="M163 -14q-32 12 -55 33.5t-38 49t-22 58.5t-7 63q0 74 34 154.5t90 159t129 151t150 129.5q-7 10 -15 23t-14.5 28t-10.5 30.5t-4 30.5q0 8 9 8q5 0 6 -3l2 -6q5 -27 15.5 -53t26.5 -47q47 34 95 62t94 47t88.5 29.5t77.5 10.5q60 0 86 -27t26 -67q0 -24 -8 -46t-20 -38
q-3 -4 -16.5 -20t-39.5 -34t-64.5 -32.5t-90.5 -14.5q-44 0 -81 9.5t-66 24.5t-50.5 33.5t-34.5 37.5q-76 -59 -147.5 -130t-126.5 -147t-88.5 -153.5t-33.5 -149.5q1 -43 14 -80t38 -64.5t61.5 -43t85.5 -15.5q45 2 80.5 11t73.5 32q21 12 45 30t50 43t53.5 58t55.5 76
q3 4 8 4q9 0 9 -9q0 -3 -2 -5q-57 -88 -111.5 -138t-98.5 -75q-41 -23 -81 -34t-82 -11q-21 0 -45.5 3.5t-49.5 13.5zM516 735q29 -22 73 -37t98 -15q50 0 87 14t61 31.5t36 32t13 15.5q10 14 17 34t7 40q0 14 -4 28t-14.5 24.5t-29 17t-46.5 6.5q-33 0 -73.5 -10t-85 -29
t-92 -46t-94.5 -61q10 -12 21.5 -23t25.5 -22zM22 -221q-6 1 -6 7q0 10 8 10q2 0 2.5 -0.5t1.5 -0.5q51 -18 89 -18q17 0 35 5.5t32.5 15.5t23.5 24t9 30q0 17 -14 26t-31 14t-31 8.5t-14 9.5q0 2 2 6l57 70q3 3 7 3q3 0 6 -2.5t3 -5.5q0 -2 -2 -6l-47 -59q10 -2 24.5 -6
t27 -11.5t21.5 -19.5t9 -28q0 -10 -6 -25.5t-19.5 -30t-36 -25t-55.5 -10.5q-20 0 -43.5 4t-52.5 15z" />
    <glyph glyph-name="Egrave" unicode="&#xc8;" horiz-adv-x="847" 
d="M368 -14q-54 2 -102 19t-84 47.5t-57 74.5t-21 101q0 50 11.5 90t29 70.5t37.5 53t37 36.5q38 32 77.5 52.5t84.5 29.5q-16 44 -16 93q0 46 15 90q-12 12 -25.5 28.5t-25 37t-19 42.5t-7.5 44q0 7 8 9q8 0 10 -8q8 -44 24.5 -75.5t41.5 -59.5q17 43 42 75t52.5 54.5
t54.5 36.5t49 21.5t36 10.5l14 3q24 3 48 3q28 0 55 -7t48 -22t34 -38.5t13 -55.5q0 -43 -22.5 -76.5t-57.5 -57t-77.5 -36t-81.5 -12.5q-58 2 -107 18t-92 51q-12 -41 -12 -81q0 -45 17 -85q15 3 29.5 4t28.5 1q15 0 34.5 -2t37 -8t29.5 -17t12 -30q0 -23 -16 -32.5
t-36 -9.5q-48 0 -81.5 23.5t-47.5 50.5q-60 -12 -109.5 -42t-84.5 -72t-54 -94t-19 -108t22 -98t57.5 -70t79 -41.5t86.5 -13.5q58 0 112.5 15t102 43t85.5 69t64 94q1 6 8 6q10 0 10 -10q0 -1 -0.5 -1.5t-0.5 -1.5q-58 -112 -157 -172t-224 -60zM552 502q1 3 1 9
q0 16 -13 24t-29 11.5t-30.5 4t-16.5 0.5q-17 0 -30.5 -1.5t-24.5 -3.5q17 -27 48 -43.5t60 -16.5q26 0 35 16zM594 678q42 1 82 13t70.5 33.5t49.5 51.5t19 68q0 51 -36 76.5t-99 25.5q-46 0 -89 -15t-79.5 -41.5t-65 -62.5t-45.5 -79q40 -37 91 -53.5t102 -16.5zM811 1029
q-49 0 -97.5 9.5t-90 30.5t-73 55t-45.5 82q-7 22 -8 36t-1 15q0 9 9 9h6.5t0.5 -4.5t1.5 -16t8.5 -35.5q16 -48 46.5 -79t70.5 -49.5t85.5 -26t90.5 -7.5h27.5t27.5 2q8 0 10 -8q0 -6 -8 -9t-19 -3.5t-23 -0.5h-19z" />
    <glyph glyph-name="Eacute" unicode="&#xc9;" horiz-adv-x="847" 
d="M368 -14q-54 2 -102 19t-84 47.5t-57 74.5t-21 101q0 50 11.5 90t29 70.5t37.5 53t37 36.5q38 32 77.5 52.5t84.5 29.5q-16 44 -16 93q0 46 15 90q-12 12 -25.5 28.5t-25 37t-19 42.5t-7.5 44q0 7 8 9q8 0 10 -8q8 -44 24.5 -75.5t41.5 -59.5q17 43 42 75t52.5 54.5
t54.5 36.5t49 21.5t36 10.5l14 3q24 3 48 3q28 0 55 -7t48 -22t34 -38.5t13 -55.5q0 -43 -22.5 -76.5t-57.5 -57t-77.5 -36t-81.5 -12.5q-58 2 -107 18t-92 51q-12 -41 -12 -81q0 -45 17 -85q15 3 29.5 4t28.5 1q15 0 34.5 -2t37 -8t29.5 -17t12 -30q0 -23 -16 -32.5
t-36 -9.5q-48 0 -81.5 23.5t-47.5 50.5q-60 -12 -109.5 -42t-84.5 -72t-54 -94t-19 -108t22 -98t57.5 -70t79 -41.5t86.5 -13.5q58 0 112.5 15t102 43t85.5 69t64 94q1 6 8 6q10 0 10 -10q0 -1 -0.5 -1.5t-0.5 -1.5q-58 -112 -157 -172t-224 -60zM552 502q1 3 1 9
q0 16 -13 24t-29 11.5t-30.5 4t-16.5 0.5q-17 0 -30.5 -1.5t-24.5 -3.5q17 -27 48 -43.5t60 -16.5q26 0 35 16zM594 678q42 1 82 13t70.5 33.5t49.5 51.5t19 68q0 51 -36 76.5t-99 25.5q-46 0 -89 -15t-79.5 -41.5t-65 -62.5t-45.5 -79q40 -37 91 -53.5t102 -16.5zM538 1029
q-7 2 -7 9q0 3 2 6t6 3q17 0 33.5 -2t33.5 -2q103 0 205 34t185 88q4 2 6 2q8 0 8 -9q0 -5 -4 -8q-94 -60 -195 -92.5t-206 -32.5q-17 0 -33.5 1t-33.5 3z" />
    <glyph glyph-name="Ecircumflex" unicode="&#xca;" horiz-adv-x="847" 
d="M368 -14q-54 2 -102 19t-84 47.5t-57 74.5t-21 101q0 50 11.5 90t29 70.5t37.5 53t37 36.5q38 32 77.5 52.5t84.5 29.5q-16 44 -16 93q0 46 15 90q-12 12 -25.5 28.5t-25 37t-19 42.5t-7.5 44q0 7 8 9q8 0 10 -8q8 -44 24.5 -75.5t41.5 -59.5q17 43 42 75t52.5 54.5
t54.5 36.5t49 21.5t36 10.5l14 3q24 3 48 3q28 0 55 -7t48 -22t34 -38.5t13 -55.5q0 -43 -22.5 -76.5t-57.5 -57t-77.5 -36t-81.5 -12.5q-58 2 -107 18t-92 51q-12 -41 -12 -81q0 -45 17 -85q15 3 29.5 4t28.5 1q15 0 34.5 -2t37 -8t29.5 -17t12 -30q0 -23 -16 -32.5
t-36 -9.5q-48 0 -81.5 23.5t-47.5 50.5q-60 -12 -109.5 -42t-84.5 -72t-54 -94t-19 -108t22 -98t57.5 -70t79 -41.5t86.5 -13.5q58 0 112.5 15t102 43t85.5 69t64 94q1 6 8 6q10 0 10 -10q0 -1 -0.5 -1.5t-0.5 -1.5q-58 -112 -157 -172t-224 -60zM552 502q1 3 1 9
q0 16 -13 24t-29 11.5t-30.5 4t-16.5 0.5q-17 0 -30.5 -1.5t-24.5 -3.5q17 -27 48 -43.5t60 -16.5q26 0 35 16zM594 678q42 1 82 13t70.5 33.5t49.5 51.5t19 68q0 51 -36 76.5t-99 25.5q-46 0 -89 -15t-79.5 -41.5t-65 -62.5t-45.5 -79q40 -37 91 -53.5t102 -16.5zM977 974
q-54 0 -89 37t-39 95q-88 -51 -178.5 -76.5t-178.5 -25.5q-35 0 -54.5 3t-20.5 3q-7 2 -7 9q0 9 9 9h2q8 -2 19 -3q18 -3 52 -3q22 0 58 2.5t83 13.5t102.5 32t116.5 59q1 1 4 1q10 0 10 -9q0 -1 1.5 -21.5t12.5 -44.5q28 -63 97 -63q9 0 9 -9t-9 -9z" />
    <glyph glyph-name="Edieresis" unicode="&#xcb;" horiz-adv-x="847" 
d="M368 -14q-54 2 -102 19t-84 47.5t-57 74.5t-21 101q0 50 11.5 90t29 70.5t37.5 53t37 36.5q38 32 77.5 52.5t84.5 29.5q-16 44 -16 93q0 46 15 90q-12 12 -25.5 28.5t-25 37t-19 42.5t-7.5 44q0 7 8 9q8 0 10 -8q8 -44 24.5 -75.5t41.5 -59.5q17 43 42 75t52.5 54.5
t54.5 36.5t49 21.5t36 10.5l14 3q24 3 48 3q28 0 55 -7t48 -22t34 -38.5t13 -55.5q0 -43 -22.5 -76.5t-57.5 -57t-77.5 -36t-81.5 -12.5q-58 2 -107 18t-92 51q-12 -41 -12 -81q0 -45 17 -85q15 3 29.5 4t28.5 1q15 0 34.5 -2t37 -8t29.5 -17t12 -30q0 -23 -16 -32.5
t-36 -9.5q-48 0 -81.5 23.5t-47.5 50.5q-60 -12 -109.5 -42t-84.5 -72t-54 -94t-19 -108t22 -98t57.5 -70t79 -41.5t86.5 -13.5q58 0 112.5 15t102 43t85.5 69t64 94q1 6 8 6q10 0 10 -10q0 -1 -0.5 -1.5t-0.5 -1.5q-58 -112 -157 -172t-224 -60zM552 502q1 3 1 9
q0 16 -13 24t-29 11.5t-30.5 4t-16.5 0.5q-17 0 -30.5 -1.5t-24.5 -3.5q17 -27 48 -43.5t60 -16.5q26 0 35 16zM594 678q42 1 82 13t70.5 33.5t49.5 51.5t19 68q0 51 -36 76.5t-99 25.5q-46 0 -89 -15t-79.5 -41.5t-65 -62.5t-45.5 -79q40 -37 91 -53.5t102 -16.5zM675 1042
q0 -23 -15.5 -38.5t-38.5 -15.5t-38.5 15.5t-15.5 38.5t15.5 38.5t38.5 15.5t38.5 -15.5t15.5 -38.5zM837 1042q0 -23 -15.5 -38.5t-38.5 -15.5t-38.5 15.5t-15.5 38.5t15.5 38.5t38.5 15.5t38.5 -15.5t15.5 -38.5z" />
    <glyph glyph-name="Igrave" unicode="&#xcc;" 
d="M90 -119q-27 0 -51.5 6.5t-44 21t-31 38t-11.5 56.5v15t1.5 17.5t4.5 14.5t9 6q10 0 10 -10q0 -11 -2.5 -22t-2.5 -21q0 -30 10.5 -49.5t27.5 -31t38 -16.5t41 -5q49 0 95 26.5t94.5 75.5t102 119t117.5 157q55 72 107 147t103.5 144.5t103.5 129.5t108 104
q-31 11 -73 22t-87 11q-19 0 -37.5 -2.5t-36.5 -8.5q-1 -1 -3 -1q-10 0 -10 11q0 6 11 10.5t26 7t30 3.5t23 1q45 0 88.5 -12t86.5 -26q66 50 130.5 77t136.5 27q15 0 33.5 -2.5t34.5 -10.5t27 -22.5t11 -37.5q0 -17 -6 -34.5t-21 -32t-39 -24t-60 -9.5q-25 0 -51 3t-55 8.5
t-62.5 14t-74.5 20.5q-56 -45 -109 -106t-105.5 -130.5t-105.5 -145t-108 -148.5q-66 -89 -120.5 -160.5t-105 -121.5t-98.5 -77t-100 -27zM962 812q75 -23 127.5 -32t100.5 -9q42 0 71.5 22t29.5 56q0 18 -8 28.5t-20.5 16.5t-27 8t-27.5 2q-69 0 -130.5 -25t-115.5 -67z
M1218 956q-49 0 -97.5 9.5t-90 30.5t-73 55t-45.5 82q-7 22 -8 36t-1 15q0 9 9 9h6.5t0.5 -4.5t1.5 -16t8.5 -35.5q16 -48 46.5 -79t70.5 -49.5t85.5 -26t90.5 -7.5h27.5t27.5 2q8 0 10 -8q0 -6 -8 -9t-19 -3.5t-23 -0.5h-19z" />
    <glyph glyph-name="Iacute" unicode="&#xcd;" 
d="M90 -119q-27 0 -51.5 6.5t-44 21t-31 38t-11.5 56.5v15t1.5 17.5t4.5 14.5t9 6q10 0 10 -10q0 -11 -2.5 -22t-2.5 -21q0 -30 10.5 -49.5t27.5 -31t38 -16.5t41 -5q49 0 95 26.5t94.5 75.5t102 119t117.5 157q55 72 107 147t103.5 144.5t103.5 129.5t108 104
q-31 11 -73 22t-87 11q-19 0 -37.5 -2.5t-36.5 -8.5q-1 -1 -3 -1q-10 0 -10 11q0 6 11 10.5t26 7t30 3.5t23 1q45 0 88.5 -12t86.5 -26q66 50 130.5 77t136.5 27q15 0 33.5 -2.5t34.5 -10.5t27 -22.5t11 -37.5q0 -17 -6 -34.5t-21 -32t-39 -24t-60 -9.5q-25 0 -51 3t-55 8.5
t-62.5 14t-74.5 20.5q-56 -45 -109 -106t-105.5 -130.5t-105.5 -145t-108 -148.5q-66 -89 -120.5 -160.5t-105 -121.5t-98.5 -77t-100 -27zM962 812q75 -23 127.5 -32t100.5 -9q42 0 71.5 22t29.5 56q0 18 -8 28.5t-20.5 16.5t-27 8t-27.5 2q-69 0 -130.5 -25t-115.5 -67z
M932 970q-7 2 -7 9q0 3 2 6t6 3q17 0 33.5 -2t33.5 -2q103 0 205 34t185 88q4 2 6 2q8 0 8 -9q0 -5 -4 -8q-94 -60 -195 -92.5t-206 -32.5q-17 0 -33.5 1t-33.5 3z" />
    <glyph glyph-name="Icircumflex" unicode="&#xce;" 
d="M90 -119q-27 0 -51.5 6.5t-44 21t-31 38t-11.5 56.5v15t1.5 17.5t4.5 14.5t9 6q10 0 10 -10q0 -11 -2.5 -22t-2.5 -21q0 -30 10.5 -49.5t27.5 -31t38 -16.5t41 -5q49 0 95 26.5t94.5 75.5t102 119t117.5 157q55 72 107 147t103.5 144.5t103.5 129.5t108 104
q-31 11 -73 22t-87 11q-19 0 -37.5 -2.5t-36.5 -8.5q-1 -1 -3 -1q-10 0 -10 11q0 6 11 10.5t26 7t30 3.5t23 1q45 0 88.5 -12t86.5 -26q66 50 130.5 77t136.5 27q15 0 33.5 -2.5t34.5 -10.5t27 -22.5t11 -37.5q0 -17 -6 -34.5t-21 -32t-39 -24t-60 -9.5q-25 0 -51 3t-55 8.5
t-62.5 14t-74.5 20.5q-56 -45 -109 -106t-105.5 -130.5t-105.5 -145t-108 -148.5q-66 -89 -120.5 -160.5t-105 -121.5t-98.5 -77t-100 -27zM962 812q75 -23 127.5 -32t100.5 -9q42 0 71.5 22t29.5 56q0 18 -8 28.5t-20.5 16.5t-27 8t-27.5 2q-69 0 -130.5 -25t-115.5 -67z
M1449 905q-54 0 -89 37t-39 95q-88 -51 -178.5 -76.5t-178.5 -25.5q-35 0 -54.5 3t-20.5 3q-7 2 -7 9q0 9 9 9h2q8 -2 19 -3q18 -3 52 -3q22 0 58 2.5t83 13.5t102.5 32t116.5 59q1 1 4 1q10 0 10 -9q0 -1 1.5 -21.5t12.5 -44.5q28 -63 97 -63q9 0 9 -9t-9 -9z" />
    <glyph glyph-name="Idieresis" unicode="&#xcf;" 
d="M90 -119q-27 0 -51.5 6.5t-44 21t-31 38t-11.5 56.5v15t1.5 17.5t4.5 14.5t9 6q10 0 10 -10q0 -11 -2.5 -22t-2.5 -21q0 -30 10.5 -49.5t27.5 -31t38 -16.5t41 -5q49 0 95 26.5t94.5 75.5t102 119t117.5 157q55 72 107 147t103.5 144.5t103.5 129.5t108 104
q-31 11 -73 22t-87 11q-19 0 -37.5 -2.5t-36.5 -8.5q-1 -1 -3 -1q-10 0 -10 11q0 6 11 10.5t26 7t30 3.5t23 1q45 0 88.5 -12t86.5 -26q66 50 130.5 77t136.5 27q15 0 33.5 -2.5t34.5 -10.5t27 -22.5t11 -37.5q0 -17 -6 -34.5t-21 -32t-39 -24t-60 -9.5q-25 0 -51 3t-55 8.5
t-62.5 14t-74.5 20.5q-56 -45 -109 -106t-105.5 -130.5t-105.5 -145t-108 -148.5q-66 -89 -120.5 -160.5t-105 -121.5t-98.5 -77t-100 -27zM962 812q75 -23 127.5 -32t100.5 -9q42 0 71.5 22t29.5 56q0 18 -8 28.5t-20.5 16.5t-27 8t-27.5 2q-69 0 -130.5 -25t-115.5 -67z
M1162 988q0 -23 -15.5 -38.5t-38.5 -15.5t-38.5 15.5t-15.5 38.5t15.5 38.5t38.5 15.5t38.5 -15.5t15.5 -38.5zM1324 988q0 -23 -15.5 -38.5t-38.5 -15.5t-38.5 15.5t-15.5 38.5t15.5 38.5t38.5 15.5t38.5 -15.5t15.5 -38.5z" />
    <glyph glyph-name="Eth" unicode="&#xd0;" horiz-adv-x="1008" 
d="M1164 873q0 -1 0.5 -2t0.5 -2q0 -9 -9 -9q-7 0 -8 6q-11 24 -29 40t-41 26t-49.5 14t-53.5 4q-70 0 -131 -22t-112 -60q61 -27 102 -66t66.5 -86t36.5 -99t11 -104q0 -49 -10 -108t-31 -118.5t-53.5 -116t-77.5 -100t-103 -70t-130 -26.5q-35 0 -71.5 10t-66.5 31
t-49.5 54t-19.5 80q0 20 6 41.5t21 39.5t39.5 29.5t60.5 11.5q3 0 23.5 -2t44 -6.5t43 -11.5t19.5 -17q0 -3 -3 -6t-7 -3q-2 0 -3 1q-37 15 -65.5 21t-51.5 6q-30 0 -51 -9.5t-33.5 -24.5t-18.5 -34t-6 -39q0 -39 17.5 -68t44.5 -48t60.5 -28.5t66.5 -9.5q64 0 117.5 23
t96.5 62t75.5 90.5t54 109.5t32.5 118.5t11 117.5q0 52 -11 102.5t-36 95t-66 82t-102 63.5q-61 -47 -113.5 -109.5t-102.5 -136.5q48 0 93 13t87 43q7 5 18.5 15.5t23.5 21.5t21.5 19t12.5 8q9 0 9 -9q0 1 0.5 -0.5t-4.5 -9t-20.5 -21.5t-46.5 -36q-41 -29 -87 -45.5
t-96 -16.5h-11.5t-11.5 1q-22 -32 -44 -66t-43 -68q-41 -65 -76 -129t-67.5 -122.5t-64.5 -108t-66.5 -86t-74 -57t-86.5 -20.5q-19 0 -39.5 7t-38 19.5t-28.5 29t-11 35.5q0 9 9 9q7 0 9 -6q8 -36 36 -56t63 -20q66 0 116 43t97 115t95.5 164.5t111.5 191.5q20 32 41 64
t41 64q-32 5 -59.5 17.5t-48 31t-32.5 42t-12 50.5q0 40 27 80q35 53 87 74t111 21q44 0 87.5 -9.5t84.5 -25.5q59 42 123 66.5t140 24.5q27 0 55.5 -4.5t54 -15t46.5 -29t33 -46.5zM571 737q29 36 60 68t65 59q-36 13 -76.5 21.5t-80.5 8.5q-37 0 -73.5 -11.5t-66 -32.5
t-47.5 -49t-18 -61q0 -46 39.5 -81t105.5 -46q45 68 92 124zM96 270q-2 -1 -4 -1q-4 0 -6.5 3t-2.5 6q0 5 5 8l548 256q1 1 4 1q9 0 9 -10q0 -4 -5 -7z" />
    <glyph glyph-name="Ntilde" unicode="&#xd1;" horiz-adv-x="921" 
d="M-324 -16q-19 23 -26.5 50t-7.5 55q0 12 2.5 31t7.5 37.5t12 32t15 13.5q9 0 9 -10q0 -3 -1 -4q-14 -20 -20.5 -46t-6.5 -54q0 -36 11.5 -61.5t30.5 -42t43.5 -24t50.5 -7.5q115 0 238 104t269 302q50 67 101.5 135t102.5 130.5t100.5 117t95.5 94.5t88 63t77 23
q19 0 30.5 -8.5t11.5 -25.5q0 -13 -17.5 -48.5t-44.5 -86.5t-60 -114.5t-64 -132.5q-26 -56 -49.5 -115.5t-41.5 -118t-28.5 -114.5t-10.5 -105q0 -10 1 -21t4.5 -20.5t9.5 -15.5t15 -6q25 0 53.5 42t66 111t87.5 159t118 186q74 105 141 175.5t118 114t83 63t36 21.5
q2 2 12.5 8t26.5 15q-26 33 -36 56.5t-11 27.5v2q0 3 2.5 6t7.5 3q2 0 9 -11.5t15 -26.5t16 -29t13 -19q19 9 41 19t45.5 18.5t48.5 14t51 5.5q51 0 78.5 -21.5t27.5 -56.5q0 -23 -10.5 -38.5t-26 -25t-34 -13.5t-34.5 -4q-56 0 -105.5 20.5t-85.5 58.5q-27 -15 -66.5 -38.5
t-91 -67t-116 -112.5t-140.5 -176q-73 -102 -124 -194t-89 -161t-67.5 -109.5t-59.5 -40.5q-17 0 -26.5 10t-14.5 24t-6 30t-1 28q2 68 21 144t47.5 153t63 152t67.5 140.5t61.5 118t45.5 85.5q10 17 10 29q0 18 -24 18q-47 0 -111 -48.5t-136.5 -127.5t-150 -178
t-152.5 -201q-74 -99 -141 -176.5t-131 -130.5t-126 -80t-124 -27q-36 0 -67 11t-53 37zM1569 811q15 0 30.5 3t28 10.5t20 19.5t7.5 30q0 29 -25.5 44.5t-61.5 15.5q-23 0 -46 -5t-45.5 -13t-43.5 -17t-39 -18q40 -38 84 -54t91 -16zM1413 996q-7 2 -7 9q0 1 0.5 3t0.5 12
q0 6 -2.5 17.5t-10.5 23t-23.5 20t-40.5 8.5t-47.5 -14.5t-46.5 -32t-50.5 -32t-58.5 -14.5q-35 0 -51 19t-16 48q0 19 2 29t4 14t4.5 4h4.5q9 0 9 -10v-2q-1 -1 -3.5 -11t-2.5 -24q0 -21 11 -35t38 -14q30 0 54 14.5t47.5 32.5t47 32.5t52.5 14.5q38 0 58 -14.5t28.5 -31.5
t9.5 -31t1 -13q0 -14 -2 -18t-8 -4h-2z" />
    <glyph glyph-name="Ograve" unicode="&#xd2;" horiz-adv-x="951" 
d="M264 -35q-65 4 -112.5 25t-79 54.5t-47 77.5t-15.5 96q0 63 20 125t51.5 119t71.5 107.5t79 90.5q117 118 241 181.5t238 64.5h23.5t20.5 -7q41 17 81 17q75 0 125 -42t70 -113q1 -3 1.5 -5.5t0.5 -5.5q64 -8 104 -39.5t40 -89.5q0 -23 -8.5 -48.5t-29 -48.5t-55.5 -39.5
t-88 -21.5q-29 -64 -72.5 -125.5t-98 -117t-118 -102.5t-133 -81t-142 -53.5t-144.5 -19.5h-12t-12 1zM265 -17h16q77 0 148 19t134 49.5t118 70t100 81.5q63 58 113 124t82 135q-48 0 -93 9.5t-84.5 26.5t-71.5 41t-53 54q-21 -22 -40 -48t-36 -58q-2 -5 -7 -5
q-10 0 -10 10q0 3 1 4q18 34 38.5 62t42.5 51q-17 28 -25 58t-8 59q2 56 28 96t72 66h-29q-59 0 -120.5 -21t-121.5 -54.5t-114.5 -77t-99.5 -88.5q-39 -39 -77.5 -88.5t-69.5 -105t-50 -115.5t-19 -121q0 -102 60 -165t176 -69zM722 565q19 -18 46.5 -33.5t60 -27t68 -18
t70.5 -6.5h8.5t8.5 1q19 44 30.5 88t11.5 89q0 11 -1 31t-6 44h-11q-86 0 -168 -29t-154 -98q16 -22 36 -41zM1044 657q-2 -51 -13 -93t-27 -82q32 2 60 13.5t49 30.5t33.5 43t12.5 52q-1 31 -12.5 51t-29 32.5t-39 18.5t-41.5 9q5 -24 6 -43.5t1 -30.5v-1zM648 726
q0 -26 7 -52.5t22 -51.5q40 38 82.5 63t85.5 39.5t86 20.5t84 6q-20 72 -66.5 109.5t-112.5 37.5q-37 -1 -71 -14t-60 -35.5t-41.5 -53.5t-15.5 -69zM948 961q-49 0 -97.5 9.5t-90 30.5t-73 55t-45.5 82q-7 22 -8 36t-1 15q0 9 9 9h6.5t0.5 -4.5t1.5 -16t8.5 -35.5
q16 -48 46.5 -79t70.5 -49.5t85.5 -26t90.5 -7.5h27.5t27.5 2q8 0 10 -8q0 -6 -8 -9t-19 -3.5t-23 -0.5h-19z" />
    <glyph glyph-name="Oacute" unicode="&#xd3;" horiz-adv-x="951" 
d="M264 -35q-65 4 -112.5 25t-79 54.5t-47 77.5t-15.5 96q0 63 20 125t51.5 119t71.5 107.5t79 90.5q117 118 241 181.5t238 64.5h23.5t20.5 -7q41 17 81 17q75 0 125 -42t70 -113q1 -3 1.5 -5.5t0.5 -5.5q64 -8 104 -39.5t40 -89.5q0 -23 -8.5 -48.5t-29 -48.5t-55.5 -39.5
t-88 -21.5q-29 -64 -72.5 -125.5t-98 -117t-118 -102.5t-133 -81t-142 -53.5t-144.5 -19.5h-12t-12 1zM265 -17h16q77 0 148 19t134 49.5t118 70t100 81.5q63 58 113 124t82 135q-48 0 -93 9.5t-84.5 26.5t-71.5 41t-53 54q-21 -22 -40 -48t-36 -58q-2 -5 -7 -5
q-10 0 -10 10q0 3 1 4q18 34 38.5 62t42.5 51q-17 28 -25 58t-8 59q2 56 28 96t72 66h-29q-59 0 -120.5 -21t-121.5 -54.5t-114.5 -77t-99.5 -88.5q-39 -39 -77.5 -88.5t-69.5 -105t-50 -115.5t-19 -121q0 -102 60 -165t176 -69zM722 565q19 -18 46.5 -33.5t60 -27t68 -18
t70.5 -6.5h8.5t8.5 1q19 44 30.5 88t11.5 89q0 11 -1 31t-6 44h-11q-86 0 -168 -29t-154 -98q16 -22 36 -41zM1044 657q-2 -51 -13 -93t-27 -82q32 2 60 13.5t49 30.5t33.5 43t12.5 52q-1 31 -12.5 51t-29 32.5t-39 18.5t-41.5 9q5 -24 6 -43.5t1 -30.5v-1zM648 726
q0 -26 7 -52.5t22 -51.5q40 38 82.5 63t85.5 39.5t86 20.5t84 6q-20 72 -66.5 109.5t-112.5 37.5q-37 -1 -71 -14t-60 -35.5t-41.5 -53.5t-15.5 -69zM738 989q-7 2 -7 9q0 3 2 6t6 3q17 0 33.5 -2t33.5 -2q103 0 205 34t185 88q4 2 6 2q8 0 8 -9q0 -5 -4 -8
q-94 -60 -195 -92.5t-206 -32.5q-17 0 -33.5 1t-33.5 3z" />
    <glyph glyph-name="Ocircumflex" unicode="&#xd4;" horiz-adv-x="951" 
d="M264 -35q-65 4 -112.5 25t-79 54.5t-47 77.5t-15.5 96q0 63 20 125t51.5 119t71.5 107.5t79 90.5q117 118 241 181.5t238 64.5h23.5t20.5 -7q41 17 81 17q75 0 125 -42t70 -113q1 -3 1.5 -5.5t0.5 -5.5q64 -8 104 -39.5t40 -89.5q0 -23 -8.5 -48.5t-29 -48.5t-55.5 -39.5
t-88 -21.5q-29 -64 -72.5 -125.5t-98 -117t-118 -102.5t-133 -81t-142 -53.5t-144.5 -19.5h-12t-12 1zM265 -17h16q77 0 148 19t134 49.5t118 70t100 81.5q63 58 113 124t82 135q-48 0 -93 9.5t-84.5 26.5t-71.5 41t-53 54q-21 -22 -40 -48t-36 -58q-2 -5 -7 -5
q-10 0 -10 10q0 3 1 4q18 34 38.5 62t42.5 51q-17 28 -25 58t-8 59q2 56 28 96t72 66h-29q-59 0 -120.5 -21t-121.5 -54.5t-114.5 -77t-99.5 -88.5q-39 -39 -77.5 -88.5t-69.5 -105t-50 -115.5t-19 -121q0 -102 60 -165t176 -69zM722 565q19 -18 46.5 -33.5t60 -27t68 -18
t70.5 -6.5h8.5t8.5 1q19 44 30.5 88t11.5 89q0 11 -1 31t-6 44h-11q-86 0 -168 -29t-154 -98q16 -22 36 -41zM1044 657q-2 -51 -13 -93t-27 -82q32 2 60 13.5t49 30.5t33.5 43t12.5 52q-1 31 -12.5 51t-29 32.5t-39 18.5t-41.5 9q5 -24 6 -43.5t1 -30.5v-1zM648 726
q0 -26 7 -52.5t22 -51.5q40 38 82.5 63t85.5 39.5t86 20.5t84 6q-20 72 -66.5 109.5t-112.5 37.5q-37 -1 -71 -14t-60 -35.5t-41.5 -53.5t-15.5 -69zM1186 910q-54 0 -89 37t-39 95q-88 -51 -178.5 -76.5t-178.5 -25.5q-35 0 -54.5 3t-20.5 3q-7 2 -7 9q0 9 9 9h2
q8 -2 19 -3q18 -3 52 -3q22 0 58 2.5t83 13.5t102.5 32t116.5 59q1 1 4 1q10 0 10 -9q0 -1 1.5 -21.5t12.5 -44.5q28 -63 97 -63q9 0 9 -9t-9 -9z" />
    <glyph glyph-name="Otilde" unicode="&#xd5;" horiz-adv-x="951" 
d="M264 -35q-65 4 -112.5 25t-79 54.5t-47 77.5t-15.5 96q0 63 20 125t51.5 119t71.5 107.5t79 90.5q117 118 241 181.5t238 64.5h23.5t20.5 -7q41 17 81 17q75 0 125 -42t70 -113q1 -3 1.5 -5.5t0.5 -5.5q64 -8 104 -39.5t40 -89.5q0 -23 -8.5 -48.5t-29 -48.5t-55.5 -39.5
t-88 -21.5q-29 -64 -72.5 -125.5t-98 -117t-118 -102.5t-133 -81t-142 -53.5t-144.5 -19.5h-12t-12 1zM265 -17h16q77 0 148 19t134 49.5t118 70t100 81.5q63 58 113 124t82 135q-48 0 -93 9.5t-84.5 26.5t-71.5 41t-53 54q-21 -22 -40 -48t-36 -58q-2 -5 -7 -5
q-10 0 -10 10q0 3 1 4q18 34 38.5 62t42.5 51q-17 28 -25 58t-8 59q2 56 28 96t72 66h-29q-59 0 -120.5 -21t-121.5 -54.5t-114.5 -77t-99.5 -88.5q-39 -39 -77.5 -88.5t-69.5 -105t-50 -115.5t-19 -121q0 -102 60 -165t176 -69zM722 565q19 -18 46.5 -33.5t60 -27t68 -18
t70.5 -6.5h8.5t8.5 1q19 44 30.5 88t11.5 89q0 11 -1 31t-6 44h-11q-86 0 -168 -29t-154 -98q16 -22 36 -41zM1044 657q-2 -51 -13 -93t-27 -82q32 2 60 13.5t49 30.5t33.5 43t12.5 52q-1 31 -12.5 51t-29 32.5t-39 18.5t-41.5 9q5 -24 6 -43.5t1 -30.5v-1zM648 726
q0 -26 7 -52.5t22 -51.5q40 38 82.5 63t85.5 39.5t86 20.5t84 6q-20 72 -66.5 109.5t-112.5 37.5q-37 -1 -71 -14t-60 -35.5t-41.5 -53.5t-15.5 -69zM1091 952q-7 2 -7 9q0 1 0.5 3t0.5 12q0 6 -2.5 17.5t-10.5 23t-23.5 20t-40.5 8.5t-47.5 -14.5t-46.5 -32t-50.5 -32
t-58.5 -14.5q-35 0 -51 19t-16 48q0 19 2 29t4 14t4.5 4h4.5q9 0 9 -10v-2q-1 -1 -3.5 -11t-2.5 -24q0 -21 11 -35t38 -14q30 0 54 14.5t47.5 32.5t47 32.5t52.5 14.5q38 0 58 -14.5t28.5 -31.5t9.5 -31t1 -13q0 -14 -2 -18t-8 -4h-2z" />
    <glyph glyph-name="Odieresis" unicode="&#xd6;" horiz-adv-x="951" 
d="M264 -35q-65 4 -112.5 25t-79 54.5t-47 77.5t-15.5 96q0 63 20 125t51.5 119t71.5 107.5t79 90.5q117 118 241 181.5t238 64.5h23.5t20.5 -7q41 17 81 17q75 0 125 -42t70 -113q1 -3 1.5 -5.5t0.5 -5.5q64 -8 104 -39.5t40 -89.5q0 -23 -8.5 -48.5t-29 -48.5t-55.5 -39.5
t-88 -21.5q-29 -64 -72.5 -125.5t-98 -117t-118 -102.5t-133 -81t-142 -53.5t-144.5 -19.5h-12t-12 1zM265 -17h16q77 0 148 19t134 49.5t118 70t100 81.5q63 58 113 124t82 135q-48 0 -93 9.5t-84.5 26.5t-71.5 41t-53 54q-21 -22 -40 -48t-36 -58q-2 -5 -7 -5
q-10 0 -10 10q0 3 1 4q18 34 38.5 62t42.5 51q-17 28 -25 58t-8 59q2 56 28 96t72 66h-29q-59 0 -120.5 -21t-121.5 -54.5t-114.5 -77t-99.5 -88.5q-39 -39 -77.5 -88.5t-69.5 -105t-50 -115.5t-19 -121q0 -102 60 -165t176 -69zM722 565q19 -18 46.5 -33.5t60 -27t68 -18
t70.5 -6.5h8.5t8.5 1q19 44 30.5 88t11.5 89q0 11 -1 31t-6 44h-11q-86 0 -168 -29t-154 -98q16 -22 36 -41zM1044 657q-2 -51 -13 -93t-27 -82q32 2 60 13.5t49 30.5t33.5 43t12.5 52q-1 31 -12.5 51t-29 32.5t-39 18.5t-41.5 9q5 -24 6 -43.5t1 -30.5v-1zM648 726
q0 -26 7 -52.5t22 -51.5q40 38 82.5 63t85.5 39.5t86 20.5t84 6q-20 72 -66.5 109.5t-112.5 37.5q-37 -1 -71 -14t-60 -35.5t-41.5 -53.5t-15.5 -69zM894 993q0 -23 -15.5 -38.5t-38.5 -15.5t-38.5 15.5t-15.5 38.5t15.5 38.5t38.5 15.5t38.5 -15.5t15.5 -38.5zM1056 993
q0 -23 -15.5 -38.5t-38.5 -15.5t-38.5 15.5t-15.5 38.5t15.5 38.5t38.5 15.5t38.5 -15.5t15.5 -38.5z" />
    <glyph glyph-name="Oslash" unicode="&#xd8;" horiz-adv-x="951" 
d="M264 -35q-65 4 -112.5 25t-79 54.5t-47 77.5t-15.5 96q0 63 20 125t51.5 119t71.5 107.5t79 90.5q117 118 241 181.5t238 64.5h23.5t20.5 -7q41 17 81 17q75 0 125 -42t70 -113q1 -3 1.5 -5.5t0.5 -5.5q64 -8 104 -39.5t40 -89.5q0 -23 -8.5 -48.5t-29 -48.5t-55.5 -39.5
t-88 -21.5q-29 -64 -72.5 -125.5t-98 -117t-118 -102.5t-133 -81t-142 -53.5t-144.5 -19.5h-12t-12 1zM265 -17h16q77 0 148 19t134 49.5t118 70t100 81.5q63 58 113 124t82 135q-48 0 -93 9.5t-84.5 26.5t-71.5 41t-53 54q-21 -22 -40 -48t-36 -58q-2 -5 -7 -5
q-10 0 -10 10q0 3 1 4q18 34 38.5 62t42.5 51q-17 28 -25 58t-8 59q2 56 28 96t72 66h-29q-59 0 -120.5 -21t-121.5 -54.5t-114.5 -77t-99.5 -88.5q-39 -39 -77.5 -88.5t-69.5 -105t-50 -115.5t-19 -121q0 -102 60 -165t176 -69zM722 565q19 -18 46.5 -33.5t60 -27t68 -18
t70.5 -6.5h8.5t8.5 1q19 44 30.5 88t11.5 89q0 11 -1 31t-6 44h-11q-86 0 -168 -29t-154 -98q16 -22 36 -41zM1044 657q-2 -51 -13 -93t-27 -82q32 2 60 13.5t49 30.5t33.5 43t12.5 52q-1 31 -12.5 51t-29 32.5t-39 18.5t-41.5 9q5 -24 6 -43.5t1 -30.5v-1zM648 726
q0 -26 7 -52.5t22 -51.5q40 38 82.5 63t85.5 39.5t86 20.5t84 6q-20 72 -66.5 109.5t-112.5 37.5q-37 -1 -71 -14t-60 -35.5t-41.5 -53.5t-15.5 -69zM69 -225q-9 0 -9 9q0 1 2 5l813 1270q4 4 7 4q10 0 10 -9q0 -3 -2 -5l-813 -1270q-3 -4 -8 -4z" />
    <glyph glyph-name="Ugrave" unicode="&#xd9;" horiz-adv-x="902" 
d="M1221 815q0 -7 -6 -8q-11 -2 -52.5 -19t-101 -54.5t-130.5 -100t-141 -155.5q-15 -20 -41.5 -61t-55.5 -94.5t-58 -113.5t-48 -118q-8 -25 -19 -65.5t-11 -79.5q0 -20 4.5 -38.5t15 -32.5t28 -22.5t42.5 -8.5q32 0 59 19t46.5 48.5t30.5 66t11 71.5q0 8 8 10q8 0 10 -8
q0 -35 -11.5 -74.5t-32.5 -72.5t-51.5 -55t-68.5 -22q-30 0 -51 9.5t-34 25.5t-18.5 37.5t-5.5 45.5q0 35 8 70.5t16 62.5q-27 -37 -58.5 -68.5t-69 -54.5t-82.5 -36t-101 -13q-35 0 -73 11.5t-69.5 37t-52 66t-20.5 97.5q0 42 13 91.5t43 109.5q39 78 87.5 145.5t100 124.5
t103 104t96.5 85q-51 6 -94 18.5t-80.5 27t-72.5 29.5t-70.5 27t-74 20t-83.5 8q-22 0 -49 -3.5t-51 -14.5t-40 -31.5t-16 -54.5q0 -22 9.5 -38t25.5 -27t36 -17.5t40 -7.5q9 -1 9 -10q0 -8 -9 -8h-1q-2 -1 -22 2.5t-44 15.5t-43.5 33.5t-19.5 57.5q0 35 16 58t41 37
t56.5 20t61.5 6q48 0 89 -8t78 -21t72.5 -28.5t74.5 -30.5t82.5 -27t97.5 -17q18 15 37.5 33t41 33t44.5 25.5t49 10.5t43.5 -12t17.5 -41q0 -27 -18.5 -41.5t-44.5 -21t-53.5 -7.5t-45.5 -1q-32 0 -65 3q-33 -27 -71 -60.5t-78 -72.5q-32 -31 -66.5 -70.5t-68 -84
t-63.5 -92t-53 -95.5t-36.5 -94.5t-13.5 -87.5q0 -49 16.5 -85.5t44.5 -60.5t63 -36t73 -12q62 0 115 19.5t96.5 53t78 80t59.5 100.5q57 136 124 237t134.5 172.5t130 118t111.5 73t78.5 36.5t30.5 10t1.5 0.5t1.5 0.5q6 0 8 -7v-3zM664 878q-20 -1 -38 -10t-35.5 -21.5
t-33.5 -27t-32 -27.5q22 -3 47 -3q13 0 36.5 0.5t47 5.5t41 16t17.5 32q0 35 -43 35h-7zM1019 927q-49 0 -97.5 9.5t-90 30.5t-73 55t-45.5 82q-7 22 -8 36t-1 15q0 9 9 9h6.5t0.5 -4.5t1.5 -16t8.5 -35.5q16 -48 46.5 -79t70.5 -49.5t85.5 -26t90.5 -7.5h27.5t27.5 2
q8 0 10 -8q0 -6 -8 -9t-19 -3.5t-23 -0.5h-19z" />
    <glyph glyph-name="Uacute" unicode="&#xda;" horiz-adv-x="902" 
d="M1221 815q0 -7 -6 -8q-11 -2 -52.5 -19t-101 -54.5t-130.5 -100t-141 -155.5q-15 -20 -41.5 -61t-55.5 -94.5t-58 -113.5t-48 -118q-8 -25 -19 -65.5t-11 -79.5q0 -20 4.5 -38.5t15 -32.5t28 -22.5t42.5 -8.5q32 0 59 19t46.5 48.5t30.5 66t11 71.5q0 8 8 10q8 0 10 -8
q0 -35 -11.5 -74.5t-32.5 -72.5t-51.5 -55t-68.5 -22q-30 0 -51 9.5t-34 25.5t-18.5 37.5t-5.5 45.5q0 35 8 70.5t16 62.5q-27 -37 -58.5 -68.5t-69 -54.5t-82.5 -36t-101 -13q-35 0 -73 11.5t-69.5 37t-52 66t-20.5 97.5q0 42 13 91.5t43 109.5q39 78 87.5 145.5t100 124.5
t103 104t96.5 85q-51 6 -94 18.5t-80.5 27t-72.5 29.5t-70.5 27t-74 20t-83.5 8q-22 0 -49 -3.5t-51 -14.5t-40 -31.5t-16 -54.5q0 -22 9.5 -38t25.5 -27t36 -17.5t40 -7.5q9 -1 9 -10q0 -8 -9 -8h-1q-2 -1 -22 2.5t-44 15.5t-43.5 33.5t-19.5 57.5q0 35 16 58t41 37
t56.5 20t61.5 6q48 0 89 -8t78 -21t72.5 -28.5t74.5 -30.5t82.5 -27t97.5 -17q18 15 37.5 33t41 33t44.5 25.5t49 10.5t43.5 -12t17.5 -41q0 -27 -18.5 -41.5t-44.5 -21t-53.5 -7.5t-45.5 -1q-32 0 -65 3q-33 -27 -71 -60.5t-78 -72.5q-32 -31 -66.5 -70.5t-68 -84
t-63.5 -92t-53 -95.5t-36.5 -94.5t-13.5 -87.5q0 -49 16.5 -85.5t44.5 -60.5t63 -36t73 -12q62 0 115 19.5t96.5 53t78 80t59.5 100.5q57 136 124 237t134.5 172.5t130 118t111.5 73t78.5 36.5t30.5 10t1.5 0.5t1.5 0.5q6 0 8 -7v-3zM664 878q-20 -1 -38 -10t-35.5 -21.5
t-33.5 -27t-32 -27.5q22 -3 47 -3q13 0 36.5 0.5t47 5.5t41 16t17.5 32q0 35 -43 35h-7zM810 916q-7 2 -7 9q0 3 2 6t6 3q17 0 33.5 -2t33.5 -2q103 0 205 34t185 88q4 2 6 2q8 0 8 -9q0 -5 -4 -8q-94 -60 -195 -92.5t-206 -32.5q-17 0 -33.5 1t-33.5 3z" />
    <glyph glyph-name="Ucircumflex" unicode="&#xdb;" horiz-adv-x="902" 
d="M1221 815q0 -7 -6 -8q-11 -2 -52.5 -19t-101 -54.5t-130.5 -100t-141 -155.5q-15 -20 -41.5 -61t-55.5 -94.5t-58 -113.5t-48 -118q-8 -25 -19 -65.5t-11 -79.5q0 -20 4.5 -38.5t15 -32.5t28 -22.5t42.5 -8.5q32 0 59 19t46.5 48.5t30.5 66t11 71.5q0 8 8 10q8 0 10 -8
q0 -35 -11.5 -74.5t-32.5 -72.5t-51.5 -55t-68.5 -22q-30 0 -51 9.5t-34 25.5t-18.5 37.5t-5.5 45.5q0 35 8 70.5t16 62.5q-27 -37 -58.5 -68.5t-69 -54.5t-82.5 -36t-101 -13q-35 0 -73 11.5t-69.5 37t-52 66t-20.5 97.5q0 42 13 91.5t43 109.5q39 78 87.5 145.5t100 124.5
t103 104t96.5 85q-51 6 -94 18.5t-80.5 27t-72.5 29.5t-70.5 27t-74 20t-83.5 8q-22 0 -49 -3.5t-51 -14.5t-40 -31.5t-16 -54.5q0 -22 9.5 -38t25.5 -27t36 -17.5t40 -7.5q9 -1 9 -10q0 -8 -9 -8h-1q-2 -1 -22 2.5t-44 15.5t-43.5 33.5t-19.5 57.5q0 35 16 58t41 37
t56.5 20t61.5 6q48 0 89 -8t78 -21t72.5 -28.5t74.5 -30.5t82.5 -27t97.5 -17q18 15 37.5 33t41 33t44.5 25.5t49 10.5t43.5 -12t17.5 -41q0 -27 -18.5 -41.5t-44.5 -21t-53.5 -7.5t-45.5 -1q-32 0 -65 3q-33 -27 -71 -60.5t-78 -72.5q-32 -31 -66.5 -70.5t-68 -84
t-63.5 -92t-53 -95.5t-36.5 -94.5t-13.5 -87.5q0 -49 16.5 -85.5t44.5 -60.5t63 -36t73 -12q62 0 115 19.5t96.5 53t78 80t59.5 100.5q57 136 124 237t134.5 172.5t130 118t111.5 73t78.5 36.5t30.5 10t1.5 0.5t1.5 0.5q6 0 8 -7v-3zM664 878q-20 -1 -38 -10t-35.5 -21.5
t-33.5 -27t-32 -27.5q22 -3 47 -3q13 0 36.5 0.5t47 5.5t41 16t17.5 32q0 35 -43 35h-7zM1258 920q-54 0 -89 37t-39 95q-88 -51 -178.5 -76.5t-178.5 -25.5q-35 0 -54.5 3t-20.5 3q-7 2 -7 9q0 9 9 9h2q8 -2 19 -3q18 -3 52 -3q22 0 58 2.5t83 13.5t102.5 32t116.5 59
q1 1 4 1q10 0 10 -9q0 -1 1.5 -21.5t12.5 -44.5q28 -63 97 -63q9 0 9 -9t-9 -9z" />
    <glyph glyph-name="Udieresis" unicode="&#xdc;" horiz-adv-x="902" 
d="M1221 815q0 -7 -6 -8q-11 -2 -52.5 -19t-101 -54.5t-130.5 -100t-141 -155.5q-15 -20 -41.5 -61t-55.5 -94.5t-58 -113.5t-48 -118q-8 -25 -19 -65.5t-11 -79.5q0 -20 4.5 -38.5t15 -32.5t28 -22.5t42.5 -8.5q32 0 59 19t46.5 48.5t30.5 66t11 71.5q0 8 8 10q8 0 10 -8
q0 -35 -11.5 -74.5t-32.5 -72.5t-51.5 -55t-68.5 -22q-30 0 -51 9.5t-34 25.5t-18.5 37.5t-5.5 45.5q0 35 8 70.5t16 62.5q-27 -37 -58.5 -68.5t-69 -54.5t-82.5 -36t-101 -13q-35 0 -73 11.5t-69.5 37t-52 66t-20.5 97.5q0 42 13 91.5t43 109.5q39 78 87.5 145.5t100 124.5
t103 104t96.5 85q-51 6 -94 18.5t-80.5 27t-72.5 29.5t-70.5 27t-74 20t-83.5 8q-22 0 -49 -3.5t-51 -14.5t-40 -31.5t-16 -54.5q0 -22 9.5 -38t25.5 -27t36 -17.5t40 -7.5q9 -1 9 -10q0 -8 -9 -8h-1q-2 -1 -22 2.5t-44 15.5t-43.5 33.5t-19.5 57.5q0 35 16 58t41 37
t56.5 20t61.5 6q48 0 89 -8t78 -21t72.5 -28.5t74.5 -30.5t82.5 -27t97.5 -17q18 15 37.5 33t41 33t44.5 25.5t49 10.5t43.5 -12t17.5 -41q0 -27 -18.5 -41.5t-44.5 -21t-53.5 -7.5t-45.5 -1q-32 0 -65 3q-33 -27 -71 -60.5t-78 -72.5q-32 -31 -66.5 -70.5t-68 -84
t-63.5 -92t-53 -95.5t-36.5 -94.5t-13.5 -87.5q0 -49 16.5 -85.5t44.5 -60.5t63 -36t73 -12q62 0 115 19.5t96.5 53t78 80t59.5 100.5q57 136 124 237t134.5 172.5t130 118t111.5 73t78.5 36.5t30.5 10t1.5 0.5t1.5 0.5q6 0 8 -7v-3zM664 878q-20 -1 -38 -10t-35.5 -21.5
t-33.5 -27t-32 -27.5q22 -3 47 -3q13 0 36.5 0.5t47 5.5t41 16t17.5 32q0 35 -43 35h-7zM933 919q0 -23 -15.5 -38.5t-38.5 -15.5t-38.5 15.5t-15.5 38.5t15.5 38.5t38.5 15.5t38.5 -15.5t15.5 -38.5zM1095 919q0 -23 -15.5 -38.5t-38.5 -15.5t-38.5 15.5t-15.5 38.5
t15.5 38.5t38.5 15.5t38.5 -15.5t15.5 -38.5z" />
    <glyph glyph-name="Yacute" unicode="&#xdd;" horiz-adv-x="921" 
d="M1371 861q0 -6 -15.5 -10.5t-44.5 -15t-69 -30t-88 -55t-102.5 -90.5t-111.5 -136q-26 -36 -65.5 -93.5t-88 -129.5t-103.5 -156.5t-110 -174.5q-24 -38 -55 -69.5t-68 -54.5t-80 -36t-91 -13q-34 0 -69 6t-67 20.5t-60.5 37.5t-49.5 56q-9 -9 -22 -20.5t-27 -21.5
t-29 -16.5t-29 -6.5q-5 0 -6.5 3t-1.5 6q0 7 7 9q25 5 49.5 22t49.5 42q-11 22 -17 45.5t-6 49.5q0 16 3 36.5t11 38.5t21 30t34 12q24 0 37 -19.5t13 -46.5q0 -42 -23 -80.5t-51 -68.5q14 -27 38 -48.5t55 -36.5t66.5 -23t73.5 -8q85 0 158 44.5t121 119.5q36 57 68.5 109
t64.5 102q-41 -41 -95.5 -69t-119.5 -28q-34 0 -70 8.5t-66 29t-49.5 54.5t-19.5 85q0 40 14.5 89t46.5 110q35 67 72.5 120t75.5 95.5t75.5 76.5t72.5 63q-76 10 -134.5 31.5t-111.5 43.5t-106.5 39t-118.5 17q-27 0 -55 -5t-51 -17t-37.5 -32.5t-14.5 -51.5q0 -23 10 -38
t25.5 -25.5t35.5 -16.5t40 -10q9 0 9 -9q-2 -9 -10 -9q0 -2 -20 2.5t-44 17t-44 34t-20 54.5q0 30 13.5 53.5t37 39t54.5 23.5t67 8q48 0 88.5 -8.5t77.5 -21.5t73 -28.5t75.5 -30.5t83.5 -27t97 -17q18 15 38.5 33t43 33.5t46 26t46.5 10.5q28 0 43 -17t15 -37t-11.5 -33.5
t-31 -22t-44 -12.5t-49.5 -4q-24 0 -47.5 1.5t-43.5 2.5q-36 -29 -74 -62.5t-77 -77t-78 -98t-76 -123.5q-32 -60 -45.5 -107t-13.5 -83q0 -45 17.5 -75.5t44.5 -49t60 -26.5t65 -8q43 0 82.5 14.5t76 41t70.5 63t67 81.5q51 76 89.5 132t63.5 91q53 76 106 130.5t101.5 92
t90 59.5t72 34t48 16t18.5 4h1q9 0 9 -7v-2zM814 924q-20 -3 -37.5 -12t-35 -21t-34 -26t-33.5 -27q14 -2 31 -3t36 -1q20 0 41.5 2.5t39 8.5t29 16.5t11.5 26.5q0 14 -11 25t-31 11h-6zM19 28q0 -42 19 -80q11 12 22.5 27t20.5 31.5t15 34.5t6 36q0 7 -1.5 15.5t-5 16.5
t-10 13.5t-15.5 5.5q-14 0 -23.5 -9.5t-15.5 -24t-9 -32t-3 -34.5zM1015 955q-7 2 -7 9q0 3 2 6t6 3q17 0 33.5 -2t33.5 -2q103 0 205 34t185 88q4 2 6 2q8 0 8 -9q0 -5 -4 -8q-94 -60 -195 -92.5t-206 -32.5q-17 0 -33.5 1t-33.5 3z" />
    <glyph glyph-name="agrave" unicode="&#xe0;" horiz-adv-x="887" 
d="M900 225q2 -4 2 -7q0 -2 -2 -6q-36 -33 -83.5 -71t-100 -70.5t-107.5 -54t-107 -21.5q-15 0 -33.5 2.5t-35 10t-27.5 20.5t-11 33q0 30 36 74q-88 -71 -163.5 -112t-138.5 -41q-32 0 -61.5 10t-52 29t-35.5 46t-13 62q0 101 142 222q96 81 194.5 125.5t186.5 44.5
q42 0 76 -10q2 0 15.5 -5t29 -16.5t28 -30t12.5 -46.5q0 -69 -88 -161q36 24 69.5 46.5t59 39.5t41.5 27t18 10q1 1 4 1q9 0 9 -9q0 -3 -10.5 -9.5t-33 -20t-57 -36.5t-81.5 -57q-84 -61 -126.5 -108t-42.5 -76q0 -14 9.5 -23.5t23 -14.5t28.5 -7t27 -2q45 0 94.5 18.5
t100 48.5t99.5 68t92 78q4 2 6 2q4 0 7 -3zM129 0q42 0 86 17.5t87.5 45.5t85.5 61t80 65q50 41 82 75t51 62t26 49.5t7 37.5q0 23 -11 38.5t-24.5 25t-25 13.5t-12.5 4q-33 9 -71 9q-85 0 -180 -43.5t-189 -122.5q-136 -115 -136 -208q0 -30 11.5 -54t31 -40.5t46 -25.5
t55.5 -9zM610 580q-49 0 -97.5 9.5t-90 30.5t-73 55t-45.5 82q-7 22 -8 36t-1 15q0 9 9 9h6.5t0.5 -4.5t1.5 -16t8.5 -35.5q16 -48 46.5 -79t70.5 -49.5t85.5 -26t90.5 -7.5h27.5t27.5 2q8 0 10 -8q0 -6 -8 -9t-19 -3.5t-23 -0.5h-19z" />
    <glyph glyph-name="aacute" unicode="&#xe1;" horiz-adv-x="887" 
d="M900 225q2 -4 2 -7q0 -2 -2 -6q-36 -33 -83.5 -71t-100 -70.5t-107.5 -54t-107 -21.5q-15 0 -33.5 2.5t-35 10t-27.5 20.5t-11 33q0 30 36 74q-88 -71 -163.5 -112t-138.5 -41q-32 0 -61.5 10t-52 29t-35.5 46t-13 62q0 101 142 222q96 81 194.5 125.5t186.5 44.5
q42 0 76 -10q2 0 15.5 -5t29 -16.5t28 -30t12.5 -46.5q0 -69 -88 -161q36 24 69.5 46.5t59 39.5t41.5 27t18 10q1 1 4 1q9 0 9 -9q0 -3 -10.5 -9.5t-33 -20t-57 -36.5t-81.5 -57q-84 -61 -126.5 -108t-42.5 -76q0 -14 9.5 -23.5t23 -14.5t28.5 -7t27 -2q45 0 94.5 18.5
t100 48.5t99.5 68t92 78q4 2 6 2q4 0 7 -3zM129 0q42 0 86 17.5t87.5 45.5t85.5 61t80 65q50 41 82 75t51 62t26 49.5t7 37.5q0 23 -11 38.5t-24.5 25t-25 13.5t-12.5 4q-33 9 -71 9q-85 0 -180 -43.5t-189 -122.5q-136 -115 -136 -208q0 -30 11.5 -54t31 -40.5t46 -25.5
t55.5 -9zM308 570q-7 2 -7 9q0 3 2 6t6 3q17 0 33.5 -2t33.5 -2q103 0 205 34t185 88q4 2 6 2q8 0 8 -9q0 -5 -4 -8q-94 -60 -195 -92.5t-206 -32.5q-17 0 -33.5 1t-33.5 3z" />
    <glyph glyph-name="acircumflex" unicode="&#xe2;" horiz-adv-x="887" 
d="M900 225q2 -4 2 -7q0 -2 -2 -6q-36 -33 -83.5 -71t-100 -70.5t-107.5 -54t-107 -21.5q-15 0 -33.5 2.5t-35 10t-27.5 20.5t-11 33q0 30 36 74q-88 -71 -163.5 -112t-138.5 -41q-32 0 -61.5 10t-52 29t-35.5 46t-13 62q0 101 142 222q96 81 194.5 125.5t186.5 44.5
q42 0 76 -10q2 0 15.5 -5t29 -16.5t28 -30t12.5 -46.5q0 -69 -88 -161q36 24 69.5 46.5t59 39.5t41.5 27t18 10q1 1 4 1q9 0 9 -9q0 -3 -10.5 -9.5t-33 -20t-57 -36.5t-81.5 -57q-84 -61 -126.5 -108t-42.5 -76q0 -14 9.5 -23.5t23 -14.5t28.5 -7t27 -2q45 0 94.5 18.5
t100 48.5t99.5 68t92 78q4 2 6 2q4 0 7 -3zM129 0q42 0 86 17.5t87.5 45.5t85.5 61t80 65q50 41 82 75t51 62t26 49.5t7 37.5q0 23 -11 38.5t-24.5 25t-25 13.5t-12.5 4q-33 9 -71 9q-85 0 -180 -43.5t-189 -122.5q-136 -115 -136 -208q0 -30 11.5 -54t31 -40.5t46 -25.5
t55.5 -9zM812 531q-54 0 -89 37t-39 95q-88 -51 -178.5 -76.5t-178.5 -25.5q-35 0 -54.5 3t-20.5 3q-7 2 -7 9q0 9 9 9h2q8 -2 19 -3q18 -3 52 -3q22 0 58 2.5t83 13.5t102.5 32t116.5 59q1 1 4 1q10 0 10 -9q0 -1 1.5 -21.5t12.5 -44.5q28 -63 97 -63q9 0 9 -9t-9 -9z" />
    <glyph glyph-name="atilde" unicode="&#xe3;" horiz-adv-x="887" 
d="M900 225q2 -4 2 -7q0 -2 -2 -6q-36 -33 -83.5 -71t-100 -70.5t-107.5 -54t-107 -21.5q-15 0 -33.5 2.5t-35 10t-27.5 20.5t-11 33q0 30 36 74q-88 -71 -163.5 -112t-138.5 -41q-32 0 -61.5 10t-52 29t-35.5 46t-13 62q0 101 142 222q96 81 194.5 125.5t186.5 44.5
q42 0 76 -10q2 0 15.5 -5t29 -16.5t28 -30t12.5 -46.5q0 -69 -88 -161q36 24 69.5 46.5t59 39.5t41.5 27t18 10q1 1 4 1q9 0 9 -9q0 -3 -10.5 -9.5t-33 -20t-57 -36.5t-81.5 -57q-84 -61 -126.5 -108t-42.5 -76q0 -14 9.5 -23.5t23 -14.5t28.5 -7t27 -2q45 0 94.5 18.5
t100 48.5t99.5 68t92 78q4 2 6 2q4 0 7 -3zM129 0q42 0 86 17.5t87.5 45.5t85.5 61t80 65q50 41 82 75t51 62t26 49.5t7 37.5q0 23 -11 38.5t-24.5 25t-25 13.5t-12.5 4q-33 9 -71 9q-85 0 -180 -43.5t-189 -122.5q-136 -115 -136 -208q0 -30 11.5 -54t31 -40.5t46 -25.5
t55.5 -9zM789 577q-7 2 -7 9q0 1 0.5 3t0.5 12q0 6 -2.5 17.5t-10.5 23t-23.5 20t-40.5 8.5t-47.5 -14.5t-46.5 -32t-50.5 -32t-58.5 -14.5q-35 0 -51 19t-16 48q0 19 2 29t4 14t4.5 4h4.5q9 0 9 -10v-2q-1 -1 -3.5 -11t-2.5 -24q0 -21 11 -35t38 -14q30 0 54 14.5
t47.5 32.5t47 32.5t52.5 14.5q38 0 58 -14.5t28.5 -31.5t9.5 -31t1 -13q0 -14 -2 -18t-8 -4h-2z" />
    <glyph glyph-name="adieresis" unicode="&#xe4;" horiz-adv-x="887" 
d="M900 225q2 -4 2 -7q0 -2 -2 -6q-36 -33 -83.5 -71t-100 -70.5t-107.5 -54t-107 -21.5q-15 0 -33.5 2.5t-35 10t-27.5 20.5t-11 33q0 30 36 74q-88 -71 -163.5 -112t-138.5 -41q-32 0 -61.5 10t-52 29t-35.5 46t-13 62q0 101 142 222q96 81 194.5 125.5t186.5 44.5
q42 0 76 -10q2 0 15.5 -5t29 -16.5t28 -30t12.5 -46.5q0 -69 -88 -161q36 24 69.5 46.5t59 39.5t41.5 27t18 10q1 1 4 1q9 0 9 -9q0 -3 -10.5 -9.5t-33 -20t-57 -36.5t-81.5 -57q-84 -61 -126.5 -108t-42.5 -76q0 -14 9.5 -23.5t23 -14.5t28.5 -7t27 -2q45 0 94.5 18.5
t100 48.5t99.5 68t92 78q4 2 6 2q4 0 7 -3zM129 0q42 0 86 17.5t87.5 45.5t85.5 61t80 65q50 41 82 75t51 62t26 49.5t7 37.5q0 23 -11 38.5t-24.5 25t-25 13.5t-12.5 4q-33 9 -71 9q-85 0 -180 -43.5t-189 -122.5q-136 -115 -136 -208q0 -30 11.5 -54t31 -40.5t46 -25.5
t55.5 -9zM509 623q0 -23 -15.5 -38.5t-38.5 -15.5t-38.5 15.5t-15.5 38.5t15.5 38.5t38.5 15.5t38.5 -15.5t15.5 -38.5zM671 623q0 -23 -15.5 -38.5t-38.5 -15.5t-38.5 15.5t-15.5 38.5t15.5 38.5t38.5 15.5t38.5 -15.5t15.5 -38.5z" />
    <glyph glyph-name="aring" unicode="&#xe5;" horiz-adv-x="887" 
d="M900 225q2 -4 2 -7q0 -2 -2 -6q-36 -33 -83.5 -71t-100 -70.5t-107.5 -54t-107 -21.5q-15 0 -33.5 2.5t-35 10t-27.5 20.5t-11 33q0 30 36 74q-88 -71 -163.5 -112t-138.5 -41q-32 0 -61.5 10t-52 29t-35.5 46t-13 62q0 101 142 222q96 81 194.5 125.5t186.5 44.5
q42 0 76 -10q2 0 15.5 -5t29 -16.5t28 -30t12.5 -46.5q0 -69 -88 -161q36 24 69.5 46.5t59 39.5t41.5 27t18 10q1 1 4 1q9 0 9 -9q0 -3 -10.5 -9.5t-33 -20t-57 -36.5t-81.5 -57q-84 -61 -126.5 -108t-42.5 -76q0 -14 9.5 -23.5t23 -14.5t28.5 -7t27 -2q45 0 94.5 18.5
t100 48.5t99.5 68t92 78q4 2 6 2q4 0 7 -3zM129 0q42 0 86 17.5t87.5 45.5t85.5 61t80 65q50 41 82 75t51 62t26 49.5t7 37.5q0 23 -11 38.5t-24.5 25t-25 13.5t-12.5 4q-33 9 -71 9q-85 0 -180 -43.5t-189 -122.5q-136 -115 -136 -208q0 -30 11.5 -54t31 -40.5t46 -25.5
t55.5 -9zM610 554q-25 0 -47 9.5t-38.5 26t-26 38.5t-9.5 47t9.5 47t26 38.5t38.5 26t47 9.5t47 -9.5t38.5 -26t26 -38.5t9.5 -47t-9.5 -47t-26 -38.5t-38.5 -26t-47 -9.5zM610 778q-21 0 -40 -8t-33 -22t-22 -33t-8 -40t8 -40t22 -33t33 -22t40 -8t40 8t33 22t22 33t8 40
t-8 40t-22 33t-33 22t-40 8z" />
    <glyph glyph-name="ae" unicode="&#xe6;" horiz-adv-x="1596" 
d="M900 225q2 -4 2 -7q0 -2 -2 -6q-36 -33 -83.5 -71t-100 -70.5t-107.5 -54t-107 -21.5q-15 0 -33.5 2.5t-35 10t-27.5 20.5t-11 33q0 30 36 74q-88 -71 -163.5 -112t-138.5 -41q-32 0 -61.5 10t-52 29t-35.5 46t-13 62q0 101 142 222q96 81 194.5 125.5t186.5 44.5
q42 0 76 -10q2 0 15.5 -5t29 -16.5t28 -30t12.5 -46.5q0 -69 -88 -161q36 24 69.5 46.5t59 39.5t41.5 27t18 10q1 1 4 1q9 0 9 -9q0 -3 -10.5 -9.5t-33 -20t-57 -36.5t-81.5 -57q-84 -61 -126.5 -108t-42.5 -76q0 -14 9.5 -23.5t23 -14.5t28.5 -7t27 -2q45 0 94.5 18.5
t100 48.5t99.5 68t92 78q4 2 6 2q4 0 7 -3zM129 0q42 0 86 17.5t87.5 45.5t85.5 61t80 65q50 41 82 75t51 62t26 49.5t7 37.5q0 23 -11 38.5t-24.5 25t-25 13.5t-12.5 4q-33 9 -71 9q-85 0 -180 -43.5t-189 -122.5q-136 -115 -136 -208q0 -30 11.5 -54t31 -40.5t46 -25.5
t55.5 -9zM936 13q-35 19 -49.5 50t-14.5 68q0 29 7.5 60t20.5 59.5t29 53t33 42.5q-16 8 -23.5 12t-9.5 6.5t-1.5 3.5t0.5 3q0 9 9 9q4 0 3 0.5t0 -1t7.5 -5.5t27.5 -14q41 44 85.5 80.5t89.5 62t90 39.5t87 14q29 0 56 -8t48 -22.5t33.5 -35t12.5 -45.5q0 -42 -25.5 -74
t-63 -53t-80.5 -31.5t-79 -10.5q-44 0 -83 7t-71 16.5t-56.5 20t-39.5 17.5q-15 -14 -31 -37.5t-28.5 -51t-21 -58t-8.5 -59.5q0 -57 39.5 -91t122.5 -34q32 0 65 4.5t63 11t54 14t39 13.5q40 16 78.5 34.5t78 41.5t81.5 53.5t90 71.5q4 2 6 2q3 0 6 -2t3 -7q0 -4 -3 -7
q-49 -42 -92 -72.5t-83 -54t-79 -41.5t-80 -35q-22 -8 -49 -16t-56.5 -14t-60.5 -10t-61 -4q-32 0 -62 5.5t-54 18.5zM1018 339q33 -15 88 -29.5t121 -15.5q41 0 82 12t74 32t54 47.5t21 57.5q0 21 -10.5 38.5t-28.5 30.5t-41.5 20t-48.5 7q-32 0 -69 -8.5t-79 -29.5
t-90 -57.5t-100 -92.5z" />
    <glyph glyph-name="ccedilla" unicode="&#xe7;" horiz-adv-x="706" 
d="M162 -5q-92 0 -140.5 31.5t-48.5 88.5q0 50 33.5 109.5t86 114.5t116 96.5t123.5 55.5q22 5 41 7.5t35 2.5q45 0 68 -21t23 -53q0 -17 -5.5 -34t-13.5 -17q-9 0 -9 8q0 7 5 18t5 24q0 26 -18.5 41.5t-56.5 15.5q-35 0 -75 -11.5t-81 -33t-81.5 -53t-76.5 -71.5
q-48 -54 -74 -106t-26 -93q0 -34 18.5 -54.5t45 -31t56 -13.5t51.5 -3q14 0 23 0.5t10 0.5l12.5 1t34 4t50.5 8t63 14q32 8 72 22.5t84 36t91 51.5t94 69q4 2 6 2q9 0 9 -9q0 -6 -3 -7q-77 -63 -165.5 -111t-183.5 -72q-68 -17 -113 -22t-50 -5q-2 0 -11.5 -0.5t-23.5 -0.5z
M-1 -201q-6 1 -6 7q0 10 8 10q2 0 2.5 -0.5t1.5 -0.5q51 -18 89 -18q17 0 35 5.5t32.5 15.5t23.5 24t9 30q0 17 -14 26t-31 14t-31 8.5t-14 9.5q0 2 2 6l57 70q3 3 7 3q3 0 6 -2.5t3 -5.5q0 -2 -2 -6l-47 -59q10 -2 24.5 -6t27 -11.5t21.5 -19.5t9 -28q0 -10 -6 -25.5
t-19.5 -30t-36 -25t-55.5 -10.5q-20 0 -43.5 4t-52.5 15z" />
    <glyph glyph-name="egrave" unicode="&#xe8;" horiz-adv-x="702" 
d="M41 13q-35 19 -49.5 50t-14.5 68q0 29 7.5 60t20.5 59.5t29 53t33 42.5q-16 8 -23.5 12t-9.5 6.5t-1.5 3.5t0.5 3q0 9 9 9q4 0 3 0.5t0 -1t7.5 -5.5t27.5 -14q84 90 175.5 143t176.5 53q29 0 56 -8t48 -22.5t33.5 -35t12.5 -45.5q0 -42 -25.5 -74t-63 -53t-80.5 -31.5
t-79 -10.5q-44 0 -84 7.5t-72.5 17t-56.5 20t-37 16.5q-15 -14 -31 -37.5t-28.5 -51t-21 -58t-8.5 -59.5q0 -57 39.5 -91t122.5 -34q32 0 65 4.5t63 11t54 14t39 13.5q40 16 78.5 34.5t78 41.5t81.5 53.5t90 71.5q4 2 6 2q3 0 6 -2t3 -7q0 -4 -3 -7q-49 -42 -92 -72.5
t-83 -54t-79 -41.5t-80 -35q-22 -8 -49 -16t-56.5 -14t-60.5 -10t-61 -4q-32 0 -62 5.5t-54 18.5zM123 339q16 -7 38.5 -15t49.5 -14.5t58 -11t63 -4.5q41 0 82 12t74 32t54 47.5t21 57.5q0 21 -10.5 38.5t-28.5 30.5t-41.5 20t-48.5 7q-32 0 -69.5 -9t-80 -30.5t-90 -57.5
t-98.5 -91zM533 615q-49 0 -97.5 9.5t-90 30.5t-73 55t-45.5 82q-7 22 -8 36t-1 15q0 9 9 9h6.5t0.5 -4.5t1.5 -16t8.5 -35.5q16 -48 46.5 -79t70.5 -49.5t85.5 -26t90.5 -7.5h27.5t27.5 2q8 0 10 -8q0 -6 -8 -9t-19 -3.5t-23 -0.5h-19z" />
    <glyph glyph-name="eacute" unicode="&#xe9;" horiz-adv-x="702" 
d="M41 13q-35 19 -49.5 50t-14.5 68q0 29 7.5 60t20.5 59.5t29 53t33 42.5q-16 8 -23.5 12t-9.5 6.5t-1.5 3.5t0.5 3q0 9 9 9q4 0 3 0.5t0 -1t7.5 -5.5t27.5 -14q84 90 175.5 143t176.5 53q29 0 56 -8t48 -22.5t33.5 -35t12.5 -45.5q0 -42 -25.5 -74t-63 -53t-80.5 -31.5
t-79 -10.5q-44 0 -84 7.5t-72.5 17t-56.5 20t-37 16.5q-15 -14 -31 -37.5t-28.5 -51t-21 -58t-8.5 -59.5q0 -57 39.5 -91t122.5 -34q32 0 65 4.5t63 11t54 14t39 13.5q40 16 78.5 34.5t78 41.5t81.5 53.5t90 71.5q4 2 6 2q3 0 6 -2t3 -7q0 -4 -3 -7q-49 -42 -92 -72.5
t-83 -54t-79 -41.5t-80 -35q-22 -8 -49 -16t-56.5 -14t-60.5 -10t-61 -4q-32 0 -62 5.5t-54 18.5zM123 339q16 -7 38.5 -15t49.5 -14.5t58 -11t63 -4.5q41 0 82 12t74 32t54 47.5t21 57.5q0 21 -10.5 38.5t-28.5 30.5t-41.5 20t-48.5 7q-32 0 -69.5 -9t-80 -30.5t-90 -57.5
t-98.5 -91zM240 609q-7 2 -7 9q0 3 2 6t6 3q17 0 33.5 -2t33.5 -2q103 0 205 34t185 88q4 2 6 2q8 0 8 -9q0 -5 -4 -8q-94 -60 -195 -92.5t-206 -32.5q-17 0 -33.5 1t-33.5 3z" />
    <glyph glyph-name="ecircumflex" unicode="&#xea;" horiz-adv-x="702" 
d="M41 13q-35 19 -49.5 50t-14.5 68q0 29 7.5 60t20.5 59.5t29 53t33 42.5q-16 8 -23.5 12t-9.5 6.5t-1.5 3.5t0.5 3q0 9 9 9q4 0 3 0.5t0 -1t7.5 -5.5t27.5 -14q84 90 175.5 143t176.5 53q29 0 56 -8t48 -22.5t33.5 -35t12.5 -45.5q0 -42 -25.5 -74t-63 -53t-80.5 -31.5
t-79 -10.5q-44 0 -84 7.5t-72.5 17t-56.5 20t-37 16.5q-15 -14 -31 -37.5t-28.5 -51t-21 -58t-8.5 -59.5q0 -57 39.5 -91t122.5 -34q32 0 65 4.5t63 11t54 14t39 13.5q40 16 78.5 34.5t78 41.5t81.5 53.5t90 71.5q4 2 6 2q3 0 6 -2t3 -7q0 -4 -3 -7q-49 -42 -92 -72.5
t-83 -54t-79 -41.5t-80 -35q-22 -8 -49 -16t-56.5 -14t-60.5 -10t-61 -4q-32 0 -62 5.5t-54 18.5zM123 339q16 -7 38.5 -15t49.5 -14.5t58 -11t63 -4.5q41 0 82 12t74 32t54 47.5t21 57.5q0 21 -10.5 38.5t-28.5 30.5t-41.5 20t-48.5 7q-32 0 -69.5 -9t-80 -30.5t-90 -57.5
t-98.5 -91zM728 564q-54 0 -89 37t-39 95q-88 -51 -178.5 -76.5t-178.5 -25.5q-35 0 -54.5 3t-20.5 3q-7 2 -7 9q0 9 9 9h2q8 -2 19 -3q18 -3 52 -3q22 0 58 2.5t83 13.5t102.5 32t116.5 59q1 1 4 1q10 0 10 -9q0 -1 1.5 -21.5t12.5 -44.5q28 -63 97 -63q9 0 9 -9t-9 -9z
" />
    <glyph glyph-name="edieresis" unicode="&#xeb;" horiz-adv-x="702" 
d="M41 13q-35 19 -49.5 50t-14.5 68q0 29 7.5 60t20.5 59.5t29 53t33 42.5q-16 8 -23.5 12t-9.5 6.5t-1.5 3.5t0.5 3q0 9 9 9q4 0 3 0.5t0 -1t7.5 -5.5t27.5 -14q84 90 175.5 143t176.5 53q29 0 56 -8t48 -22.5t33.5 -35t12.5 -45.5q0 -42 -25.5 -74t-63 -53t-80.5 -31.5
t-79 -10.5q-44 0 -84 7.5t-72.5 17t-56.5 20t-37 16.5q-15 -14 -31 -37.5t-28.5 -51t-21 -58t-8.5 -59.5q0 -57 39.5 -91t122.5 -34q32 0 65 4.5t63 11t54 14t39 13.5q40 16 78.5 34.5t78 41.5t81.5 53.5t90 71.5q4 2 6 2q3 0 6 -2t3 -7q0 -4 -3 -7q-49 -42 -92 -72.5
t-83 -54t-79 -41.5t-80 -35q-22 -8 -49 -16t-56.5 -14t-60.5 -10t-61 -4q-32 0 -62 5.5t-54 18.5zM123 339q16 -7 38.5 -15t49.5 -14.5t58 -11t63 -4.5q41 0 82 12t74 32t54 47.5t21 57.5q0 21 -10.5 38.5t-28.5 30.5t-41.5 20t-48.5 7q-32 0 -69.5 -9t-80 -30.5t-90 -57.5
t-98.5 -91zM427 647q0 -23 -15.5 -38.5t-38.5 -15.5t-38.5 15.5t-15.5 38.5t15.5 38.5t38.5 15.5t38.5 -15.5t15.5 -38.5zM589 647q0 -23 -15.5 -38.5t-38.5 -15.5t-38.5 15.5t-15.5 38.5t15.5 38.5t38.5 15.5t38.5 -15.5t15.5 -38.5z" />
    <glyph glyph-name="igrave" unicode="&#xec;" horiz-adv-x="429" 
d="M29 4q-17 0 -34 2t-30.5 9.5t-21.5 21.5t-8 37q0 30 13.5 64.5t34 69.5t43.5 68t42 60q27 39 53.5 74t48 62t35 43l13.5 16q1 3 7 3q9 0 9 -9q0 -2 -2 -6l-13.5 -16t-35 -42.5t-48 -61.5t-53.5 -73q-18 -25 -40 -57t-42 -66t-33.5 -67.5t-13.5 -61.5q0 -18 7 -28.5
t18 -15.5t24.5 -6.5t26.5 -1.5q43 0 94 17.5t102.5 46t102 64.5t93.5 74q4 2 6 2q9 0 9 -9q0 -4 -3 -7q-45 -38 -94.5 -75t-101.5 -66t-104.5 -47t-103.5 -18zM399 600q-49 0 -97.5 9.5t-90 30.5t-73 55t-45.5 82q-7 22 -8 36t-1 15q0 9 9 9h6.5t0.5 -4.5t1.5 -16t8.5 -35.5
q16 -48 46.5 -79t70.5 -49.5t85.5 -26t90.5 -7.5h27.5t27.5 2q8 0 10 -8q0 -6 -8 -9t-19 -3.5t-23 -0.5h-19z" />
    <glyph glyph-name="iacute" unicode="&#xed;" horiz-adv-x="429" 
d="M29 4q-17 0 -34 2t-30.5 9.5t-21.5 21.5t-8 37q0 30 13.5 64.5t34 69.5t43.5 68t42 60q27 39 53.5 74t48 62t35 43l13.5 16q1 3 7 3q9 0 9 -9q0 -2 -2 -6l-13.5 -16t-35 -42.5t-48 -61.5t-53.5 -73q-18 -25 -40 -57t-42 -66t-33.5 -67.5t-13.5 -61.5q0 -18 7 -28.5
t18 -15.5t24.5 -6.5t26.5 -1.5q43 0 94 17.5t102.5 46t102 64.5t93.5 74q4 2 6 2q9 0 9 -9q0 -4 -3 -7q-45 -38 -94.5 -75t-101.5 -66t-104.5 -47t-103.5 -18zM75 595q-7 2 -7 9q0 3 2 6t6 3q17 0 33.5 -2t33.5 -2q103 0 205 34t185 88q4 2 6 2q8 0 8 -9q0 -5 -4 -8
q-94 -60 -195 -92.5t-206 -32.5q-17 0 -33.5 1t-33.5 3z" />
    <glyph glyph-name="icircumflex" unicode="&#xee;" horiz-adv-x="429" 
d="M29 4q-17 0 -34 2t-30.5 9.5t-21.5 21.5t-8 37q0 30 13.5 64.5t34 69.5t43.5 68t42 60q27 39 53.5 74t48 62t35 43l13.5 16q1 3 7 3q9 0 9 -9q0 -2 -2 -6l-13.5 -16t-35 -42.5t-48 -61.5t-53.5 -73q-18 -25 -40 -57t-42 -66t-33.5 -67.5t-13.5 -61.5q0 -18 7 -28.5
t18 -15.5t24.5 -6.5t26.5 -1.5q43 0 94 17.5t102.5 46t102 64.5t93.5 74q4 2 6 2q9 0 9 -9q0 -4 -3 -7q-45 -38 -94.5 -75t-101.5 -66t-104.5 -47t-103.5 -18zM549 559q-54 0 -89 37t-39 95q-88 -51 -178.5 -76.5t-178.5 -25.5q-35 0 -54.5 3t-20.5 3q-7 2 -7 9q0 9 9 9h2
q8 -2 19 -3q18 -3 52 -3q22 0 58 2.5t83 13.5t102.5 32t116.5 59q1 1 4 1q10 0 10 -9q0 -1 1.5 -21.5t12.5 -44.5q28 -63 97 -63q9 0 9 -9t-9 -9z" />
    <glyph glyph-name="idieresis" unicode="&#xef;" horiz-adv-x="429" 
d="M29 4q-17 0 -34 2t-30.5 9.5t-21.5 21.5t-8 37q0 30 13.5 64.5t34 69.5t43.5 68t42 60q27 39 53.5 74t48 62t35 43l13.5 16q1 3 7 3q9 0 9 -9q0 -2 -2 -6l-13.5 -16t-35 -42.5t-48 -61.5t-53.5 -73q-18 -25 -40 -57t-42 -66t-33.5 -67.5t-13.5 -61.5q0 -18 7 -28.5
t18 -15.5t24.5 -6.5t26.5 -1.5q43 0 94 17.5t102.5 46t102 64.5t93.5 74q4 2 6 2q9 0 9 -9q0 -4 -3 -7q-45 -38 -94.5 -75t-101.5 -66t-104.5 -47t-103.5 -18zM236 632q0 -23 -15.5 -38.5t-38.5 -15.5t-38.5 15.5t-15.5 38.5t15.5 38.5t38.5 15.5t38.5 -15.5t15.5 -38.5z
M398 632q0 -23 -15.5 -38.5t-38.5 -15.5t-38.5 15.5t-15.5 38.5t15.5 38.5t38.5 15.5t38.5 -15.5t15.5 -38.5z" />
    <glyph glyph-name="ntilde" unicode="&#xf1;" horiz-adv-x="853" 
d="M-173 4q-2 -2 11.5 16t36 48.5t51.5 71t59 85.5q43 64 69 108.5t40.5 74.5t19.5 47t5 26q0 6 -1.5 8.5t-1.5 5.5q0 9 9 9q11 0 11 -22t-28 -82.5t-95 -165.5q128 137 249.5 207t227.5 70q61 0 97 -19.5t36 -60.5q0 -20 -8 -40.5t-18 -37.5t-18 -27.5t-9 -11.5l-6.5 -8.5
t-17.5 -22.5t-24.5 -32t-26.5 -39q-61 -95 -61 -146q0 -21 13 -35.5t42 -14.5q34 0 85.5 24t120.5 72q32 22 60.5 44t50.5 40t34.5 29.5l12.5 11.5q4 2 6 2q9 0 9 -9q0 -4 -3 -7q-22 -20 -48 -41q-22 -18 -50.5 -40.5t-60.5 -44.5q-140 -98 -217 -98q-35 0 -54 19t-19 48
q0 58 64 156q14 20 27.5 39t24.5 33q13 17 25 31q13 17 24 35q9 15 16.5 34t7.5 36q0 62 -116 62q-61 0 -121 -21.5t-116 -55.5t-107 -77.5t-94 -87.5t-77 -85t-57 -70l-28.5 -38l-24 -32t-16.5 -23l-6 -9zM728 572q-7 2 -7 9q0 1 0.5 3t0.5 12q0 6 -2.5 17.5t-10.5 23
t-23.5 20t-40.5 8.5t-47.5 -14.5t-46.5 -32t-50.5 -32t-58.5 -14.5q-35 0 -51 19t-16 48q0 19 2 29t4 14t4.5 4h4.5q9 0 9 -10v-2q-1 -1 -3.5 -11t-2.5 -24q0 -21 11 -35t38 -14q30 0 54 14.5t47.5 32.5t47 32.5t52.5 14.5q38 0 58 -14.5t28.5 -31.5t9.5 -31t1 -13
q0 -14 -2 -18t-8 -4h-2z" />
    <glyph glyph-name="ograve" unicode="&#xf2;" horiz-adv-x="866" 
d="M131 -10q-41 2 -69.5 16t-46 35t-25.5 46.5t-8 52.5q0 39 13 74.5t32.5 67t42.5 58t44 46.5q85 82 173 122t159 40q38 0 65 -9t45 -19.5t26.5 -19.5t9.5 -10q1 -2 1 -6t-1 -5q17 -4 25 -18t8 -31q0 -38 -29 -93t-92 -124q32 -33 72 -48.5t85 -15.5q50 0 101 19t97 55
q2 2 5 2q10 0 10 -10q0 -5 -3 -6q-49 -38 -102 -58t-107 -20q-49 0 -93.5 16.5t-76.5 51.5q-43 -48 -88.5 -86.5t-91.5 -65.5t-89.5 -42t-81.5 -15h-10zM449 531q-32 0 -70 -9t-79 -27q-40 -18 -91.5 -54t-98 -84t-78.5 -104t-32 -113q0 -24 7 -48t23.5 -42.5t44 -30
t67.5 -11.5q71 0 161 54t179 153q-13 20 -18.5 45.5t-5.5 52.5q0 33 8.5 63.5t23.5 54t37 37t49 13.5q-4 5 -13.5 13.5t-25 16.5t-37.5 14t-51 6zM576 463q-42 -1 -71 -40.5t-29 -108.5q0 -23 4 -44.5t14 -40.5q51 60 82 112t31 89q0 15 -7 24t-24 9zM570 620
q-49 0 -97.5 9.5t-90 30.5t-73 55t-45.5 82q-7 22 -8 36t-1 15q0 9 9 9h6.5t0.5 -4.5t1.5 -16t8.5 -35.5q16 -48 46.5 -79t70.5 -49.5t85.5 -26t90.5 -7.5h27.5t27.5 2q8 0 10 -8q0 -6 -8 -9t-19 -3.5t-23 -0.5h-19z" />
    <glyph glyph-name="oacute" unicode="&#xf3;" horiz-adv-x="866" 
d="M131 -10q-41 2 -69.5 16t-46 35t-25.5 46.5t-8 52.5q0 39 13 74.5t32.5 67t42.5 58t44 46.5q85 82 173 122t159 40q38 0 65 -9t45 -19.5t26.5 -19.5t9.5 -10q1 -2 1 -6t-1 -5q17 -4 25 -18t8 -31q0 -38 -29 -93t-92 -124q32 -33 72 -48.5t85 -15.5q50 0 101 19t97 55
q2 2 5 2q10 0 10 -10q0 -5 -3 -6q-49 -38 -102 -58t-107 -20q-49 0 -93.5 16.5t-76.5 51.5q-43 -48 -88.5 -86.5t-91.5 -65.5t-89.5 -42t-81.5 -15h-10zM449 531q-32 0 -70 -9t-79 -27q-40 -18 -91.5 -54t-98 -84t-78.5 -104t-32 -113q0 -24 7 -48t23.5 -42.5t44 -30
t67.5 -11.5q71 0 161 54t179 153q-13 20 -18.5 45.5t-5.5 52.5q0 33 8.5 63.5t23.5 54t37 37t49 13.5q-4 5 -13.5 13.5t-25 16.5t-37.5 14t-51 6zM576 463q-42 -1 -71 -40.5t-29 -108.5q0 -23 4 -44.5t14 -40.5q51 60 82 112t31 89q0 15 -7 24t-24 9zM269 614q-7 2 -7 9
q0 3 2 6t6 3q17 0 33.5 -2t33.5 -2q103 0 205 34t185 88q4 2 6 2q8 0 8 -9q0 -5 -4 -8q-94 -60 -195 -92.5t-206 -32.5q-17 0 -33.5 1t-33.5 3z" />
    <glyph glyph-name="ocircumflex" unicode="&#xf4;" horiz-adv-x="866" 
d="M131 -10q-41 2 -69.5 16t-46 35t-25.5 46.5t-8 52.5q0 39 13 74.5t32.5 67t42.5 58t44 46.5q85 82 173 122t159 40q38 0 65 -9t45 -19.5t26.5 -19.5t9.5 -10q1 -2 1 -6t-1 -5q17 -4 25 -18t8 -31q0 -38 -29 -93t-92 -124q32 -33 72 -48.5t85 -15.5q50 0 101 19t97 55
q2 2 5 2q10 0 10 -10q0 -5 -3 -6q-49 -38 -102 -58t-107 -20q-49 0 -93.5 16.5t-76.5 51.5q-43 -48 -88.5 -86.5t-91.5 -65.5t-89.5 -42t-81.5 -15h-10zM449 531q-32 0 -70 -9t-79 -27q-40 -18 -91.5 -54t-98 -84t-78.5 -104t-32 -113q0 -24 7 -48t23.5 -42.5t44 -30
t67.5 -11.5q71 0 161 54t179 153q-13 20 -18.5 45.5t-5.5 52.5q0 33 8.5 63.5t23.5 54t37 37t49 13.5q-4 5 -13.5 13.5t-25 16.5t-37.5 14t-51 6zM576 463q-42 -1 -71 -40.5t-29 -108.5q0 -23 4 -44.5t14 -40.5q51 60 82 112t31 89q0 15 -7 24t-24 9zM761 574q-54 0 -89 37
t-39 95q-88 -51 -178.5 -76.5t-178.5 -25.5q-35 0 -54.5 3t-20.5 3q-7 2 -7 9q0 9 9 9h2q8 -2 19 -3q18 -3 52 -3q22 0 58 2.5t83 13.5t102.5 32t116.5 59q1 1 4 1q10 0 10 -9q0 -1 1.5 -21.5t12.5 -44.5q28 -63 97 -63q9 0 9 -9t-9 -9z" />
    <glyph glyph-name="otilde" unicode="&#xf5;" horiz-adv-x="866" 
d="M131 -10q-41 2 -69.5 16t-46 35t-25.5 46.5t-8 52.5q0 39 13 74.5t32.5 67t42.5 58t44 46.5q85 82 173 122t159 40q38 0 65 -9t45 -19.5t26.5 -19.5t9.5 -10q1 -2 1 -6t-1 -5q17 -4 25 -18t8 -31q0 -38 -29 -93t-92 -124q32 -33 72 -48.5t85 -15.5q50 0 101 19t97 55
q2 2 5 2q10 0 10 -10q0 -5 -3 -6q-49 -38 -102 -58t-107 -20q-49 0 -93.5 16.5t-76.5 51.5q-43 -48 -88.5 -86.5t-91.5 -65.5t-89.5 -42t-81.5 -15h-10zM449 531q-32 0 -70 -9t-79 -27q-40 -18 -91.5 -54t-98 -84t-78.5 -104t-32 -113q0 -24 7 -48t23.5 -42.5t44 -30
t67.5 -11.5q71 0 161 54t179 153q-13 20 -18.5 45.5t-5.5 52.5q0 33 8.5 63.5t23.5 54t37 37t49 13.5q-4 5 -13.5 13.5t-25 16.5t-37.5 14t-51 6zM576 463q-42 -1 -71 -40.5t-29 -108.5q0 -23 4 -44.5t14 -40.5q51 60 82 112t31 89q0 15 -7 24t-24 9zM705 596q-7 2 -7 9
q0 1 0.5 3t0.5 12q0 6 -2.5 17.5t-10.5 23t-23.5 20t-40.5 8.5t-47.5 -14.5t-46.5 -32t-50.5 -32t-58.5 -14.5q-35 0 -51 19t-16 48q0 19 2 29t4 14t4.5 4h4.5q9 0 9 -10v-2q-1 -1 -3.5 -11t-2.5 -24q0 -21 11 -35t38 -14q30 0 54 14.5t47.5 32.5t47 32.5t52.5 14.5
q38 0 58 -14.5t28.5 -31.5t9.5 -31t1 -13q0 -14 -2 -18t-8 -4h-2z" />
    <glyph glyph-name="odieresis" unicode="&#xf6;" horiz-adv-x="866" 
d="M131 -10q-41 2 -69.5 16t-46 35t-25.5 46.5t-8 52.5q0 39 13 74.5t32.5 67t42.5 58t44 46.5q85 82 173 122t159 40q38 0 65 -9t45 -19.5t26.5 -19.5t9.5 -10q1 -2 1 -6t-1 -5q17 -4 25 -18t8 -31q0 -38 -29 -93t-92 -124q32 -33 72 -48.5t85 -15.5q50 0 101 19t97 55
q2 2 5 2q10 0 10 -10q0 -5 -3 -6q-49 -38 -102 -58t-107 -20q-49 0 -93.5 16.5t-76.5 51.5q-43 -48 -88.5 -86.5t-91.5 -65.5t-89.5 -42t-81.5 -15h-10zM449 531q-32 0 -70 -9t-79 -27q-40 -18 -91.5 -54t-98 -84t-78.5 -104t-32 -113q0 -24 7 -48t23.5 -42.5t44 -30
t67.5 -11.5q71 0 161 54t179 153q-13 20 -18.5 45.5t-5.5 52.5q0 33 8.5 63.5t23.5 54t37 37t49 13.5q-4 5 -13.5 13.5t-25 16.5t-37.5 14t-51 6zM576 463q-42 -1 -71 -40.5t-29 -108.5q0 -23 4 -44.5t14 -40.5q51 60 82 112t31 89q0 15 -7 24t-24 9zM474 647
q0 -23 -15.5 -38.5t-38.5 -15.5t-38.5 15.5t-15.5 38.5t15.5 38.5t38.5 15.5t38.5 -15.5t15.5 -38.5zM636 647q0 -23 -15.5 -38.5t-38.5 -15.5t-38.5 15.5t-15.5 38.5t15.5 38.5t38.5 15.5t38.5 -15.5t15.5 -38.5z" />
    <glyph glyph-name="oslash" unicode="&#xf8;" horiz-adv-x="866" 
d="M31 -195q-9 0 -9 9q0 1 2 5l566 885q4 4 7 4q10 0 10 -9q0 -3 -2 -5l-566 -885q-3 -4 -8 -4zM131 -10q-41 2 -69.5 16t-46 35t-25.5 46.5t-8 52.5q0 39 13 74.5t32.5 67t42.5 58t44 46.5q85 82 173 122t159 40q38 0 65 -9t45 -19.5t26.5 -19.5t9.5 -10q1 -2 1 -6t-1 -5
q17 -4 25 -18t8 -31q0 -38 -29 -93t-92 -124q32 -33 72 -48.5t85 -15.5q50 0 101 19t97 55q2 2 5 2q10 0 10 -10q0 -5 -3 -6q-49 -38 -102 -58t-107 -20q-49 0 -93.5 16.5t-76.5 51.5q-43 -48 -88.5 -86.5t-91.5 -65.5t-89.5 -42t-81.5 -15h-10zM449 531q-32 0 -70 -9
t-79 -27q-40 -18 -91.5 -54t-98 -84t-78.5 -104t-32 -113q0 -24 7 -48t23.5 -42.5t44 -30t67.5 -11.5q71 0 161 54t179 153q-13 20 -18.5 45.5t-5.5 52.5q0 33 8.5 63.5t23.5 54t37 37t49 13.5q-4 5 -13.5 13.5t-25 16.5t-37.5 14t-51 6zM576 463q-42 -1 -71 -40.5
t-29 -108.5q0 -23 4 -44.5t14 -40.5q51 60 82 112t31 89q0 15 -7 24t-24 9z" />
    <glyph glyph-name="ugrave" unicode="&#xf9;" horiz-adv-x="839" 
d="M466 -9q-33 0 -56 15t-23 50q0 30 19 75.5t60 107.5q-63 -55 -119.5 -99t-115.5 -75q-43 -22 -77 -34t-58.5 -17t-38.5 -6t-17 -1q-1 0 -15.5 0.5t-31 6.5t-30.5 21t-14 45q0 43 40 119.5t118 188.5q33 48 55 77.5t34.5 45.5t18 21.5t6.5 5.5q9 0 9 -10q0 -3 -2 -5
l-19.5 -25.5t-48.5 -65.5t-63 -89.5t-62.5 -98.5t-48 -92.5t-19.5 -71.5q0 -31 20.5 -43.5t49.5 -12.5q24 0 52 6.5t54.5 16t48 19.5t33.5 16q56 30 133.5 88t170.5 159q27 32 56.5 68t54 66.5t40.5 51l16 20.5l14 -12q-37 -47 -77.5 -94t-79 -95.5t-72 -99t-57.5 -104.5
q-18 -41 -18 -70q0 -52 60 -52q32 0 73.5 15.5t88 43.5t96.5 67.5t100 87.5q4 2 7 2q8 0 8 -9q0 -4 -2 -6q-51 -50 -102 -90t-99 -68t-91 -43.5t-79 -16.5zM606 609q-49 0 -97.5 9.5t-90 30.5t-73 55t-45.5 82q-7 22 -8 36t-1 15q0 9 9 9h6.5t0.5 -4.5t1.5 -16t8.5 -35.5
q16 -48 46.5 -79t70.5 -49.5t85.5 -26t90.5 -7.5h27.5t27.5 2q8 0 10 -8q0 -6 -8 -9t-19 -3.5t-23 -0.5h-19z" />
    <glyph glyph-name="uacute" unicode="&#xfa;" horiz-adv-x="839" 
d="M466 -9q-33 0 -56 15t-23 50q0 30 19 75.5t60 107.5q-63 -55 -119.5 -99t-115.5 -75q-43 -22 -77 -34t-58.5 -17t-38.5 -6t-17 -1q-1 0 -15.5 0.5t-31 6.5t-30.5 21t-14 45q0 43 40 119.5t118 188.5q33 48 55 77.5t34.5 45.5t18 21.5t6.5 5.5q9 0 9 -10q0 -3 -2 -5
l-19.5 -25.5t-48.5 -65.5t-63 -89.5t-62.5 -98.5t-48 -92.5t-19.5 -71.5q0 -31 20.5 -43.5t49.5 -12.5q24 0 52 6.5t54.5 16t48 19.5t33.5 16q56 30 133.5 88t170.5 159q27 32 56.5 68t54 66.5t40.5 51l16 20.5l14 -12q-37 -47 -77.5 -94t-79 -95.5t-72 -99t-57.5 -104.5
q-18 -41 -18 -70q0 -52 60 -52q32 0 73.5 15.5t88 43.5t96.5 67.5t100 87.5q4 2 7 2q8 0 8 -9q0 -4 -2 -6q-51 -50 -102 -90t-99 -68t-91 -43.5t-79 -16.5zM328 585q-7 2 -7 9q0 3 2 6t6 3q17 0 33.5 -2t33.5 -2q103 0 205 34t185 88q4 2 6 2q8 0 8 -9q0 -5 -4 -8
q-94 -60 -195 -92.5t-206 -32.5q-17 0 -33.5 1t-33.5 3z" />
    <glyph glyph-name="ucircumflex" unicode="&#xfb;" horiz-adv-x="839" 
d="M466 -9q-33 0 -56 15t-23 50q0 30 19 75.5t60 107.5q-63 -55 -119.5 -99t-115.5 -75q-43 -22 -77 -34t-58.5 -17t-38.5 -6t-17 -1q-1 0 -15.5 0.5t-31 6.5t-30.5 21t-14 45q0 43 40 119.5t118 188.5q33 48 55 77.5t34.5 45.5t18 21.5t6.5 5.5q9 0 9 -10q0 -3 -2 -5
l-19.5 -25.5t-48.5 -65.5t-63 -89.5t-62.5 -98.5t-48 -92.5t-19.5 -71.5q0 -31 20.5 -43.5t49.5 -12.5q24 0 52 6.5t54.5 16t48 19.5t33.5 16q56 30 133.5 88t170.5 159q27 32 56.5 68t54 66.5t40.5 51l16 20.5l14 -12q-37 -47 -77.5 -94t-79 -95.5t-72 -99t-57.5 -104.5
q-18 -41 -18 -70q0 -52 60 -52q32 0 73.5 15.5t88 43.5t96.5 67.5t100 87.5q4 2 7 2q8 0 8 -9q0 -4 -2 -6q-51 -50 -102 -90t-99 -68t-91 -43.5t-79 -16.5zM763 593q-54 0 -89 37t-39 95q-88 -51 -178.5 -76.5t-178.5 -25.5q-35 0 -54.5 3t-20.5 3q-7 2 -7 9q0 9 9 9h2
q8 -2 19 -3q18 -3 52 -3q22 0 58 2.5t83 13.5t102.5 32t116.5 59q1 1 4 1q10 0 10 -9q0 -1 1.5 -21.5t12.5 -44.5q28 -63 97 -63q9 0 9 -9t-9 -9z" />
    <glyph glyph-name="udieresis" unicode="&#xfc;" horiz-adv-x="839" 
d="M466 -9q-33 0 -56 15t-23 50q0 30 19 75.5t60 107.5q-63 -55 -119.5 -99t-115.5 -75q-43 -22 -77 -34t-58.5 -17t-38.5 -6t-17 -1q-1 0 -15.5 0.5t-31 6.5t-30.5 21t-14 45q0 43 40 119.5t118 188.5q33 48 55 77.5t34.5 45.5t18 21.5t6.5 5.5q9 0 9 -10q0 -3 -2 -5
l-19.5 -25.5t-48.5 -65.5t-63 -89.5t-62.5 -98.5t-48 -92.5t-19.5 -71.5q0 -31 20.5 -43.5t49.5 -12.5q24 0 52 6.5t54.5 16t48 19.5t33.5 16q56 30 133.5 88t170.5 159q27 32 56.5 68t54 66.5t40.5 51l16 20.5l14 -12q-37 -47 -77.5 -94t-79 -95.5t-72 -99t-57.5 -104.5
q-18 -41 -18 -70q0 -52 60 -52q32 0 73.5 15.5t88 43.5t96.5 67.5t100 87.5q4 2 7 2q8 0 8 -9q0 -4 -2 -6q-51 -50 -102 -90t-99 -68t-91 -43.5t-79 -16.5zM461 633q0 -23 -15.5 -38.5t-38.5 -15.5t-38.5 15.5t-15.5 38.5t15.5 38.5t38.5 15.5t38.5 -15.5t15.5 -38.5z
M623 633q0 -23 -15.5 -38.5t-38.5 -15.5t-38.5 15.5t-15.5 38.5t15.5 38.5t38.5 15.5t38.5 -15.5t15.5 -38.5z" />
    <glyph glyph-name="yacute" unicode="&#xfd;" horiz-adv-x="789" 
d="M-166 -594q-35 1 -51 18t-16 43q0 33 24 71.5t65 79.5t96 83.5t116.5 84t127 80.5t126.5 73q17 30 45 82t62 112q-33 -24 -71 -49t-78.5 -45t-82.5 -32.5t-82 -12.5q-60 0 -101 29t-41 85q0 28 9.5 57t24 57.5t32.5 55t35 49.5q19 26 47 55.5t62.5 57t74.5 52t84 40.5
q1 0 1.5 0.5t1.5 0.5q4 0 7 -3t3 -6q0 -7 -6 -9q-43 -16 -81 -39t-71 -49.5t-60 -54.5t-48 -55q-1 -1 -16 -21t-33 -51t-33 -67.5t-15 -70.5q0 -24 10 -42t26.5 -29.5t38.5 -17.5t46 -6q43 0 89 15.5t91 39.5t85.5 52t72.5 53q27 49 54.5 98.5t51 91.5t40.5 73t24 45
q8 17 24 30t34 13q2 0 8.5 -0.5t13 -4.5t11.5 -13t5 -26q0 -21 -13.5 -51t-40.5 -67.5t-68 -81t-96 -90.5q-8 -7 -16.5 -14t-17.5 -15q-33 -60 -63.5 -114t-50.5 -92q51 27 82.5 43t32.5 16l26.5 13.5t70 39t101.5 63.5t121 89q4 2 6 2q3 0 5.5 -3t2.5 -6q0 -6 -3 -7
q-63 -51 -121 -89t-102.5 -64t-71 -39.5t-27.5 -14.5q-8 -4 -43.5 -21.5t-95.5 -50.5l-2 -4l-2 -4q-15 -29 -38 -66.5t-52 -79.5t-63 -86.5t-71 -87.5q-29 -33 -62.5 -67t-69.5 -61.5t-72 -45t-69 -17.5zM306 -91q-106 -59 -200.5 -120t-165.5 -119.5t-112.5 -110.5
t-41.5 -92q0 -18 11 -30.5t38 -12.5q48 0 115.5 48.5t143.5 136.5q34 39 65.5 80t58.5 80.5t49.5 75t38.5 64.5zM637 472q-7 -12 -21.5 -38.5t-34.5 -62.5t-44 -79.5t-49 -88.5q104 90 157.5 163.5t53.5 112.5q0 14 -6 20.5t-14 6.5q-13 0 -24 -11.5t-18 -22.5zM352 619
q-7 2 -7 9q0 3 2 6t6 3q17 0 33.5 -2t33.5 -2q103 0 205 34t185 88q4 2 6 2q8 0 8 -9q0 -5 -4 -8q-94 -60 -195 -92.5t-206 -32.5q-17 0 -33.5 1t-33.5 3z" />
    <glyph glyph-name="ydieresis" unicode="&#xff;" horiz-adv-x="789" 
d="M-166 -594q-35 1 -51 18t-16 43q0 33 24 71.5t65 79.5t96 83.5t116.5 84t127 80.5t126.5 73q17 30 45 82t62 112q-33 -24 -71 -49t-78.5 -45t-82.5 -32.5t-82 -12.5q-60 0 -101 29t-41 85q0 28 9.5 57t24 57.5t32.5 55t35 49.5q19 26 47 55.5t62.5 57t74.5 52t84 40.5
q1 0 1.5 0.5t1.5 0.5q4 0 7 -3t3 -6q0 -7 -6 -9q-43 -16 -81 -39t-71 -49.5t-60 -54.5t-48 -55q-1 -1 -16 -21t-33 -51t-33 -67.5t-15 -70.5q0 -24 10 -42t26.5 -29.5t38.5 -17.5t46 -6q43 0 89 15.5t91 39.5t85.5 52t72.5 53q27 49 54.5 98.5t51 91.5t40.5 73t24 45
q8 17 24 30t34 13q2 0 8.5 -0.5t13 -4.5t11.5 -13t5 -26q0 -21 -13.5 -51t-40.5 -67.5t-68 -81t-96 -90.5q-8 -7 -16.5 -14t-17.5 -15q-33 -60 -63.5 -114t-50.5 -92q51 27 82.5 43t32.5 16l26.5 13.5t70 39t101.5 63.5t121 89q4 2 6 2q3 0 5.5 -3t2.5 -6q0 -6 -3 -7
q-63 -51 -121 -89t-102.5 -64t-71 -39.5t-27.5 -14.5q-8 -4 -43.5 -21.5t-95.5 -50.5l-2 -4l-2 -4q-15 -29 -38 -66.5t-52 -79.5t-63 -86.5t-71 -87.5q-29 -33 -62.5 -67t-69.5 -61.5t-72 -45t-69 -17.5zM306 -91q-106 -59 -200.5 -120t-165.5 -119.5t-112.5 -110.5
t-41.5 -92q0 -18 11 -30.5t38 -12.5q48 0 115.5 48.5t143.5 136.5q34 39 65.5 80t58.5 80.5t49.5 75t38.5 64.5zM637 472q-7 -12 -21.5 -38.5t-34.5 -62.5t-44 -79.5t-49 -88.5q104 90 157.5 163.5t53.5 112.5q0 14 -6 20.5t-14 6.5q-13 0 -24 -11.5t-18 -22.5zM504 627
q0 -23 -15.5 -38.5t-38.5 -15.5t-38.5 15.5t-15.5 38.5t15.5 38.5t38.5 15.5t38.5 -15.5t15.5 -38.5zM666 627q0 -23 -15.5 -38.5t-38.5 -15.5t-38.5 15.5t-15.5 38.5t15.5 38.5t38.5 15.5t38.5 -15.5t15.5 -38.5z" />
    <glyph glyph-name="dotlessi" unicode="&#x131;" horiz-adv-x="429" 
d="M29 4q-17 0 -34 2t-30.5 9.5t-21.5 21.5t-8 37q0 30 13.5 64.5t34 69.5t43.5 68t42 60q27 39 53.5 74t48 62t35 43l13.5 16q1 3 7 3q9 0 9 -9q0 -2 -2 -6l-13.5 -16t-35 -42.5t-48 -61.5t-53.5 -73q-18 -25 -40 -57t-42 -66t-33.5 -67.5t-13.5 -61.5q0 -18 7 -28.5
t18 -15.5t24.5 -6.5t26.5 -1.5q43 0 94 17.5t102.5 46t102 64.5t93.5 74q4 2 6 2q9 0 9 -9q0 -4 -3 -7q-45 -38 -94.5 -75t-101.5 -66t-104.5 -47t-103.5 -18z" />
    <glyph glyph-name="Lslash" unicode="&#x141;" 
d="M926 488l-548 -256q-2 -1 -4 -1q-4 0 -6.5 3t-2.5 6q0 5 5 8l548 256q1 1 4 1q9 0 9 -10q0 -4 -5 -7zM540 -188q-43 24 -75.5 48.5t-58.5 49t-47 48.5t-40 45q-36 -27 -79 -42t-81 -15q-24 0 -50 5.5t-47.5 17t-35.5 29.5t-14 42t9.5 40.5t24.5 27.5t33.5 16t36.5 5
q65 -2 112.5 -30t93.5 -73q75 55 153 141t166 205q49 66 94.5 131.5t90 126.5t90 113.5t93.5 93.5q-33 11 -73 22.5t-74 11.5q-29 0 -53 -5t-42 -11t-28.5 -11t-11.5 -5q-4 -2 -5 -2q-4 0 -6.5 3t-2.5 6q0 6 5 8l11 5.5t29.5 12t45 12t58.5 5.5q19 0 40 -3.5t43 -9
t42.5 -12.5t38.5 -14q47 37 102 60t117 23q32 0 57.5 -18t25.5 -52q0 -14 -6 -28.5t-19.5 -26.5t-34.5 -19.5t-51 -7.5q-27 0 -49.5 4t-44.5 10.5t-45 15.5t-49 19q-49 -39 -95 -91.5t-91 -114t-91.5 -128.5t-96.5 -135q-88 -118 -167 -206t-154 -142q21 -21 41.5 -44
t45.5 -46.5t55.5 -47.5t72.5 -47q50 -28 95 -40.5t83 -12.5q22 0 44.5 5t40.5 16.5t29.5 29.5t11.5 45q0 20 -7.5 36.5t-17 28.5t-17 19t-7.5 8q0 10 9 10q2 1 6 -2q4 -2 10 -8t16 -20q26 -37 26 -73q0 -33 -14.5 -54.5t-36.5 -34.5t-47 -18.5t-46 -5.5q-41 0 -88.5 13
t-98.5 42zM30 39q3 -22 16.5 -36.5t32.5 -23t40.5 -12t39.5 -3.5q35 0 72.5 13.5t75.5 38.5q-42 42 -88 68.5t-103 26.5q-35 0 -60.5 -18.5t-25.5 -53.5zM1099 823q28 -11 55 -17.5t59 -6.5q19 0 36.5 3.5t31 11.5t21.5 19.5t8 28.5q0 16 -6.5 26t-17 16t-22.5 8.5t-22 2.5
q-56 -2 -103 -21t-93 -51q15 -6 28 -10.5t25 -9.5z" />
    <glyph glyph-name="lslash" unicode="&#x142;" horiz-adv-x="533" 
d="M663 673l-686 -316q-2 -1 -4 -1q-4 0 -6.5 3t-2.5 6q0 5 5 8l686 316q1 1 4 1q9 0 9 -10q0 -4 -5 -7zM57 -9q-29 0 -49 8t-32.5 21.5t-18.5 31t-6 35.5q0 21 4 36.5t5 17.5q19 53 48.5 112.5t63.5 119t69.5 116t66.5 103.5q33 51 63.5 94t54 74.5t37.5 50l14 18.5
q0 1 19.5 23t48.5 49.5t62.5 54.5t62.5 39q28 12 50 12q33 0 51.5 -21.5t18.5 -52.5q0 -21 -8 -46t-20.5 -50t-28 -49t-30.5 -45q-45 -62 -94.5 -115.5t-115.5 -110t-154.5 -121t-211.5 -148.5q-14 -29 -26.5 -57.5t-23.5 -56.5q-2 -6 -4 -14q-2 -7 -3 -15.5t-1 -17.5
q0 -40 26.5 -59.5t65.5 -19.5q31 0 66 11q63 19 115.5 40t100 46.5t93 56t94.5 68.5q4 2 6 2q9 0 9 -9q0 -6 -3 -7q-50 -38 -96.5 -69.5t-95 -57.5t-102 -48t-117.5 -40q-20 -6 -39 -8t-35 -2zM391 818q-2 -2 -19 -23.5t-43.5 -58.5t-61.5 -87.5t-72.5 -109.5t-76.5 -124.5
t-74 -133.5q78 54 140.5 98.5t113 84t91.5 74.5t75.5 70t65 70.5t59.5 75.5q41 57 62 103t21 77q0 25 -14.5 40t-38.5 15q-23 0 -48.5 -12.5t-50.5 -31.5t-48 -41t-41 -41t-29 -32z" />
    <glyph glyph-name="OE" unicode="&#x152;" horiz-adv-x="1723" 
d="M264 -35q-65 4 -112.5 25t-79 54.5t-47 77.5t-15.5 96q0 63 20 125t51.5 119t71.5 107.5t79 90.5q117 118 241 181.5t238 64.5h23.5t20.5 -7q41 17 81 17q75 0 125 -42t70 -113q1 -3 1.5 -5.5t0.5 -5.5q64 -8 104 -39.5t40 -89.5q0 -23 -8.5 -48.5t-29 -48.5t-55.5 -39.5
t-88 -21.5q-29 -64 -72.5 -125.5t-98 -117t-118 -102.5t-133 -81t-142 -53.5t-144.5 -19.5h-12t-12 1zM265 -17h16q77 0 148 19t134 49.5t118 70t100 81.5q63 58 113 124t82 135q-48 0 -93 9.5t-84.5 26.5t-71.5 41t-53 54q-21 -22 -40 -48t-36 -58q-2 -5 -7 -5
q-10 0 -10 10q0 3 1 4q18 34 38.5 62t42.5 51q-17 28 -25 58t-8 59q2 56 28 96t72 66h-29q-59 0 -120.5 -21t-121.5 -54.5t-114.5 -77t-99.5 -88.5q-39 -39 -77.5 -88.5t-69.5 -105t-50 -115.5t-19 -121q0 -102 60 -165t176 -69zM722 565q19 -18 46.5 -33.5t60 -27t68 -18
t70.5 -6.5h8.5t8.5 1q19 44 30.5 88t11.5 89q0 11 -1 31t-6 44h-11q-86 0 -168 -29t-154 -98q16 -22 36 -41zM1044 657q-2 -51 -13 -93t-27 -82q32 2 60 13.5t49 30.5t33.5 43t12.5 52q-1 31 -12.5 51t-29 32.5t-39 18.5t-41.5 9q5 -24 6 -43.5t1 -30.5v-1zM648 726
q0 -26 7 -52.5t22 -51.5q40 38 82.5 63t85.5 39.5t86 20.5t84 6q-20 72 -66.5 109.5t-112.5 37.5q-37 -1 -71 -14t-60 -35.5t-41.5 -53.5t-15.5 -69zM1224 -14q-54 2 -102 19t-84 47.5t-57 74.5t-21 101q0 50 11.5 90t29 70.5t37.5 53t37 36.5q38 32 77.5 52.5t84.5 29.5
q-16 44 -16 93q0 46 15 90q-12 12 -25.5 28.5t-25 37t-19 42.5t-7.5 44q0 7 8 9q8 0 10 -8q8 -44 24.5 -75.5t41.5 -59.5q17 43 42 75t52.5 54.5t54.5 36.5t49 21.5t36 10.5l14 3q24 3 48 3q28 0 55 -7t48 -22t34 -38.5t13 -55.5q0 -43 -22.5 -76.5t-57.5 -57t-77.5 -36
t-81.5 -12.5q-58 2 -107 18t-92 51q-12 -41 -12 -81q0 -45 17 -85q15 3 29.5 4t28.5 1q15 0 34.5 -2t37 -8t29.5 -17t12 -30q0 -23 -16 -32.5t-36 -9.5q-48 0 -81.5 23.5t-47.5 50.5q-60 -12 -109.5 -42t-84.5 -72t-54 -94t-19 -108t22 -98t57.5 -70t79 -41.5t86.5 -13.5
q58 0 112.5 15t102 43t85.5 69t64 94q1 6 8 6q10 0 10 -10q0 -1 -0.5 -1.5t-0.5 -1.5q-58 -112 -157 -172t-224 -60zM1408 502q1 3 1 9q0 16 -13 24t-29 11.5t-30.5 4t-16.5 0.5q-17 0 -30.5 -1.5t-24.5 -3.5q17 -27 48 -43.5t60 -16.5q26 0 35 16zM1450 678q42 1 82 13
t70.5 33.5t49.5 51.5t19 68q0 51 -36 76.5t-99 25.5q-46 0 -89 -15t-79.5 -41.5t-65 -62.5t-45.5 -79q40 -37 91 -53.5t102 -16.5z" />
    <glyph glyph-name="oe" unicode="&#x153;" horiz-adv-x="1246" 
d="M502 210q-46 -51 -93 -91.5t-93.5 -69t-90.5 -44t-84 -15.5h-10q-41 2 -69.5 16t-46 35t-25.5 46.5t-8 52.5q0 39 13 74.5t32.5 67t42.5 58t44 46.5q85 82 173 122t159 40q38 0 65 -9t45 -19.5t26.5 -19.5t9.5 -10q1 -2 1 -6t-1 -5q17 -4 25 -18t8 -31q0 -38 -30 -94
t-93 -126zM449 531q-32 0 -70 -9t-79 -27q-40 -18 -91.5 -54t-98 -84t-78.5 -104t-32 -113q0 -24 7 -48t23.5 -42.5t44 -30t67.5 -11.5q35 0 76 14t84.5 40t89 64.5t89.5 86.5q-25 41 -25 100q0 28 6.5 58t21 54.5t37.5 40t55 15.5q-4 5 -13.5 13.5t-25 16.5t-37.5 14t-51 6
zM576 463q-27 -1 -46 -14.5t-31 -35t-18 -48t-6 -53.5q0 -24 5 -44.5t14 -38.5q51 60 82 112t31 89q0 15 -7 24t-24 9zM494 229q8 -17 27 -30q17 -11 46.5 -20.5t77.5 -9.5q44 0 96 8t124 32q49 16 94.5 44t81 60.5t56.5 67t21 64.5q0 46 -35.5 70.5t-86.5 24.5
q-18 0 -34 -3q-100 -17 -177 -67t-136 -119q-17 -20 -34.5 -46.5t-32 -56.5t-24 -61.5t-9.5 -60.5q0 -55 40 -87.5t121 -32.5q32 0 65 4.5t63 11t54 14t39 13.5q40 16 78.5 34.5t78 41.5t81.5 53.5t90 71.5q4 2 6 2q3 0 6 -2t3 -7q0 -4 -3 -7q-49 -42 -92 -72.5t-83 -54
t-79 -41.5t-80 -35q-22 -8 -49 -16t-56.5 -14t-60.5 -10t-61 -4q-90 0 -135 37.5t-45 100.5q0 30 8.5 61t23 61.5t33 59t38.5 51.5q33 39 74.5 74.5t88.5 63t98.5 43.5t105.5 16q60 0 98.5 -29t38.5 -80q0 -31 -20 -68t-55.5 -73t-85 -67t-109.5 -50q-73 -23 -125.5 -30.5
t-96.5 -7.5q-43 0 -73 8t-49 18t-28 19t-9 11t3 11t5 10z" />
    <glyph glyph-name="Scaron" unicode="&#x160;" horiz-adv-x="942" 
d="M-17 -6q-29 -17 -66.5 -25.5t-71.5 -8.5q-7 0 -19.5 0.5t-24.5 2t-21 4.5t-9 9q0 3 2.5 6t6.5 3q17 0 33.5 -3.5t31.5 -3.5q36 0 67 8t57 21q-36 38 -53 82.5t-17 90.5q0 37 10.5 75t30.5 69.5t49.5 51.5t67.5 20q54 -3 82 -36.5t28 -82.5q-2 -81 -44 -152.5t-124 -120.5
q48 -36 103.5 -57.5t123.5 -21.5q45 0 84.5 7t72.5 18t60 25.5t46 28.5q54 40 88 88t53 100.5t26.5 110t10.5 117t4.5 120.5t8.5 121q-45 0 -84.5 11.5t-71.5 35.5q-4 3 -4 8q0 4 3 6t6 2q4 0 6 -2q29 -22 66.5 -32.5t80.5 -10.5q6 52 23 113t47.5 114t76 88.5t108.5 35.5
q47 -2 77.5 -27.5t30.5 -78.5q0 -38 -17.5 -73t-44.5 -64.5t-59 -52t-61 -35.5q-38 -17 -80.5 -26.5t-84.5 -11.5q-7 -60 -8.5 -121t-4 -121.5t-10.5 -119.5t-28 -113.5t-55 -104.5t-92 -93q-41 -30 -111 -55.5t-163 -25.5q-64 0 -123 19.5t-105 54.5zM-52 305
q-30 -62 -30 -126q0 -45 16 -86.5t51 -76.5q36 22 65.5 51t51.5 62.5t34 71.5t12 77q0 42 -24.5 71t-66.5 29q-40 -4 -66 -23.5t-43 -49.5zM738 836q-15 -38 -24 -77t-14 -80q52 2 109.5 20.5t105.5 51t79 77t31 98.5q0 24 -8 40.5t-20.5 26.5t-28.5 14.5t-31 4.5
q-39 -2 -70 -17.5t-55.5 -40.5t-42.5 -55.5t-31 -62.5zM914 1063q-4 1 -4 6q0 7 1 13.5t1 12.5q0 28 -14 44t-30.5 23.5t-30.5 8.5l-14 1q-9 0 -9 9t9 9q2 0 19 -2t36.5 -11t35.5 -28.5t16 -54.5q42 33 83 51.5t77 18.5q9 0 9 -9t-9 -9q-31 0 -60.5 -12.5t-52.5 -27.5
t-37.5 -28l-14.5 -13q-3 -3 -8 -3q-2 0 -3 1z" />
    <glyph glyph-name="scaron" unicode="&#x161;" horiz-adv-x="541" 
d="M85 22q-8 16 -8 35q0 45 42.5 87.5t147.5 87.5q5 0 5 4v7q0 51 -5.5 97.5t-7.5 94.5q-45 -38 -90 -76.5t-81.5 -70t-60 -52l-23.5 -20.5q-2 -2 -6 -2q-9 0 -9 8q0 4 3 7q0 1 24.5 22.5t63 55t85.5 73.5t93 78q0 81 21 115.5t51 34.5q19 0 29.5 -12t10.5 -29
q0 -18 -10.5 -35.5t-25.5 -32.5t-31 -27.5t-27 -21.5q0 -54 7 -100.5t7 -93.5v-14q25 10 47.5 18.5t39.5 13.5q20 6 37 11q30 9 70.5 16t81.5 7h17.5t9.5 -9t-9 -9h-17q-40 0 -79.5 -7t-68.5 -15l-39 -13q-18 -6 -41 -14t-49 -19q0 -121 -36.5 -180.5t-93.5 -59.5
q-23 0 -44 10t-31 30zM272 215q-91 -38 -134 -77t-43 -82q0 -30 20.5 -43.5t44.5 -13.5q33 0 54 20t33.5 51.5t17.5 70t7 74.5zM305 579q-12 -11 -19.5 -38t-9.5 -69q9 6 22 15.5t25 22t20.5 27.5t8.5 32q0 3 -3.5 12t-18.5 9q-12 0 -25 -11zM362 659q-4 1 -4 6q0 7 1 13.5
t1 12.5q0 28 -14 44t-30.5 23.5t-30.5 8.5l-14 1q-9 0 -9 9t9 9q2 0 19 -2t36.5 -11t35.5 -28.5t16 -54.5q42 33 83 51.5t77 18.5q9 0 9 -9t-9 -9q-31 0 -60.5 -12.5t-52.5 -27.5t-37.5 -28l-14.5 -13q-3 -3 -8 -3q-2 0 -3 1z" />
    <glyph glyph-name="Ydieresis" unicode="&#x178;" horiz-adv-x="921" 
d="M1371 861q0 -6 -15.5 -10.5t-44.5 -15t-69 -30t-88 -55t-102.5 -90.5t-111.5 -136q-26 -36 -65.5 -93.5t-88 -129.5t-103.5 -156.5t-110 -174.5q-24 -38 -55 -69.5t-68 -54.5t-80 -36t-91 -13q-34 0 -69 6t-67 20.5t-60.5 37.5t-49.5 56q-9 -9 -22 -20.5t-27 -21.5
t-29 -16.5t-29 -6.5q-5 0 -6.5 3t-1.5 6q0 7 7 9q25 5 49.5 22t49.5 42q-11 22 -17 45.5t-6 49.5q0 16 3 36.5t11 38.5t21 30t34 12q24 0 37 -19.5t13 -46.5q0 -42 -23 -80.5t-51 -68.5q14 -27 38 -48.5t55 -36.5t66.5 -23t73.5 -8q85 0 158 44.5t121 119.5q36 57 68.5 109
t64.5 102q-41 -41 -95.5 -69t-119.5 -28q-34 0 -70 8.5t-66 29t-49.5 54.5t-19.5 85q0 40 14.5 89t46.5 110q35 67 72.5 120t75.5 95.5t75.5 76.5t72.5 63q-76 10 -134.5 31.5t-111.5 43.5t-106.5 39t-118.5 17q-27 0 -55 -5t-51 -17t-37.5 -32.5t-14.5 -51.5q0 -23 10 -38
t25.5 -25.5t35.5 -16.5t40 -10q9 0 9 -9q-2 -9 -10 -9q0 -2 -20 2.5t-44 17t-44 34t-20 54.5q0 30 13.5 53.5t37 39t54.5 23.5t67 8q48 0 88.5 -8.5t77.5 -21.5t73 -28.5t75.5 -30.5t83.5 -27t97 -17q18 15 38.5 33t43 33.5t46 26t46.5 10.5q28 0 43 -17t15 -37t-11.5 -33.5
t-31 -22t-44 -12.5t-49.5 -4q-24 0 -47.5 1.5t-43.5 2.5q-36 -29 -74 -62.5t-77 -77t-78 -98t-76 -123.5q-32 -60 -45.5 -107t-13.5 -83q0 -45 17.5 -75.5t44.5 -49t60 -26.5t65 -8q43 0 82.5 14.5t76 41t70.5 63t67 81.5q51 76 89.5 132t63.5 91q53 76 106 130.5t101.5 92
t90 59.5t72 34t48 16t18.5 4h1q9 0 9 -7v-2zM814 924q-20 -3 -37.5 -12t-35 -21t-34 -26t-33.5 -27q14 -2 31 -3t36 -1q20 0 41.5 2.5t39 8.5t29 16.5t11.5 26.5q0 14 -11 25t-31 11h-6zM19 28q0 -42 19 -80q11 12 22.5 27t20.5 31.5t15 34.5t6 36q0 7 -1.5 15.5t-5 16.5
t-10 13.5t-15.5 5.5q-14 0 -23.5 -9.5t-15.5 -24t-9 -32t-3 -34.5zM1112 998q0 -23 -15.5 -38.5t-38.5 -15.5t-38.5 15.5t-15.5 38.5t15.5 38.5t38.5 15.5t38.5 -15.5t15.5 -38.5zM1274 998q0 -23 -15.5 -38.5t-38.5 -15.5t-38.5 15.5t-15.5 38.5t15.5 38.5t38.5 15.5
t38.5 -15.5t15.5 -38.5z" />
    <glyph glyph-name="Zcaron" unicode="&#x17d;" horiz-adv-x="1164" 
d="M1220 891q17 -7 29.5 -24.5t12.5 -37.5q0 -13 -7 -30.5t-29.5 -33t-63.5 -26.5t-109 -11q-86 0 -173 15q-64 -66 -119.5 -143t-107.5 -146l208 -20q9 0 9 -10q-2 -10 -10 -8l-220 21q-18 -24 -53 -66t-80.5 -92.5t-97 -103.5t-102.5 -99q69 -19 139 -45.5t143 -50.5
t150 -40.5t159 -16.5q28 0 60 4t59 17.5t45 39.5t18 69q0 12 -2 23.5t-2 22.5q0 8 9 8q4 0 6.5 -5.5t4 -13.5t2 -16.5t0.5 -15.5q0 -48 -18.5 -77.5t-47 -46t-64.5 -22t-70 -5.5q-84 0 -161 17t-150.5 41t-146 51t-148.5 48q-37 -33 -68.5 -58t-63 -42.5t-64 -26t-70.5 -8.5
q-18 0 -37.5 4t-36 14t-27 28t-10.5 45q0 30 12.5 50.5t32.5 33t45 18t50 5.5q63 0 121 -14t111 -29q49 44 99.5 95.5t95 100.5t80.5 91.5t57 69.5l-169 15q-8 2 -8 8q0 10 8 10h2l180 -16q25 34 52 71.5t55 75.5t57.5 74.5t61.5 68.5q-136 20 -231.5 47.5t-149.5 47.5
q-18 7 -36.5 14.5t-37 14.5t-38 11.5t-40.5 4.5q-47 0 -77.5 -34.5t-30.5 -88.5q0 -23 5 -44.5t11 -38.5q3 -9 11 -23.5t8 -21.5q0 -9 -10 -9q-1 0 -7.5 9t-14.5 26t-14.5 43t-6.5 59q0 28 8.5 53.5t25 45t40 31t52.5 11.5q42 0 80.5 -15.5t78.5 -30.5q93 -35 189 -58
t201 -38q38 36 80 62.5t82 43t75 24.5t58 8q16 0 28.5 -2.5t22.5 -6.5zM151 -23q35 19 63 42t57 49q-48 13 -99 26t-116 13q-21 0 -43 -4t-39.5 -14t-29 -27t-11.5 -43q0 -21 8 -35t21 -23t30 -12.5t34 -3.5q27 0 56 6t69 26zM1240 809q4 8 4 19q0 23 -19 38.5t-56 15.5
q-19 0 -50 -6.5t-68 -21.5t-77 -38.5t-77 -57.5q36 -7 75 -9.5t81 -2.5q51 0 85 6.5t55 16t31.5 20.5t15.5 20zM799 884q-4 1 -4 6q0 7 1 13.5t1 12.5q0 28 -14 44t-30.5 23.5t-30.5 8.5l-14 1q-9 0 -9 9t9 9q2 0 19 -2t36.5 -11t35.5 -28.5t16 -54.5q42 33 83 51.5t77 18.5
q9 0 9 -9t-9 -9q-31 0 -60.5 -12.5t-52.5 -27.5t-37.5 -28l-14.5 -13q-3 -3 -8 -3q-2 0 -3 1z" />
    <glyph glyph-name="zcaron" unicode="&#x17e;" horiz-adv-x="679" 
d="M-260 -525q4 34 46.5 87.5t113 117.5t165.5 132.5t204 132.5q-3 34 -24.5 56.5t-46 35.5t-45 18l-20.5 5l-28 5l25 12l12.5 6t32.5 17.5t46 27t54 35.5q87 61 133.5 121.5t46.5 115.5q0 22 -6 42.5t-18.5 36.5t-31 25.5t-42.5 9.5q-29 0 -59.5 -10t-55 -22t-41 -22
l-16.5 -10q-31 -20 -47 -32.5t-24 -20t-10.5 -10t-5.5 -2.5q-8 0 -8 8q0 5 2 7q1 1 23.5 21.5t59.5 43.5q3 1 20 12t43 23t57.5 22t62.5 10q30 0 51.5 -11.5t35.5 -30.5t21 -42.5t7 -47.5q0 -43 -20 -82t-51 -73.5t-68.5 -63.5t-72.5 -51t-62.5 -37l-38.5 -21
q13 -4 33.5 -13t40 -23t34.5 -34t18 -47q29 17 56.5 31.5t53.5 27.5q67 33 125.5 70t101.5 68.5t68 52.5t26 21q2 2 5 2q10 0 10 -9q0 -3 -3 -6q-1 -1 -26 -22t-69 -53t-103 -69.5t-127 -70.5q-27 -14 -56 -29.5t-60 -33.5q-1 -27 -18.5 -66t-46 -84t-67 -93.5t-81.5 -95.5
q-23 -25 -56 -57.5t-70 -61.5t-75 -49t-69 -20q-29 0 -47 17t-18 43v7zM269 -76q-64 -38 -127 -80.5t-119.5 -85.5t-105 -85t-84 -80t-55.5 -69.5t-20 -54.5t15 -33t35 -10t48 12.5t61 36.5t70 57.5t75 75.5q39 43 75 88.5t64.5 88t46.5 79t21 60.5zM276 551q-4 1 -4 6
q0 7 1 13.5t1 12.5q0 28 -14 44t-30.5 23.5t-30.5 8.5l-14 1q-9 0 -9 9t9 9q2 0 19 -2t36.5 -11t35.5 -28.5t16 -54.5q42 33 83 51.5t77 18.5q9 0 9 -9t-9 -9q-31 0 -60.5 -12.5t-52.5 -27.5t-37.5 -28l-14.5 -13q-3 -3 -8 -3q-2 0 -3 1z" />
    <glyph glyph-name="circumflex" unicode="&#x2c6;" horiz-adv-x="705" 
d="M630 759q-54 0 -89 37t-39 95q-88 -51 -178.5 -76.5t-178.5 -25.5q-35 0 -54.5 3t-20.5 3q-7 2 -7 9q0 9 9 9h2q8 -2 19 -3q18 -3 52 -3q22 0 58 2.5t83 13.5t102.5 32t116.5 59q1 1 4 1q10 0 10 -9q0 -1 1.5 -21.5t12.5 -44.5q28 -63 97 -63q9 0 9 -9t-9 -9z" />
    <glyph glyph-name="caron" unicode="&#x2c7;" horiz-adv-x="334" 
d="M127 772q-4 1 -4 6q0 7 1 13.5t1 12.5q0 28 -14 44t-30.5 23.5t-30.5 8.5l-14 1q-9 0 -9 9t9 9q2 0 19 -2t36.5 -11t35.5 -28.5t16 -54.5q42 33 83 51.5t77 18.5q9 0 9 -9t-9 -9q-31 0 -60.5 -12.5t-52.5 -27.5t-37.5 -28l-14.5 -13q-3 -3 -8 -3q-2 0 -3 1z" />
    <glyph glyph-name="breve" unicode="&#x2d8;" horiz-adv-x="424" 
d="M192 797q-40 0 -65 12.5t-39.5 30t-20 36.5t-5.5 33q0 16 8 16q10 0 10 -10v-6q0 -11 4 -27t16 -31t34 -25.5t58 -10.5q66 0 115 52q17 18 24 29t10 17.5t4.5 9t6.5 2.5q4 0 6.5 -3t2.5 -6q0 -2 -0.5 -2.5t-0.5 -1.5q0 -2 -10 -19t-30 -38q-26 -29 -59 -43.5t-69 -14.5z
" />
    <glyph glyph-name="ring" unicode="&#x2da;" horiz-adv-x="324" 
d="M161 773q-25 0 -47 9.5t-38.5 26t-26 38.5t-9.5 47t9.5 47t26 38.5t38.5 26t47 9.5t47 -9.5t38.5 -26t26 -38.5t9.5 -47t-9.5 -47t-26 -38.5t-38.5 -26t-47 -9.5zM161 997q-21 0 -40 -8t-33 -22t-22 -33t-8 -40t8 -40t22 -33t33 -22t40 -8t40 8t33 22t22 33t8 40t-8 40
t-22 33t-33 22t-40 8z" />
    <glyph glyph-name="tilde" unicode="&#x2dc;" horiz-adv-x="431" 
d="M387 796q-7 2 -7 9q0 1 0.5 3t0.5 12q0 6 -2.5 17.5t-10.5 23t-23.5 20t-40.5 8.5t-47.5 -14.5t-46.5 -32t-50.5 -32t-58.5 -14.5q-35 0 -51 19t-16 48q0 19 2 29t4 14t4.5 4h4.5q9 0 9 -10v-2q-1 -1 -3.5 -11t-2.5 -24q0 -21 11 -35t38 -14q30 0 54 14.5t47.5 32.5
t47 32.5t52.5 14.5q38 0 58 -14.5t28.5 -31.5t9.5 -31t1 -13q0 -14 -2 -18t-8 -4h-2z" />
    <glyph glyph-name="quoteleft" unicode="&#x2018;" horiz-adv-x="230" 
d="M60 560q-9 0 -9 9q0 3 1 4l137 275q2 5 8 5q3 0 6 -2.5t3 -5.5q0 -4 -1 -5l-137 -275q-2 -5 -8 -5z" />
    <glyph glyph-name="quoteright" unicode="&#x2019;" horiz-adv-x="235" 
d="M60 560q-9 0 -9 9q0 3 1 4l137 275q2 5 8 5q3 0 6 -2.5t3 -5.5q0 -4 -1 -5l-137 -275q-2 -5 -8 -5z" />
    <glyph glyph-name="quotedblleft" unicode="&#x201c;" horiz-adv-x="314" 
d="M60 560q-9 0 -9 9q0 3 1 4l137 275q2 5 8 5q3 0 6 -2.5t3 -5.5q0 -4 -1 -5l-137 -275q-2 -5 -8 -5zM147 560q-9 0 -9 9q0 3 1 4l137 275q2 5 8 5q3 0 6 -2.5t3 -5.5q0 -4 -1 -5l-137 -275q-2 -5 -8 -5z" />
    <glyph glyph-name="quotedblright" unicode="&#x201d;" horiz-adv-x="327" 
d="M60 560q-9 0 -9 9q0 3 1 4l137 275q2 5 8 5q3 0 6 -2.5t3 -5.5q0 -4 -1 -5l-137 -275q-2 -5 -8 -5zM147 560q-9 0 -9 9q0 3 1 4l137 275q2 5 8 5q3 0 6 -2.5t3 -5.5q0 -4 -1 -5l-137 -275q-2 -5 -8 -5z" />
    <glyph glyph-name="bullet" unicode="&#x2022;" horiz-adv-x="286" 
d="M242 313q0 -20 -7.5 -37.5t-21 -30t-31 -20t-36.5 -7.5q-40 0 -67.5 27.5t-27.5 67.5q0 41 27.5 68.5t67.5 27.5q19 0 36.5 -7.5t31 -20.5t21 -30.5t7.5 -37.5z" />
    <glyph glyph-name="fraction" unicode="&#x2044;" horiz-adv-x="273" 
d="M-270 -25q-9 0 -9 9q0 1 2 5l813 1270q4 4 7 4q10 0 10 -9q0 -3 -2 -5l-813 -1270q-3 -4 -8 -4z" />
    <glyph glyph-name="Euro" unicode="&#x20ac;" horiz-adv-x="816" 
d="M604 545h-605q-9 0 -9 9t9 9h605q9 0 9 -9t-9 -9zM481 336h-605q-9 0 -9 9t9 9h605q9 0 9 -9t-9 -9zM137 5q-54 25 -75 73t-21 112q0 74 34 154.5t90 159t129 151t150 129.5q-7 10 -15 23t-14.5 28t-10.5 30.5t-4 30.5q0 8 9 8q5 0 6 -3l2 -6q5 -27 15.5 -53t26.5 -47
q47 34 95 62t94 47t88.5 29.5t77.5 10.5q54 0 83 -29t29 -69q0 -42 -23 -75.5t-58.5 -57t-77.5 -36t-80 -12.5q-70 0 -133 27t-99 78q-99 -77 -186 -169t-143 -192q-13 -23 -25 -50.5t-21.5 -57.5t-15 -61t-5.5 -61q0 -35 10 -67t31.5 -56.5t55.5 -39.5t82 -15
q49 0 102.5 18t103.5 50t94.5 75t77.5 93q3 4 8 4q9 0 9 -9q0 -3 -2 -5q-30 -47 -73.5 -91t-94.5 -78t-107 -55t-112 -21q-27 0 -54 5.5t-53 17.5zM516 735q35 -26 75.5 -39t82.5 -13q46 0 88.5 12.5t75 34t52 51t19.5 63.5q0 35 -25 58.5t-70 23.5q-33 0 -73.5 -10t-85 -29
t-92 -46t-94.5 -61q10 -12 21.5 -23t25.5 -22z" />
    <glyph glyph-name="fi" unicode="&#xfb01;" horiz-adv-x="941" 
d="M-435 -575q-14 0 -23.5 4.5t-14.5 11.5t-7 15.5t-2 16.5q0 18 10.5 48.5t23.5 60.5t24.5 53.5t14.5 27.5q18 35 51 85t76.5 110.5t95.5 128t107 138t111 140.5t109 135q90 111 174.5 212t151 179.5t109.5 128.5t52 60q17 20 34.5 26t28.5 6q34 0 47 -24t13 -54
q0 -15 -2 -28.5t-5 -25t-5.5 -18.5t-2.5 -8q-25 -73 -84 -155.5t-150.5 -167t-214.5 -167t-277 -155.5q-21 -26 -42 -53t-42 -53q5 -5 23.5 -20.5t47.5 -26.5q24 -10 50 -14t54 -4q69 0 138 21t125 47q32 15 77.5 42t94.5 69q4 2 6 2q9 0 9 -9q0 -4 -3 -7
q-51 -42 -97.5 -70.5t-79.5 -43.5q-61 -28 -131.5 -48.5t-139.5 -20.5q-52 0 -99.5 17t-71.5 39q1 -13 1.5 -25.5t0.5 -25.5q0 -68 -17 -141t-47.5 -142.5t-72 -132t-89.5 -108.5q-39 -38 -75 -57t-65 -19zM-90 82q-99 -126 -169.5 -224t-115.5 -172.5t-66.5 -126.5
t-21.5 -86q0 -17 7 -24t24 -7q32 0 70.5 25t77 67.5t74 99.5t63 122t44 134t16.5 135q0 28 -3 57zM642 968l-35 -40t-71.5 -83.5t-100.5 -119t-122 -145.5t-135.5 -164.5t-141.5 -174.5q144 72 259.5 151.5t201.5 160t142 159t80 148.5q1 1 8 24t7 51q0 10 -2 20.5t-6.5 19
t-12.5 14t-21 5.5q-14 0 -27.5 -8t-22.5 -18zM541 4q-17 0 -34 2t-30.5 9.5t-21.5 21.5t-8 37q0 30 13.5 64.5t34 69.5t43.5 68t42 60q27 39 53.5 74t48 62t35 43l13.5 16q1 3 7 3q9 0 9 -9q0 -2 -2 -6l-13.5 -16t-35 -42.5t-48 -61.5t-53.5 -73q-18 -25 -40 -57t-42 -66
t-33.5 -67.5t-13.5 -61.5q0 -18 7 -28.5t18 -15.5t24.5 -6.5t26.5 -1.5q43 0 94 17.5t102.5 46t102 64.5t93.5 74q4 2 6 2q9 0 9 -9q0 -4 -3 -7q-45 -38 -94.5 -75t-101.5 -66t-104.5 -47t-103.5 -18zM875 659q0 -20 -14 -34.5t-34 -14.5t-34.5 14.5t-14.5 34.5t14.5 34
t34.5 14t34 -14t14 -34z" />
    <glyph glyph-name="fl" unicode="&#xfb02;" horiz-adv-x="1035" 
d="M-435 -575q-14 0 -23.5 4.5t-14.5 11.5t-7 15.5t-2 16.5q0 18 10.5 48.5t23.5 60.5t24.5 53.5t14.5 27.5q18 35 51 85t76.5 110.5t95.5 128t107 138t111 140.5t109 135q90 111 174.5 212t151 179.5t109.5 128.5t52 60q17 20 34.5 26t28.5 6q34 0 47 -24t13 -54
q0 -15 -2 -28.5t-5 -25t-5.5 -18.5t-2.5 -8q-25 -73 -84 -155.5t-150.5 -167t-214.5 -167t-277 -155.5q-21 -26 -42 -53t-42 -53q5 -5 23.5 -20.5t47.5 -26.5q24 -10 50 -14t54 -4q69 0 138 21t125 47q32 15 77.5 42t94.5 69q4 2 6 2q9 0 9 -9q0 -4 -3 -7
q-51 -42 -97.5 -70.5t-79.5 -43.5q-61 -28 -131.5 -48.5t-139.5 -20.5q-52 0 -99.5 17t-71.5 39q1 -13 1.5 -25.5t0.5 -25.5q0 -68 -17 -141t-47.5 -142.5t-72 -132t-89.5 -108.5q-39 -38 -75 -57t-65 -19zM-90 82q-99 -126 -169.5 -224t-115.5 -172.5t-66.5 -126.5
t-21.5 -86q0 -17 7 -24t24 -7q32 0 70.5 25t77 67.5t74 99.5t63 122t44 134t16.5 135q0 28 -3 57zM642 968l-35 -40t-71.5 -83.5t-100.5 -119t-122 -145.5t-135.5 -164.5t-141.5 -174.5q144 72 259.5 151.5t201.5 160t142 159t80 148.5q1 1 8 24t7 51q0 10 -2 20.5t-6.5 19
t-12.5 14t-21 5.5q-14 0 -27.5 -8t-22.5 -18zM559 -9q-29 0 -49 8t-32.5 21.5t-18.5 31t-6 35.5q0 21 4 36.5t5 17.5q19 53 48.5 112.5t63.5 119t69.5 116t66.5 103.5q33 51 63.5 94t54 74.5t37.5 50l14 18.5q0 1 19.5 23t48.5 49.5t62.5 54.5t62.5 39q28 12 50 12
q33 0 51.5 -21.5t18.5 -52.5q0 -21 -8 -46t-20.5 -50t-28 -49t-30.5 -45q-45 -62 -94.5 -115.5t-115.5 -110t-154.5 -121t-211.5 -148.5q-14 -29 -26.5 -57.5t-23.5 -56.5q-2 -6 -4 -14q-2 -7 -3 -15.5t-1 -17.5q0 -40 26.5 -59.5t65.5 -19.5q31 0 66 11q63 19 115.5 40
t100 46.5t93 56t94.5 68.5q4 2 6 2q9 0 9 -9q0 -6 -3 -7q-50 -38 -96.5 -69.5t-95 -57.5t-102 -48t-117.5 -40q-20 -6 -39 -8t-35 -2zM893 818q-2 -2 -19 -23.5t-43.5 -58.5t-61.5 -87.5t-72.5 -109.5t-76.5 -124.5t-74 -133.5q78 54 140.5 98.5t113 84t91.5 74.5t75.5 70
t65 70.5t59.5 75.5q41 57 62 103t21 77q0 25 -14.5 40t-38.5 15q-23 0 -48.5 -12.5t-50.5 -31.5t-48 -41t-41 -41t-29 -32z" />
    <glyph glyph-name="ve" horiz-adv-x="1462" 
d="M576 542q-7 15 -19 15t-22 -13.5t-10 -32.5q0 -26 8.5 -42.5t21.5 -34.5q10 24 17.5 47.5t7.5 41.5q0 9 -4 19zM561 403q-23 -49 -54 -98t-69 -95t-81.5 -86t-90.5 -69.5t-96.5 -46.5t-99.5 -17q-44 0 -73.5 22.5t-29.5 63.5q0 23 10.5 54t27 66t36.5 71t40 69
q2 3 12.5 20.5t22 41t21 48t9.5 41.5q0 15 -8.5 20t-18.5 5q-14 0 -28 -9t-24.5 -19.5t-17.5 -20l-7 -9.5q-1 -4 -7 -4q-9 0 -9 10q0 3 1 4t10 11.5t22 22.5t29 22t31 10q23 0 34.5 -13.5t11.5 -30.5t-7.5 -37.5t-18.5 -43.5q-13 -28 -27 -51.5t-30.5 -51t-35.5 -62
t-41 -83.5q-20 -45 -20 -77q0 -20 7.5 -34t19.5 -22.5t27 -12.5t30 -4q5 0 10 0.5t10 1.5q49 8 94 27t84 44.5t71.5 53.5t56.5 54q50 53 87.5 109.5t64.5 117.5q-14 17 -27.5 41t-13.5 59q0 26 16 43t35 17q14 0 27 -12t13 -40q0 -39 -28 -102q-1 -1 25 -24.5t73.5 -51
t112.5 -50.5t142 -23q60 0 128.5 10.5t127.5 33t98 57t39 82.5q0 38 -32.5 60.5t-80.5 22.5q-8 0 -15 -0.5t-15 -1.5q-100 -17 -177 -67t-136 -119q-17 -20 -34.5 -46.5t-32 -56.5t-24 -61.5t-9.5 -60.5q0 -55 40 -87.5t121 -32.5q32 0 65 4.5t63 11t54 14t39 13.5
q40 16 78.5 34.5t78 41.5t81.5 53.5t90 71.5q4 2 6 2q3 0 6 -2t3 -7q0 -4 -3 -7q-49 -42 -92 -72.5t-83 -54t-79 -41.5t-80 -35q-22 -8 -49 -16t-56.5 -14t-60.5 -10t-61 -4q-90 0 -135 37.5t-45 100.5q0 30 8.5 61t23 61.5t33 59t38.5 51.5q32 37 72.5 72.5t87 63.5
t97 44.5t102.5 16.5q28 0 52.5 -7.5t42.5 -20.5t28.5 -31.5t10.5 -40.5q0 -39 -20.5 -69t-54 -52t-76.5 -37.5t-88 -25t-88 -13.5t-77 -4q-85 0 -153.5 22.5t-117 50t-74.5 50.5t-26 24z" />
    <glyph glyph-name="sr" horiz-adv-x="1056" 
d="M272 215q-91 -38 -134 -77t-43 -82q0 -30 20.5 -43.5t44.5 -13.5q33 0 54 20t33.5 51.5t17.5 70t7 74.5zM305 579q-12 -11 -19.5 -38t-9.5 -69q9 6 22 15.5t25 22t20.5 27.5t8.5 32q0 4 -4 12.5t-18 8.5q-12 0 -25 -11zM627 479q-23 -40 -56.5 -74.5t-71 -63.5t-75 -51.5
t-67.5 -37.5t-48.5 -23t-18.5 -7q0 -117 -35 -178.5t-95 -61.5q-32 0 -57.5 18.5t-25.5 56.5q0 45 42.5 87.5t147.5 87.5q1 0 2.5 1t2.5 1q0 54 -5.5 102.5t-7.5 98.5q-45 -38 -90 -76.5t-81.5 -70t-60 -52l-23.5 -20.5q-2 -2 -6 -2q-9 0 -9 8q0 4 3 7q0 1 24.5 22.5t63 55
t85.5 73.5t93 78q0 81 21 115.5t51 34.5q20 0 30 -12t10 -29q0 -18 -10.5 -35.5t-25.5 -32.5t-31 -27.5t-27 -21.5q0 -54 7 -100.5t7 -93.5v-14l18 7t46 22t63.5 36.5t71 49t68 61t54.5 71.5q2 3 4 6.5t2 4.5q-15 11 -21.5 25.5t-6.5 29.5t4.5 24t10.5 13.5t12 5.5t8 1
q13 0 20 -4.5t10 -11t3.5 -12.5t0.5 -9q0 -23 -17 -57q12 -7 27.5 -11.5t31.5 -7.5t29.5 -5t22.5 -2q4 0 16 -0.5t25 -4.5t23 -12t10 -24q0 -14 -16 -40.5t-40.5 -60t-53 -71.5t-53 -77t-40.5 -76t-16 -67q0 -61 73 -61q25 0 63 11t83 30t94.5 45t97.5 55q2 2 5 2t5.5 -3
t2.5 -6q0 -5 -4 -8q-50 -31 -100.5 -57.5t-97 -45.5t-86.5 -30t-69 -11q-42 0 -63.5 22.5t-21.5 58.5q0 29 16 65.5t40.5 75.5t53 78t53 72.5t40.5 59t16 38.5q0 9 -6.5 13.5t-15.5 7t-18.5 3t-14.5 0.5q-2 0 -14.5 1t-30.5 4t-38.5 8.5t-36.5 14.5q-4 -6 -6 -10zM609 564
q-1 -2 -1 -7q0 -11 5 -23.5t13 -17.5q8 17 11 27.5t3 17.5q0 8 -4 14t-13 6q-11 -1 -14 -17z" />
    <glyph glyph-name="ws" horiz-adv-x="1495" 
d="M1176 458q0 81 21 115.5t51 34.5q18 0 28.5 -10.5t10.5 -26.5q0 -17 -10.5 -34.5t-25 -34t-30.5 -30t-27 -22.5q0 -54 7 -100.5t7 -93.5v-14q25 10 47.5 18.5t39.5 13.5q20 6 37 11q30 9 70.5 16t81.5 7h17.5t9.5 -9t-9 -9h-17q-40 0 -79.5 -7t-68.5 -15l-39 -13
q-18 -6 -41 -14t-49 -19q0 -117 -35 -178.5t-95 -61.5q-32 0 -57.5 18.5t-25.5 56.5q0 45 42.5 87.5t147.5 87.5q1 0 2.5 1t2.5 1q0 54 -5.5 102.5t-7.5 98.5q-22 -20 -56 -46t-74 -49t-82.5 -39t-81.5 -16q-40 0 -69 19q-38 -75 -81.5 -134.5t-89.5 -101t-93 -63t-91 -21.5
q-47 0 -71.5 25.5t-24.5 76.5q0 39 14.5 91.5t43.5 119.5q-31 -45 -61 -85.5t-62 -74.5t-69 -61.5t-81 -48.5q-63 -30 -112 -30q-39 0 -61 20.5t-22 55.5q0 54 30.5 128t81.5 163q29 51 48 80.5t31 46.5q14 19 23 27q3 0 6 -2.5t3 -6.5q0 -3 -2 -5l-8 -11.5t-21 -31.5
t-30 -47.5t-35 -58.5q-49 -85 -78.5 -158.5t-29.5 -124.5q0 -27 16 -42t48 -15q54 0 105 25t97.5 66t88.5 93.5t78.5 107.5t68 108.5t57.5 96.5l15 -10q-6 -11 -19 -33.5t-29.5 -53.5t-34 -67.5t-33.5 -75.5q-49 -119 -49 -186q0 -83 77 -83q44 0 89.5 22t89.5 63t85.5 98.5
t77.5 129.5q-21 22 -26.5 47.5t-5.5 41.5q0 25 5.5 47t15.5 38.5t23 26t28 9.5q33 0 33 -42q0 -15 -5 -37t-13 -44.5t-17 -44.5t-16 -37q26 -19 62 -19q37 0 79.5 16.5t82.5 40.5t74.5 51t55.5 48zM840 508q-15 0 -25.5 -11t-17 -26.5t-9 -33t-2.5 -29.5q0 -46 22 -74
q6 13 14 32t15.5 40t12.5 41.5t5 37.5q0 23 -15 23zM1190 215q-91 -38 -134 -77t-43 -82q0 -30 20.5 -43.5t44.5 -13.5q33 0 54 20t33.5 51.5t17.5 70t7 74.5zM1223 579q-12 -11 -19.5 -38t-9.5 -69q12 8 22 18.5t20 20.5q4 4 9.5 10.5t11 14.5t9.5 16.5t4 16.5q0 4 -4 12.5
t-18 8.5q-12 0 -25 -11z" />
    <glyph glyph-name="er" horiz-adv-x="1296" 
d="M943 -33q-40 2 -60 24t-20 57q0 38 24 87t57 99t68 95.5t57 76.5q5 8 9 16t4 15q0 9 -6.5 13.5t-15.5 7t-18.5 3t-14.5 0.5q-2 0 -14.5 1t-30.5 4t-38.5 8.5t-36.5 14.5l-6 -10q-50 -86 -106 -155.5t-119.5 -124.5t-135 -96.5t-152.5 -72.5q-43 -17 -103 -29.5
t-119 -12.5q-94 0 -139.5 38.5t-45.5 104.5q0 29 7.5 60t20.5 59.5t29 53t33 42.5q-16 8 -23.5 12t-9.5 6.5t-1.5 3.5t0.5 3q0 9 9 9q4 0 3 0.5t0 -1t7.5 -5.5t27.5 -14q84 90 175.5 143t176.5 53q29 0 56 -8t48 -22.5t33.5 -35t12.5 -45.5q0 -42 -25.5 -74t-63 -53
t-80.5 -31.5t-79 -10.5q-69 0 -126 16t-92 31l-32 14q-15 -14 -31 -37.5t-28.5 -51t-21 -58t-8.5 -59.5q0 -57 39 -91t122 -34q32 0 65 4.5t63 11.5t54.5 14t39.5 13q87 34 158 77t131.5 97t112.5 120t101 146q2 3 4 6.5t2 4.5q-15 11 -21.5 25.5t-6.5 29.5t4.5 24
t10.5 13.5t12 5.5t8 1q13 0 20 -4.5t10 -11t3.5 -12.5t0.5 -9q0 -23 -17 -57q12 -7 28.5 -12t32.5 -8t30 -4.5t22 -1.5q6 0 18 -1t24 -4.5t21 -12t9 -23.5t-16 -41.5t-40.5 -59.5t-53 -71t-53 -76.5t-40.5 -75.5t-16 -68q0 -61 73 -61q25 0 63 11t83 30t94.5 45t97.5 55
q2 2 5 2t5.5 -3t2.5 -6q0 -5 -4 -8q-52 -32 -103.5 -58.5t-98.5 -45.5t-87 -29.5t-69 -10.5zM127 339q16 -7 38.5 -15t49.5 -14.5t58 -11t63 -4.5q41 0 82 12t74 32t54 47.5t21 57.5q0 21 -10.5 38.5t-28.5 30.5t-41.5 20t-48.5 7q-32 0 -69.5 -9t-80 -30.5t-90 -57.5
t-98.5 -91zM883 564q-1 -2 -1 -7q0 -11 5 -23.5t13 -17.5q8 17 11 27.5t3 17.5q0 8 -4 14t-13 6q-11 -1 -14 -17z" />
    <glyph glyph-name="zz" horiz-adv-x="1356" 
d="M269 -76q-67 -40 -131.5 -83.5t-121 -87t-104 -85t-82 -79t-53.5 -68.5t-19 -52q0 -23 15 -33t35 -10t48 12.5t61 36.5t69.5 57.5t75.5 75.5q39 43 75 88.5t64.5 88t46.5 79t21 60.5zM838 450q-62 -42 -105.5 -87t-79 -90t-68 -90t-73 -88.5t-94 -83.5t-130.5 -76
q-2 -27 -19 -66t-46 -84t-67 -93.5t-81 -95.5q-23 -25 -56 -57.5t-70 -61.5t-75 -49t-69 -20q-29 0 -47 17t-18 43q0 37 44.5 93.5t118 122t169 133.5t197.5 128q-3 34 -24.5 56.5t-46 35.5t-45 18l-20.5 5l-28 5l25 12l12.5 6t32.5 17.5t46 27t54 35.5q87 61 133.5 121.5
t46.5 115.5q0 22 -6 42.5t-18.5 36.5t-31 25.5t-42.5 9.5q-29 0 -59.5 -10t-55 -22t-41 -22l-16.5 -10q-31 -20 -47 -32.5t-24 -20t-10.5 -10t-5.5 -2.5q-8 0 -8 8q0 -1 0 2t7 11t24.5 22.5t53.5 36.5q3 1 20 12t43 23t57.5 22t62.5 10q30 0 51.5 -11.5t35.5 -30.5t21 -42.5
t7 -47.5q0 -42 -19.5 -80.5t-50 -72.5t-67.5 -63t-71.5 -51.5t-63 -38t-41.5 -22.5q13 -4 33.5 -13t40 -23t34.5 -34t18 -47q75 36 126.5 75t89.5 80t69 83.5t66 87.5t80 91t111 93q3 2 20 12.5t43 22.5t57.5 22t61.5 10t52 -11.5t36 -30.5t21 -42.5t7 -47.5
q0 -42 -19.5 -80.5t-50 -72.5t-67.5 -63t-71.5 -51.5t-63 -38t-41.5 -22.5q13 -4 33.5 -13t40 -23t34.5 -34t18 -47q29 17 56.5 31.5t53.5 27.5q67 33 125.5 70t101.5 68.5t68 52.5t26 21q2 2 5 2q10 0 10 -9q0 -3 -3 -6q-1 -1 -26 -22t-69 -53t-103 -69.5t-127 -70.5
q-27 -14 -56 -29.5t-60 -33.5q-2 -27 -19 -66t-46 -84t-67 -93.5t-81 -95.5q-23 -25 -56 -57.5t-70 -61.5t-75 -49t-69 -20q-29 0 -47 17t-18 43q0 37 44.5 93.5t118 122t169 133.5t197.5 128q-3 34 -24.5 56.5t-46 35.5t-45 18l-20.5 5l-28 5l25 12l12.5 6t32.5 17.5t46 27
t54 35.5q87 61 133.5 121.5t46.5 115.5q0 22 -6 42.5t-18.5 36.5t-31 25.5t-42.5 9.5q-29 0 -59.5 -10t-55 -22t-41 -22zM922 -76q-67 -40 -131.5 -83.5t-121 -87t-104 -85t-82 -79t-53.5 -68.5t-19 -52q0 -23 15 -33t35 -10t48 12.5t61 36.5t69.5 57.5t75.5 75.5
q39 43 75 88.5t64.5 88t46.5 79t21 60.5z" />
    <glyph glyph-name="br" horiz-adv-x="1317" 
d="M888 489q-20 -51 -48.5 -97.5t-65 -81.5t-81.5 -56t-98 -21q-47 0 -99 18q-14 -48 -37 -84t-46 -61q-35 -39 -70.5 -63t-67.5 -37.5t-60 -18t-48 -4.5q-53 0 -85.5 19t-50.5 43t-24.5 45.5t-7.5 26.5q-4 15 -4 37q1 75 57 185t165 254q51 67 101.5 127t94 107.5t75.5 80
t45 44.5q38 34 66 50t45 16q16 0 29 -11t13 -38q0 -13 -6 -29.5t-14 -32t-15 -26.5t-8 -14q-53 -76 -112 -149.5t-117 -139t-110.5 -120.5t-93 -95.5t-65 -63.5t-25.5 -24t-9.5 -9t-22.5 -19.5t-32.5 -24.5t-38.5 -25q-2 -12 -3.5 -22.5t-1.5 -20.5q0 -17 3 -30
q0 -2 5.5 -21.5t22 -42.5t45.5 -41.5t76 -18.5q4 0 24 2t49 10.5t64 25t69 45.5t63 72.5t47 105.5q-24 15 -38.5 34t-22.5 37t-11 32.5t-3 20.5q0 29 16.5 44.5t36.5 15.5q24 0 38.5 -21t14.5 -68q0 -23 -2.5 -45t-7.5 -42q26 -9 49.5 -13t45.5 -4q54 0 97 22t76.5 57.5
t59 80t43.5 88.5q-15 11 -21.5 25.5t-6.5 29.5t4.5 24t10.5 13.5t12 5.5t8 1q13 0 20 -4.5t10 -11t3.5 -12.5t0.5 -9q0 -23 -17 -57q12 -7 27.5 -11.5t31.5 -7.5t29.5 -5t22.5 -2q4 0 16 -0.5t25 -4.5t23 -12t10 -24q0 -14 -16 -40.5t-40.5 -60t-53 -71.5t-53 -77t-40.5 -76
t-16 -67q0 -61 73 -61q25 0 63 11t83 30t94.5 45t97.5 55q2 2 5 2t5.5 -3t2.5 -6q0 -5 -4 -8q-50 -31 -100.5 -57.5t-97 -45.5t-86.5 -30t-69 -11q-42 0 -63.5 22.5t-21.5 58.5q0 29 16 65.5t40.5 75.5t53 78t53 72.5t40.5 59t16 38.5q0 9 -6.5 13.5t-15.5 7t-18.5 3
t-14.5 0.5q-2 0 -14.5 1t-30.5 4t-38.5 8.5t-36.5 14.5zM645 1002q-16 0 -41 -17t-59 -47q-15 -14 -48 -47.5t-76 -81.5t-92 -106t-97 -121q-171 -224 -209 -360q17 11 32.5 22.5t27 21t18.5 16l7 6.5q0 2 24 25t64 63t93 94.5t110.5 119.5t116.5 138t112 149l5 7
q11 16 23 40.5t12 45.5q0 11 -5 21.5t-18 10.5zM459 428q-19 0 -27 -14t-8 -30q0 -1 1.5 -12t7.5 -26.5t18.5 -33t33.5 -32.5q8 37 8 77q0 7 -0.5 19t-4 23.5t-10.5 20t-19 8.5zM864 564q-1 -2 -1 -7q0 -11 5 -23.5t13 -17.5q8 17 11 27.5t3 17.5q0 8 -4 14t-13 6
q-11 -1 -14 -17z" />
    <glyph glyph-name="st" horiz-adv-x="1077" 
d="M272 215q-91 -38 -134 -77t-43 -82q0 -30 20.5 -43.5t44.5 -13.5q33 0 54 20t33.5 51.5t17.5 70t7 74.5zM305 579q-12 -11 -19.5 -38t-9.5 -69q9 6 22 15.5t25 22t20.5 27.5t8.5 32q0 4 -4 12.5t-18 8.5q-12 0 -25 -11zM822 505q-72 -61 -144.5 -106.5t-141.5 -79.5
t-132 -57.5t-114 -39.5q0 -117 -35 -178.5t-95 -61.5q-32 0 -57.5 18.5t-25.5 56.5q0 45 42.5 87.5t147.5 87.5q1 0 2.5 1t2.5 1q0 54 -5.5 102.5t-7.5 98.5q-45 -38 -90 -76.5t-81.5 -70t-60 -52l-23.5 -20.5q-2 -2 -6 -2q-9 0 -9 8q0 4 3 7q0 1 24.5 22.5t63 55t85.5 73.5
t93 78q0 81 21 115.5t51 34.5q20 0 30 -12t10 -29q0 -18 -10.5 -35.5t-25.5 -32.5t-31 -27.5t-27 -21.5q0 -54 7 -100.5t7 -93.5v-14q57 21 112.5 40t118.5 49t138.5 77t172.5 122q-12 1 -40.5 2t-62 2.5t-65.5 3.5t-50 4q-9 2 -9 10t9 8h5.5t11.5 -1q108 -9 210 -12
q67 126 123 225t98.5 167.5t71.5 104.5t43 36q3 0 11 -2.5t8 -18.5q0 -14 -5 -31.5t-8 -25.5q-28 -73 -70.5 -143t-87.5 -130.5t-86 -108t-65 -74.5q21 0 41.5 -0.5t40.5 -0.5q71 0 139 3q9 0 9 -9q0 -6 -17 -8.5t-40.5 -3t-47.5 -0.5h-38q-26 0 -51.5 0.5t-51.5 1.5
q-5 -5 -8 -8.5t-6 -6.5q-39 -74 -74 -141t-61 -118t-41.5 -82t-16.5 -32q-7 -13 -11 -26q-5 -11 -8 -25t-3 -28q0 -61 77 -61q45 0 91.5 13.5t91 34.5t86 47t76 51.5t60 47t39.5 33.5q4 2 6 2q9 0 9 -9q0 -4 -3 -7q-57 -51 -118 -93.5t-120.5 -73t-114.5 -47.5t-101 -17
q-49 0 -73 22t-24 58q0 15 3.5 30t8 27t8 19.5t4.5 9.5t17 33t42 80.5t59.5 113t68.5 129.5zM879 579q23 26 64.5 74t85.5 109t84.5 130.5t61.5 139.5q3 9 3.5 15.5t0.5 9.5q0 5 -2 5q-3 0 -4 -1q-20 -16 -53 -64.5t-72.5 -115.5t-83 -146t-85.5 -156z" />
    <glyph glyph-name="vs" horiz-adv-x="1275" 
d="M538 550q-13 -10 -13 -35q0 -27 7.5 -46.5t22.5 -34.5q10 24 17 48t7 42q0 32 -24 32q-8 0 -17 -6zM971 443q-75 -32 -145 -50.5t-132 -18.5q-38 0 -70.5 7t-61.5 24q-34 -73 -87 -147t-118 -133t-138.5 -96.5t-148.5 -37.5q-44 0 -73.5 22.5t-29.5 63.5q0 23 10.5 54
t27 66t36.5 71t40 69q2 3 12.5 20.5t22 41t21 48t9.5 41.5q0 15 -8.5 20t-18.5 5q-14 0 -28 -9t-24.5 -19.5t-17.5 -20l-7 -9.5q-1 -4 -7 -4q-9 0 -9 10q0 3 1 4t10 11.5t22 22.5t29 22t31 10q23 0 34.5 -13.5t11.5 -30.5t-7.5 -37.5t-18.5 -43.5q-13 -28 -27 -51.5
t-30.5 -51t-35.5 -62t-41 -83.5q-20 -45 -20 -77q0 -20 7.5 -34t19.5 -22.5t27 -12.5t30 -4q5 0 10 0.5t10 1.5q49 8 94 27t84 44.5t71.5 53.5t56.5 54q50 53 87.5 109.5t64.5 117.5q-41 36 -41 95q0 28 13 45t38 17q21 0 30.5 -14.5t9.5 -34.5q0 -39 -28 -102
q23 -16 55 -23t67 -7q36 0 75 6t75.5 16.5t69.5 23t59 26.5q0 80 21.5 112t50.5 32q20 0 30 -12t10 -29q0 -18 -10.5 -35.5t-25.5 -32.5t-31 -27.5t-27 -21.5q0 -54 7 -100.5t7 -93.5v-14q25 10 47.5 18.5t39.5 13.5q20 6 37 11q30 9 70.5 16t81.5 7h17.5t9.5 -9t-9 -9h-17
q-40 0 -79.5 -7t-68.5 -15l-39 -13q-18 -6 -41 -14t-49 -19q0 -117 -35 -178.5t-95 -61.5q-32 0 -57.5 18.5t-25.5 56.5q0 45 42.5 87.5t147.5 87.5q1 0 2.5 1t2.5 1q0 54 -5.5 106.5t-7.5 102.5zM984 215q-91 -38 -134 -77t-43 -82q0 -30 20.5 -43.5t44.5 -13.5q33 0 54 20
t33.5 51.5t17.5 70t7 74.5zM1017 579q-12 -11 -19.5 -38t-9.5 -69q9 6 22 15.5t25 22t20.5 27.5t8.5 32q0 4 -4 12.5t-18 8.5q-12 0 -25 -11z" />
    <glyph glyph-name="rr" horiz-adv-x="1400" 
d="M274 -33q-40 1 -60 23.5t-20 57.5q0 38 24 87t57 99t68 95.5t57 76.5q5 8 9 16t4 15q0 9 -6.5 13.5t-15.5 7t-18.5 3t-14.5 0.5q-2 0 -14.5 1t-30.5 4t-38.5 8.5t-36.5 14.5q-4 -6 -6 -10q-45 -77 -98.5 -145t-116.5 -125q-2 -2 -6 -2q-9 0 -9 9q0 4 3 7q67 60 117.5 128
t93.5 138q2 3 4 6.5t2 4.5q-15 11 -21.5 25.5t-6.5 29.5t4.5 24t10.5 13.5t12 5.5t8 1q13 0 20 -4.5t10 -11t3.5 -12.5t0.5 -9q0 -23 -17 -57q12 -7 28.5 -12t32.5 -8t30 -4.5t22 -1.5q6 0 18 -1t24 -4.5t21 -12t9 -23.5t-16 -41.5t-40.5 -59.5t-53 -71t-53 -76.5
t-40.5 -75.5t-16 -68q0 -61 73 -61q59 0 124 24.5t130 65t127.5 93.5t117 109t99 111t72.5 101q2 3 4 6.5t2 4.5q-15 11 -21.5 25.5t-6.5 29.5t4.5 24t10.5 13.5t12 5.5t8 1q13 0 20 -4.5t10 -11t3.5 -12.5t0.5 -9q0 -23 -17 -57q12 -7 28.5 -12t32.5 -8t30 -4.5t22 -1.5
q6 0 18 -1t24 -4.5t21 -12t9 -23.5t-16 -41.5t-40.5 -59.5t-53 -71t-53 -76.5t-40.5 -75.5t-16 -68q0 -61 73 -61q25 0 63 11t83 30t94.5 45t97.5 55q2 2 5 2t5.5 -3t2.5 -6q0 -5 -4 -8q-52 -32 -103.5 -58.5t-98.5 -45.5t-87 -29.5t-69 -10.5q-40 2 -60 24t-20 57
q0 38 24 87t57 99t68 95.5t57 76.5q5 8 9 16t4 15q0 9 -6.5 13.5t-15.5 7t-18.5 3t-14.5 0.5q-2 0 -14.5 1t-30.5 4t-38.5 8.5t-36.5 14.5q-39 -58 -89 -119t-107.5 -119t-121 -109.5t-128.5 -90.5t-130.5 -61.5t-126.5 -22.5zM214 564q-1 -2 -1 -7q0 -11 5 -23.5t13 -17.5
q8 17 11 27.5t3 17.5q0 8 -4 14t-13 6q-11 -1 -14 -17zM953 564q-1 -2 -1 -7q0 -11 5 -23.5t13 -17.5q8 17 11 27.5t3 17.5q0 8 -4 14t-13 6q-11 -1 -14 -17z" />
    <glyph glyph-name="ss" horiz-adv-x="1017" 
d="M699 435q-71 -41 -143 -81q-62 -34 -133 -70.5t-133 -61.5q0 -121 -36.5 -180.5t-93.5 -59.5q-32 0 -57.5 18.5t-25.5 56.5q0 45 42.5 87.5t147.5 87.5q5 0 5 4v7q0 51 -5.5 97.5t-7.5 94.5q-45 -38 -90 -76.5t-81.5 -70t-60 -52l-23.5 -20.5q-2 -2 -6 -2q-9 0 -9 8
q0 4 3 7q0 1 24.5 22.5t63 55t85.5 73.5t93 78q0 81 21 115.5t51 34.5q19 0 29.5 -12t10.5 -29q0 -18 -10.5 -35.5t-25.5 -32.5t-31 -27.5t-27 -21.5q0 -54 7 -100.5t7 -93.5v-14q26 9 57 23t65 31t68 35.5t66 36.5q75 42 152 90q0 81 21 115.5t51 34.5q19 0 29.5 -12
t10.5 -29q0 -18 -10.5 -35.5t-25.5 -32.5t-31 -27.5t-27 -21.5q0 -54 7 -100.5t7 -93.5v-14q25 10 47.5 18.5t39.5 13.5q20 6 37 11q30 9 70.5 16t81.5 7h17.5t9.5 -9t-9 -9h-17q-40 0 -79.5 -7t-68.5 -15l-39 -13q-18 -6 -41 -14t-49 -19q0 -121 -36.5 -180.5t-93.5 -59.5
q-32 0 -57.5 18.5t-25.5 56.5q0 45 42.5 87.5t147.5 87.5q5 0 5 4v7q0 51 -5.5 97.5t-7.5 94.5zM272 215q-91 -38 -134 -77t-43 -82q0 -30 20.5 -43.5t44.5 -13.5q33 0 54 20t33.5 51.5t17.5 70t7 74.5zM305 579q-12 -11 -19.5 -38t-9.5 -69q9 6 22 15.5t25 22t20.5 27.5
t8.5 32q0 3 -3.5 12t-18.5 9q-12 0 -25 -11zM712 215q-91 -38 -134 -77t-43 -82q0 -30 20.5 -43.5t44.5 -13.5q33 0 54 20t33.5 51.5t17.5 70t7 74.5zM745 579q-12 -11 -19.5 -38t-9.5 -69q9 6 22 15.5t25 22t20.5 27.5t8.5 32q0 3 -3.5 12t-18.5 9q-12 0 -25 -11z" />
    <glyph glyph-name="sv" horiz-adv-x="1453" 
d="M634 455q-28 -34 -64 -64t-74 -56t-75 -47.5t-66 -36t-47 -22.5t-18 -7q0 -117 -35 -178.5t-95 -61.5q-32 0 -57.5 18.5t-25.5 56.5q0 45 42.5 87.5t147.5 87.5q1 0 2.5 1t2.5 1q0 54 -5.5 102.5t-7.5 98.5q-45 -38 -90 -76.5t-81.5 -70t-60 -52l-23.5 -20.5q-2 -2 -6 -2
q-9 0 -9 8q0 4 3 7q0 1 24.5 22.5t63 55t85.5 73.5t93 78q0 81 21 115.5t51 34.5q20 0 30 -12t10 -29q0 -18 -10.5 -35.5t-25.5 -32.5t-31 -27.5t-27 -21.5q0 -54 7 -100.5t7 -93.5v-14q18 7 57.5 25.5t87 47.5t97 67t87.5 83q9 10 18.5 22t20 21.5t22 16t24.5 6.5
q18 0 31 -12t13 -31q0 -17 -8.5 -38t-18.5 -44q-13 -28 -27 -51.5t-30.5 -51t-35.5 -62t-41 -83.5q-20 -45 -20 -77q0 -20 7.5 -34t19.5 -22.5t27 -12.5t30 -4q5 0 10 0.5t10 1.5q49 8 94 27t84 44.5t71.5 53.5t56.5 54q50 53 87.5 109.5t64.5 117.5q-41 36 -41 95
q0 28 13 45t38 17q21 0 30.5 -14.5t9.5 -34.5q0 -39 -28 -102q17 -12 42.5 -20t54.5 -8q34 0 67 11t61.5 26.5t51 32.5t36.5 29q3 3 6 3q5 0 7 -3t2 -6q0 -6 -3 -7q-18 -16 -44 -34.5t-56 -34t-63 -25.5t-64 -10q-30 0 -58 8t-47 21q-34 -73 -87 -147t-118 -133
t-138.5 -96.5t-148.5 -37.5q-44 0 -73.5 22.5t-29.5 63.5q0 23 10.5 54t27 66t36.5 71t40 69q2 3 12.5 21t22.5 41t21.5 47.5t9.5 41.5q0 14 -8 19t-17 5q-17 0 -33.5 -17t-36.5 -40zM272 215q-91 -38 -134 -77t-43 -82q0 -30 20.5 -43.5t44.5 -13.5q33 0 54 20t33.5 51.5
t17.5 70t7 74.5zM305 579q-12 -11 -19.5 -38t-9.5 -69q9 6 22 15.5t25 22t20.5 27.5t8.5 32q0 4 -4 12.5t-18 8.5q-12 0 -25 -11zM1120 550q-13 -10 -13 -35q0 -27 7.5 -46.5t22.5 -34.5q10 24 17 48t7 42q0 32 -24 32q-8 0 -17 -6z" />
    <glyph glyph-name="ov" horiz-adv-x="1800" 
d="M449 531q-32 0 -70 -9t-79 -27q-40 -18 -91.5 -54t-98 -84t-78.5 -104t-32 -113q0 -26 7.5 -49.5t24 -42t44 -29.5t66.5 -11q71 0 161 54t179 153q-13 20 -18.5 45.5t-5.5 52.5q0 39 9.5 70t26 53t38 33.5t44.5 11.5q-4 5 -13.5 13.5t-25 16.5t-37.5 14t-51 6zM576 463
q-42 -1 -71 -40.5t-29 -108.5q0 -23 4 -44.5t14 -40.5q51 60 82 112t31 89q0 15 -7 24t-24 9zM974 455q-53 -81 -105 -137.5t-101 -91t-92.5 -50t-79.5 -15.5q-26 0 -45.5 5.5t-32.5 13.5q-15 9 -25 20q-91 -100 -184 -155t-168 -55h-10q-41 2 -69.5 16t-46 35t-25.5 46.5
t-8 52.5q0 39 13 74.5t32.5 67t42.5 58t44 46.5q85 82 172.5 122t159.5 40q38 0 65 -9t45 -19.5t26.5 -19.5t9.5 -10q1 -2 1 -6t-1 -5q17 -4 25 -18t8 -31q0 -33 -30 -91.5t-91 -125.5l6 -5.5t17.5 -12t28.5 -11.5t41 -5q34 0 76 15.5t88.5 50t96.5 88.5t101 132
q1 1 10 11.5t22 22.5t29 22t31 10q23 0 34.5 -13.5t11.5 -30.5t-7.5 -37.5t-18.5 -43.5q-13 -28 -27 -51.5t-30.5 -51t-35.5 -62t-41 -83.5q-20 -45 -20 -77q0 -20 7.5 -34t19.5 -22.5t27 -12.5t30 -4q5 0 10 0.5t10 1.5q49 8 94 27t84 44.5t71.5 53.5t56.5 54
q50 53 87.5 109.5t64.5 117.5q-41 36 -41 95q0 28 13 45t38 17q21 0 30.5 -14.5t9.5 -34.5q0 -39 -28 -102q17 -12 42.5 -20t54.5 -8q34 0 67 11t61.5 26.5t51 32.5t36.5 29q3 3 6 3q5 0 7 -3t2 -6q0 -6 -3 -7q-18 -16 -44 -34.5t-56 -34t-63 -25.5t-64 -10q-30 0 -58 8
t-47 21q-34 -73 -87 -147t-118 -133t-138.5 -96.5t-148.5 -37.5q-44 0 -73.5 22.5t-29.5 63.5q0 23 10.5 54t27 66t36.5 71t40 69q2 3 12.5 20.5t22 41t21 48t9.5 41.5q0 15 -8.5 20t-18.5 5q-14 0 -28 -9t-24.5 -19.5t-17.5 -20zM1470 550q-13 -10 -13 -35q0 -27 7.5 -46.5
t22.5 -34.5q10 24 17 48t7 42q0 32 -24 32q-8 0 -17 -6z" />
    <glyph glyph-name="rs" horiz-adv-x="1278" 
d="M966 443q-37 -19 -83.5 -62t-101 -96t-114.5 -109.5t-124 -102.5t-130 -76t-131 -30q-44 0 -66 22t-22 59q0 29 16 65.5t40.5 75.5t53 78t53 72.5t40.5 59t16 38.5q0 9 -6.5 13.5t-15.5 7t-18.5 3t-14.5 0.5q-2 0 -14.5 1t-30.5 4t-38.5 8.5t-36.5 14.5q-4 -6 -6 -10
q-45 -77 -98.5 -145t-116.5 -125q-2 -2 -6 -2q-9 0 -9 9q0 4 3 7q67 60 117.5 128t93.5 138q2 3 4 6.5t2 4.5q-15 11 -21.5 25.5t-6.5 29.5t4.5 24t10.5 13.5t12 5.5t8 1q13 0 20 -4.5t10 -11t3.5 -12.5t0.5 -9q0 -23 -17 -57q12 -7 27.5 -11.5t31.5 -7.5t29.5 -5t22.5 -2
q4 0 16 -0.5t25 -4.5t23 -12t10 -24q0 -14 -16 -40.5t-40.5 -60t-53 -71.5t-53 -77t-40.5 -76t-16 -67q0 -61 73 -61q62 0 125 29.5t125.5 75t122.5 101.5t115 109.5t103.5 97.5t88.5 67q0 40 6 67.5t16 44t23 24t27 7.5q20 0 30 -12t10 -29q0 -18 -10.5 -35.5t-25.5 -32.5
t-31 -27.5t-27 -21.5q0 -54 7 -100.5t7 -93.5v-14q25 10 47.5 18.5t39.5 13.5q20 6 37 11q30 9 70.5 16t81.5 7h17.5t9.5 -9t-9 -9h-17q-40 0 -79.5 -7t-68.5 -15l-39 -13q-18 -6 -41 -14t-49 -19q0 -117 -35 -178.5t-95 -61.5q-32 0 -57.5 18.5t-25.5 56.5q0 45 42.5 87.5
t147.5 87.5q1 0 2.5 1t2.5 1q0 54 -5.5 106.5t-7.5 102.5zM214 564q-1 -2 -1 -7q0 -11 5 -23.5t13 -17.5q8 17 11 27.5t3 17.5q0 8 -4 14t-13 6q-11 -1 -14 -17zM979 215q-91 -38 -134 -77t-43 -82q0 -30 20.5 -43.5t44.5 -13.5q33 0 54 20t33.5 51.5t17.5 70t7 74.5z
M1012 579q-12 -11 -19.5 -38t-9.5 -69q9 6 22 15.5t25 22t20.5 27.5t8.5 32q0 4 -4 12.5t-18 8.5q-12 0 -25 -11z" />
    </font>
</defs>
</svg>
